G04 #@! TF.GenerationSoftware,KiCad,Pcbnew,(6.0.7-1)-1*
G04 #@! TF.CreationDate,2022-11-10T23:35:09-08:00*
G04 #@! TF.ProjectId,Lightsaber,4c696768-7473-4616-9265-722e6b696361,rev?*
G04 #@! TF.SameCoordinates,Original*
G04 #@! TF.FileFunction,Soldermask,Top*
G04 #@! TF.FilePolarity,Negative*
%FSLAX46Y46*%
G04 Gerber Fmt 4.6, Leading zero omitted, Abs format (unit mm)*
G04 Created by KiCad (PCBNEW (6.0.7-1)-1) date 2022-11-10 23:35:09*
%MOMM*%
%LPD*%
G01*
G04 APERTURE LIST*
G04 Aperture macros list*
%AMRoundRect*
0 Rectangle with rounded corners*
0 $1 Rounding radius*
0 $2 $3 $4 $5 $6 $7 $8 $9 X,Y pos of 4 corners*
0 Add a 4 corners polygon primitive as box body*
4,1,4,$2,$3,$4,$5,$6,$7,$8,$9,$2,$3,0*
0 Add four circle primitives for the rounded corners*
1,1,$1+$1,$2,$3*
1,1,$1+$1,$4,$5*
1,1,$1+$1,$6,$7*
1,1,$1+$1,$8,$9*
0 Add four rect primitives between the rounded corners*
20,1,$1+$1,$2,$3,$4,$5,0*
20,1,$1+$1,$4,$5,$6,$7,0*
20,1,$1+$1,$6,$7,$8,$9,0*
20,1,$1+$1,$8,$9,$2,$3,0*%
G04 Aperture macros list end*
%ADD10R,2.000000X2.000000*%
%ADD11R,1.700000X1.700000*%
%ADD12O,1.700000X1.700000*%
%ADD13R,0.850000X0.850000*%
%ADD14RoundRect,0.200000X0.200000X0.275000X-0.200000X0.275000X-0.200000X-0.275000X0.200000X-0.275000X0*%
%ADD15O,1.600000X1.200000*%
%ADD16O,1.200000X1.200000*%
%ADD17RoundRect,0.150000X0.150000X-0.512500X0.150000X0.512500X-0.150000X0.512500X-0.150000X-0.512500X0*%
%ADD18RoundRect,0.200000X-0.200000X-0.275000X0.200000X-0.275000X0.200000X0.275000X-0.200000X0.275000X0*%
%ADD19R,1.100000X1.100000*%
%ADD20C,2.000000*%
%ADD21RoundRect,0.100000X-0.130000X-0.100000X0.130000X-0.100000X0.130000X0.100000X-0.130000X0.100000X0*%
%ADD22RoundRect,0.225000X0.250000X-0.225000X0.250000X0.225000X-0.250000X0.225000X-0.250000X-0.225000X0*%
%ADD23RoundRect,0.225000X-0.225000X-0.250000X0.225000X-0.250000X0.225000X0.250000X-0.225000X0.250000X0*%
%ADD24R,1.500000X0.900000*%
%ADD25R,0.900000X1.500000*%
%ADD26R,0.900000X0.900000*%
%ADD27R,1.050000X1.500000*%
%ADD28O,1.050000X1.500000*%
%ADD29RoundRect,0.150000X-0.150000X0.512500X-0.150000X-0.512500X0.150000X-0.512500X0.150000X0.512500X0*%
%ADD30R,1.350000X0.400000*%
%ADD31C,1.450000*%
%ADD32R,1.900000X1.200000*%
%ADD33O,1.900000X1.200000*%
%ADD34R,1.900000X1.500000*%
%ADD35RoundRect,0.150000X-0.850000X-0.150000X0.850000X-0.150000X0.850000X0.150000X-0.850000X0.150000X0*%
G04 APERTURE END LIST*
D10*
X107315000Y-85090000D03*
X107315000Y-89090000D03*
X107315000Y-93090000D03*
D11*
X116078000Y-114808000D03*
D12*
X113538000Y-114808000D03*
X110998000Y-114808000D03*
X108458000Y-114808000D03*
X105918000Y-114808000D03*
D13*
X177800000Y-110998000D03*
X145796000Y-99060000D03*
X154940000Y-84836000D03*
X163576000Y-84582000D03*
X121666000Y-95504000D03*
X121412000Y-82042000D03*
X117348000Y-84582000D03*
X118872000Y-105156000D03*
D14*
X111315000Y-90805000D03*
X109665000Y-90805000D03*
D15*
X154305000Y-100330000D03*
D16*
X156845000Y-102870000D03*
X159385000Y-100330000D03*
D17*
X114620000Y-86625000D03*
X116520000Y-86625000D03*
X116520000Y-88900000D03*
X115570000Y-88900000D03*
X114620000Y-88900000D03*
D10*
X180785000Y-84455000D03*
X184785000Y-84455000D03*
D18*
X148400000Y-96520000D03*
X150050000Y-96520000D03*
X118110000Y-81280000D03*
X116460000Y-81280000D03*
D19*
X149730000Y-107950000D03*
X152530000Y-107950000D03*
D10*
X184245000Y-105410000D03*
X180245000Y-105410000D03*
D20*
X149940000Y-91130000D03*
X154940000Y-91130000D03*
X159940000Y-91130000D03*
D21*
X149545000Y-100330000D03*
X148905000Y-100330000D03*
D22*
X174085000Y-113525000D03*
X174085000Y-115075000D03*
D23*
X107950000Y-81280000D03*
X106400000Y-81280000D03*
D22*
X174085000Y-109575000D03*
X174085000Y-111125000D03*
D24*
X124600000Y-93340000D03*
X124600000Y-94610000D03*
X124600000Y-95880000D03*
X124600000Y-97150000D03*
X124600000Y-98420000D03*
X124600000Y-99690000D03*
X124600000Y-100960000D03*
X124600000Y-102230000D03*
X124600000Y-103500000D03*
X124600000Y-104770000D03*
X124600000Y-106040000D03*
X124600000Y-107310000D03*
X124600000Y-108580000D03*
X124600000Y-109850000D03*
D25*
X126365000Y-111100000D03*
X127635000Y-111100000D03*
X128905000Y-111100000D03*
X130175000Y-111100000D03*
X131445000Y-111100000D03*
X132715000Y-111100000D03*
X133985000Y-111100000D03*
X135255000Y-111100000D03*
X136525000Y-111100000D03*
X137795000Y-111100000D03*
X139065000Y-111100000D03*
X140335000Y-111100000D03*
D24*
X142100000Y-109850000D03*
X142100000Y-108580000D03*
X142100000Y-107310000D03*
X142100000Y-106040000D03*
X142100000Y-104770000D03*
X142100000Y-103500000D03*
X142100000Y-102230000D03*
X142100000Y-100960000D03*
X142100000Y-99690000D03*
X142100000Y-98420000D03*
X142100000Y-97150000D03*
X142100000Y-95880000D03*
X142100000Y-94610000D03*
X142100000Y-93340000D03*
D26*
X131850000Y-102460000D03*
X130450000Y-102460000D03*
X131850000Y-101060000D03*
X133250000Y-102460000D03*
X130450000Y-101060000D03*
X131850000Y-99660000D03*
X133250000Y-99660000D03*
X133250000Y-101060000D03*
X130450000Y-99660000D03*
D10*
X180530000Y-113030000D03*
X184530000Y-113030000D03*
D18*
X168180000Y-104140000D03*
X169830000Y-104140000D03*
D23*
X112255000Y-81280000D03*
X113805000Y-81280000D03*
D27*
X109220000Y-99695000D03*
D28*
X107950000Y-99695000D03*
X106680000Y-99695000D03*
D18*
X106300000Y-106045000D03*
X107950000Y-106045000D03*
D29*
X168685000Y-112527500D03*
X167735000Y-112527500D03*
X166785000Y-112527500D03*
X166785000Y-114802500D03*
X168685000Y-114802500D03*
D10*
X153480000Y-113030000D03*
X157480000Y-113030000D03*
X168815000Y-84455000D03*
X172815000Y-84455000D03*
D27*
X116205000Y-100330000D03*
D28*
X117475000Y-100330000D03*
X118745000Y-100330000D03*
D18*
X114935000Y-92075000D03*
X116585000Y-92075000D03*
D21*
X165515000Y-104140000D03*
X164875000Y-104140000D03*
D18*
X173640000Y-104140000D03*
X171990000Y-104140000D03*
D30*
X183449500Y-94645000D03*
X183449500Y-93995000D03*
X183449500Y-93345000D03*
X183449500Y-92695000D03*
X183449500Y-92045000D03*
D31*
X183449500Y-95845000D03*
D32*
X186149500Y-96245000D03*
D33*
X186149500Y-96845000D03*
D34*
X186149500Y-92345000D03*
D33*
X186149500Y-89845000D03*
D32*
X186149500Y-90445000D03*
D34*
X186149500Y-94345000D03*
D31*
X183449500Y-90845000D03*
D35*
X168410000Y-90805000D03*
X168410000Y-92075000D03*
X168410000Y-93345000D03*
X168410000Y-94615000D03*
X168410000Y-95885000D03*
X168410000Y-97155000D03*
X168410000Y-98425000D03*
X168410000Y-99695000D03*
X173410000Y-99695000D03*
X173410000Y-98425000D03*
X173410000Y-97155000D03*
X173410000Y-95885000D03*
X173410000Y-94615000D03*
X173410000Y-93345000D03*
X173410000Y-92075000D03*
X173410000Y-90805000D03*
M02*
