G04 #@! TF.GenerationSoftware,KiCad,Pcbnew,(6.0.7-1)-1*
G04 #@! TF.CreationDate,2022-11-10T23:35:09-08:00*
G04 #@! TF.ProjectId,Lightsaber,4c696768-7473-4616-9265-722e6b696361,rev?*
G04 #@! TF.SameCoordinates,Original*
G04 #@! TF.FileFunction,Soldermask,Bot*
G04 #@! TF.FilePolarity,Negative*
%FSLAX46Y46*%
G04 Gerber Fmt 4.6, Leading zero omitted, Abs format (unit mm)*
G04 Created by KiCad (PCBNEW (6.0.7-1)-1) date 2022-11-10 23:35:09*
%MOMM*%
%LPD*%
G01*
G04 APERTURE LIST*
%ADD10R,2.000000X2.000000*%
%ADD11R,1.700000X1.700000*%
%ADD12O,1.700000X1.700000*%
%ADD13R,0.850000X0.850000*%
%ADD14O,1.600000X1.200000*%
%ADD15O,1.200000X1.200000*%
%ADD16C,2.000000*%
%ADD17R,1.050000X1.500000*%
%ADD18O,1.050000X1.500000*%
%ADD19C,1.450000*%
%ADD20O,1.900000X1.200000*%
G04 APERTURE END LIST*
D10*
X107315000Y-85090000D03*
X107315000Y-89090000D03*
X107315000Y-93090000D03*
D11*
X116078000Y-114808000D03*
D12*
X113538000Y-114808000D03*
X110998000Y-114808000D03*
X108458000Y-114808000D03*
X105918000Y-114808000D03*
D13*
X177800000Y-110998000D03*
X145796000Y-99060000D03*
X154940000Y-84836000D03*
X163576000Y-84582000D03*
X121666000Y-95504000D03*
X121412000Y-82042000D03*
X117348000Y-84582000D03*
X118872000Y-105156000D03*
D14*
X154305000Y-100330000D03*
D15*
X156845000Y-102870000D03*
X159385000Y-100330000D03*
D10*
X180785000Y-84455000D03*
X184785000Y-84455000D03*
X184245000Y-105410000D03*
X180245000Y-105410000D03*
D16*
X149940000Y-91130000D03*
X154940000Y-91130000D03*
X159940000Y-91130000D03*
D10*
X180530000Y-113030000D03*
X184530000Y-113030000D03*
D17*
X109220000Y-99695000D03*
D18*
X107950000Y-99695000D03*
X106680000Y-99695000D03*
D10*
X153480000Y-113030000D03*
X157480000Y-113030000D03*
X168815000Y-84455000D03*
X172815000Y-84455000D03*
D17*
X116205000Y-100330000D03*
D18*
X117475000Y-100330000D03*
X118745000Y-100330000D03*
D19*
X183449500Y-95845000D03*
D20*
X186149500Y-96845000D03*
X186149500Y-89845000D03*
D19*
X183449500Y-90845000D03*
M02*
