G04 #@! TF.GenerationSoftware,KiCad,Pcbnew,(6.0.7-1)-1*
G04 #@! TF.CreationDate,2022-11-10T23:35:09-08:00*
G04 #@! TF.ProjectId,Lightsaber,4c696768-7473-4616-9265-722e6b696361,rev?*
G04 #@! TF.SameCoordinates,Original*
G04 #@! TF.FileFunction,Legend,Top*
G04 #@! TF.FilePolarity,Positive*
%FSLAX46Y46*%
G04 Gerber Fmt 4.6, Leading zero omitted, Abs format (unit mm)*
G04 Created by KiCad (PCBNEW (6.0.7-1)-1) date 2022-11-10 23:35:09*
%MOMM*%
%LPD*%
G01*
G04 APERTURE LIST*
G04 Aperture macros list*
%AMRoundRect*
0 Rectangle with rounded corners*
0 $1 Rounding radius*
0 $2 $3 $4 $5 $6 $7 $8 $9 X,Y pos of 4 corners*
0 Add a 4 corners polygon primitive as box body*
4,1,4,$2,$3,$4,$5,$6,$7,$8,$9,$2,$3,0*
0 Add four circle primitives for the rounded corners*
1,1,$1+$1,$2,$3*
1,1,$1+$1,$4,$5*
1,1,$1+$1,$6,$7*
1,1,$1+$1,$8,$9*
0 Add four rect primitives between the rounded corners*
20,1,$1+$1,$2,$3,$4,$5,0*
20,1,$1+$1,$4,$5,$6,$7,0*
20,1,$1+$1,$6,$7,$8,$9,0*
20,1,$1+$1,$8,$9,$2,$3,0*%
G04 Aperture macros list end*
%ADD10C,0.150000*%
%ADD11C,0.120000*%
%ADD12R,2.000000X2.000000*%
%ADD13R,1.700000X1.700000*%
%ADD14O,1.700000X1.700000*%
%ADD15R,0.850000X0.850000*%
%ADD16RoundRect,0.200000X0.200000X0.275000X-0.200000X0.275000X-0.200000X-0.275000X0.200000X-0.275000X0*%
%ADD17O,1.600000X1.200000*%
%ADD18O,1.200000X1.200000*%
%ADD19RoundRect,0.150000X0.150000X-0.512500X0.150000X0.512500X-0.150000X0.512500X-0.150000X-0.512500X0*%
%ADD20RoundRect,0.200000X-0.200000X-0.275000X0.200000X-0.275000X0.200000X0.275000X-0.200000X0.275000X0*%
%ADD21R,1.100000X1.100000*%
%ADD22C,2.000000*%
%ADD23RoundRect,0.100000X-0.130000X-0.100000X0.130000X-0.100000X0.130000X0.100000X-0.130000X0.100000X0*%
%ADD24RoundRect,0.225000X0.250000X-0.225000X0.250000X0.225000X-0.250000X0.225000X-0.250000X-0.225000X0*%
%ADD25RoundRect,0.225000X-0.225000X-0.250000X0.225000X-0.250000X0.225000X0.250000X-0.225000X0.250000X0*%
%ADD26R,1.500000X0.900000*%
%ADD27R,0.900000X1.500000*%
%ADD28R,0.900000X0.900000*%
%ADD29R,1.050000X1.500000*%
%ADD30O,1.050000X1.500000*%
%ADD31RoundRect,0.150000X-0.150000X0.512500X-0.150000X-0.512500X0.150000X-0.512500X0.150000X0.512500X0*%
%ADD32R,1.350000X0.400000*%
%ADD33C,1.450000*%
%ADD34R,1.900000X1.200000*%
%ADD35O,1.900000X1.200000*%
%ADD36R,1.900000X1.500000*%
%ADD37RoundRect,0.150000X-0.850000X-0.150000X0.850000X-0.150000X0.850000X0.150000X-0.850000X0.150000X0*%
G04 APERTURE END LIST*
D10*
X115681238Y-112974380D02*
X115681238Y-111974380D01*
X116157428Y-112974380D02*
X116157428Y-111974380D01*
X116728857Y-112974380D01*
X116728857Y-111974380D01*
X117062190Y-111974380D02*
X117633619Y-111974380D01*
X117347904Y-112974380D02*
X117347904Y-111974380D01*
X113101523Y-112720380D02*
X113101523Y-111720380D01*
X113339619Y-111720380D01*
X113482476Y-111768000D01*
X113577714Y-111863238D01*
X113625333Y-111958476D01*
X113672952Y-112148952D01*
X113672952Y-112291809D01*
X113625333Y-112482285D01*
X113577714Y-112577523D01*
X113482476Y-112672761D01*
X113339619Y-112720380D01*
X113101523Y-112720380D01*
X114053904Y-112434666D02*
X114530095Y-112434666D01*
X113958666Y-112720380D02*
X114292000Y-111720380D01*
X114625333Y-112720380D01*
X110902761Y-112625142D02*
X110855142Y-112672761D01*
X110712285Y-112720380D01*
X110617047Y-112720380D01*
X110474190Y-112672761D01*
X110378952Y-112577523D01*
X110331333Y-112482285D01*
X110283714Y-112291809D01*
X110283714Y-112148952D01*
X110331333Y-111958476D01*
X110378952Y-111863238D01*
X110474190Y-111768000D01*
X110617047Y-111720380D01*
X110712285Y-111720380D01*
X110855142Y-111768000D01*
X110902761Y-111815619D01*
X111807523Y-112720380D02*
X111331333Y-112720380D01*
X111331333Y-111720380D01*
X108077047Y-112593428D02*
X108838952Y-112593428D01*
X105537047Y-112593428D02*
X106298952Y-112593428D01*
X105918000Y-112974380D02*
X105918000Y-112212476D01*
X153035047Y-115387428D02*
X153796952Y-115387428D01*
X153416000Y-115768380D02*
X153416000Y-115006476D01*
X175133047Y-113355428D02*
X175894952Y-113355428D01*
X105227428Y-93344952D02*
X105227428Y-92583047D01*
X184023047Y-115387428D02*
X184784952Y-115387428D01*
X157099047Y-115387428D02*
X157860952Y-115387428D01*
X163957047Y-105227428D02*
X164718952Y-105227428D01*
X113411047Y-82875428D02*
X114172952Y-82875428D01*
X113792000Y-83256380D02*
X113792000Y-82494476D01*
X147701047Y-100909428D02*
X148462952Y-100909428D01*
X148082000Y-101290380D02*
X148082000Y-100528476D01*
X184023047Y-107767428D02*
X184784952Y-107767428D01*
X184404000Y-108148380D02*
X184404000Y-107386476D01*
X128509523Y-81435380D02*
X128033333Y-81435380D01*
X128033333Y-80435380D01*
X128842857Y-81435380D02*
X128842857Y-80768714D01*
X128842857Y-80435380D02*
X128795238Y-80483000D01*
X128842857Y-80530619D01*
X128890476Y-80483000D01*
X128842857Y-80435380D01*
X128842857Y-80530619D01*
X129747619Y-80768714D02*
X129747619Y-81578238D01*
X129700000Y-81673476D01*
X129652380Y-81721095D01*
X129557142Y-81768714D01*
X129414285Y-81768714D01*
X129319047Y-81721095D01*
X129747619Y-81387761D02*
X129652380Y-81435380D01*
X129461904Y-81435380D01*
X129366666Y-81387761D01*
X129319047Y-81340142D01*
X129271428Y-81244904D01*
X129271428Y-80959190D01*
X129319047Y-80863952D01*
X129366666Y-80816333D01*
X129461904Y-80768714D01*
X129652380Y-80768714D01*
X129747619Y-80816333D01*
X130223809Y-81435380D02*
X130223809Y-80435380D01*
X130652380Y-81435380D02*
X130652380Y-80911571D01*
X130604761Y-80816333D01*
X130509523Y-80768714D01*
X130366666Y-80768714D01*
X130271428Y-80816333D01*
X130223809Y-80863952D01*
X130985714Y-80768714D02*
X131366666Y-80768714D01*
X131128571Y-80435380D02*
X131128571Y-81292523D01*
X131176190Y-81387761D01*
X131271428Y-81435380D01*
X131366666Y-81435380D01*
X131652380Y-81387761D02*
X131747619Y-81435380D01*
X131938095Y-81435380D01*
X132033333Y-81387761D01*
X132080952Y-81292523D01*
X132080952Y-81244904D01*
X132033333Y-81149666D01*
X131938095Y-81102047D01*
X131795238Y-81102047D01*
X131700000Y-81054428D01*
X131652380Y-80959190D01*
X131652380Y-80911571D01*
X131700000Y-80816333D01*
X131795238Y-80768714D01*
X131938095Y-80768714D01*
X132033333Y-80816333D01*
X132938095Y-81435380D02*
X132938095Y-80911571D01*
X132890476Y-80816333D01*
X132795238Y-80768714D01*
X132604761Y-80768714D01*
X132509523Y-80816333D01*
X132938095Y-81387761D02*
X132842857Y-81435380D01*
X132604761Y-81435380D01*
X132509523Y-81387761D01*
X132461904Y-81292523D01*
X132461904Y-81197285D01*
X132509523Y-81102047D01*
X132604761Y-81054428D01*
X132842857Y-81054428D01*
X132938095Y-81006809D01*
X133319047Y-80768714D02*
X133557142Y-81435380D01*
X133795238Y-80768714D01*
X134557142Y-81387761D02*
X134461904Y-81435380D01*
X134271428Y-81435380D01*
X134176190Y-81387761D01*
X134128571Y-81292523D01*
X134128571Y-80911571D01*
X134176190Y-80816333D01*
X134271428Y-80768714D01*
X134461904Y-80768714D01*
X134557142Y-80816333D01*
X134604761Y-80911571D01*
X134604761Y-81006809D01*
X134128571Y-81102047D01*
X135033333Y-81435380D02*
X135033333Y-80768714D01*
X135033333Y-80959190D02*
X135080952Y-80863952D01*
X135128571Y-80816333D01*
X135223809Y-80768714D01*
X135319047Y-80768714D01*
X136414285Y-81435380D02*
X136414285Y-80435380D01*
X136795238Y-80435380D01*
X136890476Y-80483000D01*
X136938095Y-80530619D01*
X136985714Y-80625857D01*
X136985714Y-80768714D01*
X136938095Y-80863952D01*
X136890476Y-80911571D01*
X136795238Y-80959190D01*
X136414285Y-80959190D01*
X137985714Y-81340142D02*
X137938095Y-81387761D01*
X137795238Y-81435380D01*
X137700000Y-81435380D01*
X137557142Y-81387761D01*
X137461904Y-81292523D01*
X137414285Y-81197285D01*
X137366666Y-81006809D01*
X137366666Y-80863952D01*
X137414285Y-80673476D01*
X137461904Y-80578238D01*
X137557142Y-80483000D01*
X137700000Y-80435380D01*
X137795238Y-80435380D01*
X137938095Y-80483000D01*
X137985714Y-80530619D01*
X138747619Y-80911571D02*
X138890476Y-80959190D01*
X138938095Y-81006809D01*
X138985714Y-81102047D01*
X138985714Y-81244904D01*
X138938095Y-81340142D01*
X138890476Y-81387761D01*
X138795238Y-81435380D01*
X138414285Y-81435380D01*
X138414285Y-80435380D01*
X138747619Y-80435380D01*
X138842857Y-80483000D01*
X138890476Y-80530619D01*
X138938095Y-80625857D01*
X138938095Y-80721095D01*
X138890476Y-80816333D01*
X138842857Y-80863952D01*
X138747619Y-80911571D01*
X138414285Y-80911571D01*
X140033333Y-80435380D02*
X140366666Y-81435380D01*
X140700000Y-80435380D01*
X141557142Y-81435380D02*
X140985714Y-81435380D01*
X141271428Y-81435380D02*
X141271428Y-80435380D01*
X141176190Y-80578238D01*
X141080952Y-80673476D01*
X140985714Y-80721095D01*
X142985714Y-81768714D02*
X142985714Y-80340142D01*
X144795238Y-80911571D02*
X144461904Y-80911571D01*
X144461904Y-81435380D02*
X144461904Y-80435380D01*
X144938095Y-80435380D01*
X145747619Y-81435380D02*
X145747619Y-80911571D01*
X145700000Y-80816333D01*
X145604761Y-80768714D01*
X145414285Y-80768714D01*
X145319047Y-80816333D01*
X145747619Y-81387761D02*
X145652380Y-81435380D01*
X145414285Y-81435380D01*
X145319047Y-81387761D01*
X145271428Y-81292523D01*
X145271428Y-81197285D01*
X145319047Y-81102047D01*
X145414285Y-81054428D01*
X145652380Y-81054428D01*
X145747619Y-81006809D01*
X146366666Y-81435380D02*
X146271428Y-81387761D01*
X146223809Y-81292523D01*
X146223809Y-80435380D01*
X146890476Y-81435380D02*
X146795238Y-81387761D01*
X146747619Y-81292523D01*
X146747619Y-80435380D01*
X147985714Y-80530619D02*
X148033333Y-80483000D01*
X148128571Y-80435380D01*
X148366666Y-80435380D01*
X148461904Y-80483000D01*
X148509523Y-80530619D01*
X148557142Y-80625857D01*
X148557142Y-80721095D01*
X148509523Y-80863952D01*
X147938095Y-81435380D01*
X148557142Y-81435380D01*
X149176190Y-80435380D02*
X149271428Y-80435380D01*
X149366666Y-80483000D01*
X149414285Y-80530619D01*
X149461904Y-80625857D01*
X149509523Y-80816333D01*
X149509523Y-81054428D01*
X149461904Y-81244904D01*
X149414285Y-81340142D01*
X149366666Y-81387761D01*
X149271428Y-81435380D01*
X149176190Y-81435380D01*
X149080952Y-81387761D01*
X149033333Y-81340142D01*
X148985714Y-81244904D01*
X148938095Y-81054428D01*
X148938095Y-80816333D01*
X148985714Y-80625857D01*
X149033333Y-80530619D01*
X149080952Y-80483000D01*
X149176190Y-80435380D01*
X149890476Y-80530619D02*
X149938095Y-80483000D01*
X150033333Y-80435380D01*
X150271428Y-80435380D01*
X150366666Y-80483000D01*
X150414285Y-80530619D01*
X150461904Y-80625857D01*
X150461904Y-80721095D01*
X150414285Y-80863952D01*
X149842857Y-81435380D01*
X150461904Y-81435380D01*
X150842857Y-80530619D02*
X150890476Y-80483000D01*
X150985714Y-80435380D01*
X151223809Y-80435380D01*
X151319047Y-80483000D01*
X151366666Y-80530619D01*
X151414285Y-80625857D01*
X151414285Y-80721095D01*
X151366666Y-80863952D01*
X150795238Y-81435380D01*
X151414285Y-81435380D01*
X126057142Y-82521571D02*
X126390476Y-82521571D01*
X126533333Y-83045380D02*
X126057142Y-83045380D01*
X126057142Y-82045380D01*
X126533333Y-82045380D01*
X126866666Y-82378714D02*
X127104761Y-83045380D01*
X127342857Y-82378714D01*
X128152380Y-83045380D02*
X128152380Y-82521571D01*
X128104761Y-82426333D01*
X128009523Y-82378714D01*
X127819047Y-82378714D01*
X127723809Y-82426333D01*
X128152380Y-82997761D02*
X128057142Y-83045380D01*
X127819047Y-83045380D01*
X127723809Y-82997761D01*
X127676190Y-82902523D01*
X127676190Y-82807285D01*
X127723809Y-82712047D01*
X127819047Y-82664428D01*
X128057142Y-82664428D01*
X128152380Y-82616809D01*
X128628571Y-82378714D02*
X128628571Y-83045380D01*
X128628571Y-82473952D02*
X128676190Y-82426333D01*
X128771428Y-82378714D01*
X128914285Y-82378714D01*
X129009523Y-82426333D01*
X129057142Y-82521571D01*
X129057142Y-83045380D01*
X130771428Y-83045380D02*
X130295238Y-83045380D01*
X130295238Y-82045380D01*
X131104761Y-83045380D02*
X131104761Y-82378714D01*
X131104761Y-82045380D02*
X131057142Y-82093000D01*
X131104761Y-82140619D01*
X131152380Y-82093000D01*
X131104761Y-82045380D01*
X131104761Y-82140619D01*
X132580952Y-83378714D02*
X132580952Y-81950142D01*
X134009523Y-82997761D02*
X134152380Y-83045380D01*
X134390476Y-83045380D01*
X134485714Y-82997761D01*
X134533333Y-82950142D01*
X134580952Y-82854904D01*
X134580952Y-82759666D01*
X134533333Y-82664428D01*
X134485714Y-82616809D01*
X134390476Y-82569190D01*
X134200000Y-82521571D01*
X134104761Y-82473952D01*
X134057142Y-82426333D01*
X134009523Y-82331095D01*
X134009523Y-82235857D01*
X134057142Y-82140619D01*
X134104761Y-82093000D01*
X134200000Y-82045380D01*
X134438095Y-82045380D01*
X134580952Y-82093000D01*
X135438095Y-82378714D02*
X135438095Y-83045380D01*
X135009523Y-82378714D02*
X135009523Y-82902523D01*
X135057142Y-82997761D01*
X135152380Y-83045380D01*
X135295238Y-83045380D01*
X135390476Y-82997761D01*
X135438095Y-82950142D01*
X135819047Y-82378714D02*
X136057142Y-83045380D01*
X136295238Y-82378714D01*
X137104761Y-83045380D02*
X137104761Y-82521571D01*
X137057142Y-82426333D01*
X136961904Y-82378714D01*
X136771428Y-82378714D01*
X136676190Y-82426333D01*
X137104761Y-82997761D02*
X137009523Y-83045380D01*
X136771428Y-83045380D01*
X136676190Y-82997761D01*
X136628571Y-82902523D01*
X136628571Y-82807285D01*
X136676190Y-82712047D01*
X136771428Y-82664428D01*
X137009523Y-82664428D01*
X137104761Y-82616809D01*
X137580952Y-82378714D02*
X137580952Y-83045380D01*
X137580952Y-82473952D02*
X137628571Y-82426333D01*
X137723809Y-82378714D01*
X137866666Y-82378714D01*
X137961904Y-82426333D01*
X138009523Y-82521571D01*
X138009523Y-83045380D01*
X139819047Y-83045380D02*
X139485714Y-82569190D01*
X139247619Y-83045380D02*
X139247619Y-82045380D01*
X139628571Y-82045380D01*
X139723809Y-82093000D01*
X139771428Y-82140619D01*
X139819047Y-82235857D01*
X139819047Y-82378714D01*
X139771428Y-82473952D01*
X139723809Y-82521571D01*
X139628571Y-82569190D01*
X139247619Y-82569190D01*
X140676190Y-83045380D02*
X140676190Y-82521571D01*
X140628571Y-82426333D01*
X140533333Y-82378714D01*
X140342857Y-82378714D01*
X140247619Y-82426333D01*
X140676190Y-82997761D02*
X140580952Y-83045380D01*
X140342857Y-83045380D01*
X140247619Y-82997761D01*
X140200000Y-82902523D01*
X140200000Y-82807285D01*
X140247619Y-82712047D01*
X140342857Y-82664428D01*
X140580952Y-82664428D01*
X140676190Y-82616809D01*
X141057142Y-82378714D02*
X141295238Y-83045380D01*
X141533333Y-82378714D01*
X141914285Y-83045380D02*
X141914285Y-82378714D01*
X141914285Y-82045380D02*
X141866666Y-82093000D01*
X141914285Y-82140619D01*
X141961904Y-82093000D01*
X141914285Y-82045380D01*
X141914285Y-82140619D01*
X143390476Y-83378714D02*
X143390476Y-81950142D01*
X145152380Y-82045380D02*
X145152380Y-82759666D01*
X145104761Y-82902523D01*
X145009523Y-82997761D01*
X144866666Y-83045380D01*
X144771428Y-83045380D01*
X146009523Y-82997761D02*
X145914285Y-83045380D01*
X145723809Y-83045380D01*
X145628571Y-82997761D01*
X145580952Y-82902523D01*
X145580952Y-82521571D01*
X145628571Y-82426333D01*
X145723809Y-82378714D01*
X145914285Y-82378714D01*
X146009523Y-82426333D01*
X146057142Y-82521571D01*
X146057142Y-82616809D01*
X145580952Y-82712047D01*
X146485714Y-82378714D02*
X146485714Y-83045380D01*
X146485714Y-82473952D02*
X146533333Y-82426333D01*
X146628571Y-82378714D01*
X146771428Y-82378714D01*
X146866666Y-82426333D01*
X146914285Y-82521571D01*
X146914285Y-83045380D01*
X147390476Y-82378714D02*
X147390476Y-83045380D01*
X147390476Y-82473952D02*
X147438095Y-82426333D01*
X147533333Y-82378714D01*
X147676190Y-82378714D01*
X147771428Y-82426333D01*
X147819047Y-82521571D01*
X147819047Y-83045380D01*
X148295238Y-83045380D02*
X148295238Y-82378714D01*
X148295238Y-82045380D02*
X148247619Y-82093000D01*
X148295238Y-82140619D01*
X148342857Y-82093000D01*
X148295238Y-82045380D01*
X148295238Y-82140619D01*
X148628571Y-82378714D02*
X149009523Y-82378714D01*
X148771428Y-83045380D02*
X148771428Y-82188238D01*
X148819047Y-82093000D01*
X148914285Y-82045380D01*
X149009523Y-82045380D01*
X149723809Y-82997761D02*
X149628571Y-83045380D01*
X149438095Y-83045380D01*
X149342857Y-82997761D01*
X149295238Y-82902523D01*
X149295238Y-82521571D01*
X149342857Y-82426333D01*
X149438095Y-82378714D01*
X149628571Y-82378714D01*
X149723809Y-82426333D01*
X149771428Y-82521571D01*
X149771428Y-82616809D01*
X149295238Y-82712047D01*
X150200000Y-83045380D02*
X150200000Y-82378714D01*
X150200000Y-82569190D02*
X150247619Y-82473952D01*
X150295238Y-82426333D01*
X150390476Y-82378714D01*
X150485714Y-82378714D01*
X151771428Y-82569190D02*
X151771428Y-83045380D01*
X151438095Y-82045380D02*
X151771428Y-82569190D01*
X152104761Y-82045380D01*
X152438095Y-83045380D02*
X152438095Y-82378714D01*
X152438095Y-82045380D02*
X152390476Y-82093000D01*
X152438095Y-82140619D01*
X152485714Y-82093000D01*
X152438095Y-82045380D01*
X152438095Y-82140619D01*
X152914285Y-82378714D02*
X152914285Y-83045380D01*
X152914285Y-82473952D02*
X152961904Y-82426333D01*
X153057142Y-82378714D01*
X153200000Y-82378714D01*
X153295238Y-82426333D01*
X153342857Y-82521571D01*
X153342857Y-83045380D01*
X107823047Y-82367428D02*
X108584952Y-82367428D01*
X108204000Y-82748380D02*
X108204000Y-81986476D01*
X180467047Y-115387428D02*
X181228952Y-115387428D01*
X180848000Y-115768380D02*
X180848000Y-115006476D01*
X175133047Y-111069428D02*
X175894952Y-111069428D01*
X148010571Y-107569047D02*
X148010571Y-108330952D01*
X147629619Y-107950000D02*
X148391523Y-107950000D01*
X184531047Y-86431428D02*
X185292952Y-86431428D01*
X104100380Y-89423333D02*
X104814666Y-89423333D01*
X104957523Y-89470952D01*
X105052761Y-89566190D01*
X105100380Y-89709047D01*
X105100380Y-89804285D01*
X105100380Y-88423333D02*
X105100380Y-88994761D01*
X105100380Y-88709047D02*
X104100380Y-88709047D01*
X104243238Y-88804285D01*
X104338476Y-88899523D01*
X104386095Y-88994761D01*
X118300380Y-115141333D02*
X119014666Y-115141333D01*
X119157523Y-115188952D01*
X119252761Y-115284190D01*
X119300380Y-115427047D01*
X119300380Y-115522285D01*
X118300380Y-114760380D02*
X118300380Y-114141333D01*
X118681333Y-114474666D01*
X118681333Y-114331809D01*
X118728952Y-114236571D01*
X118776571Y-114188952D01*
X118871809Y-114141333D01*
X119109904Y-114141333D01*
X119205142Y-114188952D01*
X119252761Y-114236571D01*
X119300380Y-114331809D01*
X119300380Y-114617523D01*
X119252761Y-114712761D01*
X119205142Y-114760380D01*
X176538095Y-108890380D02*
X177109523Y-108890380D01*
X176823809Y-109890380D02*
X176823809Y-108890380D01*
X177442857Y-109890380D02*
X177442857Y-108890380D01*
X177823809Y-108890380D01*
X177919047Y-108938000D01*
X177966666Y-108985619D01*
X178014285Y-109080857D01*
X178014285Y-109223714D01*
X177966666Y-109318952D01*
X177919047Y-109366571D01*
X177823809Y-109414190D01*
X177442857Y-109414190D01*
X178490476Y-109890380D02*
X178680952Y-109890380D01*
X178776190Y-109842761D01*
X178823809Y-109795142D01*
X178919047Y-109652285D01*
X178966666Y-109461809D01*
X178966666Y-109080857D01*
X178919047Y-108985619D01*
X178871428Y-108938000D01*
X178776190Y-108890380D01*
X178585714Y-108890380D01*
X178490476Y-108938000D01*
X178442857Y-108985619D01*
X178395238Y-109080857D01*
X178395238Y-109318952D01*
X178442857Y-109414190D01*
X178490476Y-109461809D01*
X178585714Y-109509428D01*
X178776190Y-109509428D01*
X178871428Y-109461809D01*
X178919047Y-109414190D01*
X178966666Y-109318952D01*
X144534095Y-96952380D02*
X145105523Y-96952380D01*
X144819809Y-97952380D02*
X144819809Y-96952380D01*
X145438857Y-97952380D02*
X145438857Y-96952380D01*
X145819809Y-96952380D01*
X145915047Y-97000000D01*
X145962666Y-97047619D01*
X146010285Y-97142857D01*
X146010285Y-97285714D01*
X145962666Y-97380952D01*
X145915047Y-97428571D01*
X145819809Y-97476190D01*
X145438857Y-97476190D01*
X146581714Y-97380952D02*
X146486476Y-97333333D01*
X146438857Y-97285714D01*
X146391238Y-97190476D01*
X146391238Y-97142857D01*
X146438857Y-97047619D01*
X146486476Y-97000000D01*
X146581714Y-96952380D01*
X146772190Y-96952380D01*
X146867428Y-97000000D01*
X146915047Y-97047619D01*
X146962666Y-97142857D01*
X146962666Y-97190476D01*
X146915047Y-97285714D01*
X146867428Y-97333333D01*
X146772190Y-97380952D01*
X146581714Y-97380952D01*
X146486476Y-97428571D01*
X146438857Y-97476190D01*
X146391238Y-97571428D01*
X146391238Y-97761904D01*
X146438857Y-97857142D01*
X146486476Y-97904761D01*
X146581714Y-97952380D01*
X146772190Y-97952380D01*
X146867428Y-97904761D01*
X146915047Y-97857142D01*
X146962666Y-97761904D01*
X146962666Y-97571428D01*
X146915047Y-97476190D01*
X146867428Y-97428571D01*
X146772190Y-97380952D01*
X153678095Y-82728380D02*
X154249523Y-82728380D01*
X153963809Y-83728380D02*
X153963809Y-82728380D01*
X154582857Y-83728380D02*
X154582857Y-82728380D01*
X154963809Y-82728380D01*
X155059047Y-82776000D01*
X155106666Y-82823619D01*
X155154285Y-82918857D01*
X155154285Y-83061714D01*
X155106666Y-83156952D01*
X155059047Y-83204571D01*
X154963809Y-83252190D01*
X154582857Y-83252190D01*
X155487619Y-82728380D02*
X156154285Y-82728380D01*
X155725714Y-83728380D01*
X162314095Y-82474380D02*
X162885523Y-82474380D01*
X162599809Y-83474380D02*
X162599809Y-82474380D01*
X163218857Y-83474380D02*
X163218857Y-82474380D01*
X163599809Y-82474380D01*
X163695047Y-82522000D01*
X163742666Y-82569619D01*
X163790285Y-82664857D01*
X163790285Y-82807714D01*
X163742666Y-82902952D01*
X163695047Y-82950571D01*
X163599809Y-82998190D01*
X163218857Y-82998190D01*
X164647428Y-82474380D02*
X164456952Y-82474380D01*
X164361714Y-82522000D01*
X164314095Y-82569619D01*
X164218857Y-82712476D01*
X164171238Y-82902952D01*
X164171238Y-83283904D01*
X164218857Y-83379142D01*
X164266476Y-83426761D01*
X164361714Y-83474380D01*
X164552190Y-83474380D01*
X164647428Y-83426761D01*
X164695047Y-83379142D01*
X164742666Y-83283904D01*
X164742666Y-83045809D01*
X164695047Y-82950571D01*
X164647428Y-82902952D01*
X164552190Y-82855333D01*
X164361714Y-82855333D01*
X164266476Y-82902952D01*
X164218857Y-82950571D01*
X164171238Y-83045809D01*
X120404095Y-93396380D02*
X120975523Y-93396380D01*
X120689809Y-94396380D02*
X120689809Y-93396380D01*
X121308857Y-94396380D02*
X121308857Y-93396380D01*
X121689809Y-93396380D01*
X121785047Y-93444000D01*
X121832666Y-93491619D01*
X121880285Y-93586857D01*
X121880285Y-93729714D01*
X121832666Y-93824952D01*
X121785047Y-93872571D01*
X121689809Y-93920190D01*
X121308857Y-93920190D01*
X122785047Y-93396380D02*
X122308857Y-93396380D01*
X122261238Y-93872571D01*
X122308857Y-93824952D01*
X122404095Y-93777333D01*
X122642190Y-93777333D01*
X122737428Y-93824952D01*
X122785047Y-93872571D01*
X122832666Y-93967809D01*
X122832666Y-94205904D01*
X122785047Y-94301142D01*
X122737428Y-94348761D01*
X122642190Y-94396380D01*
X122404095Y-94396380D01*
X122308857Y-94348761D01*
X122261238Y-94301142D01*
X120150095Y-79934380D02*
X120721523Y-79934380D01*
X120435809Y-80934380D02*
X120435809Y-79934380D01*
X121054857Y-80934380D02*
X121054857Y-79934380D01*
X121435809Y-79934380D01*
X121531047Y-79982000D01*
X121578666Y-80029619D01*
X121626285Y-80124857D01*
X121626285Y-80267714D01*
X121578666Y-80362952D01*
X121531047Y-80410571D01*
X121435809Y-80458190D01*
X121054857Y-80458190D01*
X122483428Y-80267714D02*
X122483428Y-80934380D01*
X122245333Y-79886761D02*
X122007238Y-80601047D01*
X122626285Y-80601047D01*
X118880095Y-84034380D02*
X119451523Y-84034380D01*
X119165809Y-85034380D02*
X119165809Y-84034380D01*
X119784857Y-85034380D02*
X119784857Y-84034380D01*
X120165809Y-84034380D01*
X120261047Y-84082000D01*
X120308666Y-84129619D01*
X120356285Y-84224857D01*
X120356285Y-84367714D01*
X120308666Y-84462952D01*
X120261047Y-84510571D01*
X120165809Y-84558190D01*
X119784857Y-84558190D01*
X120689619Y-84034380D02*
X121308666Y-84034380D01*
X120975333Y-84415333D01*
X121118190Y-84415333D01*
X121213428Y-84462952D01*
X121261047Y-84510571D01*
X121308666Y-84605809D01*
X121308666Y-84843904D01*
X121261047Y-84939142D01*
X121213428Y-84986761D01*
X121118190Y-85034380D01*
X120832476Y-85034380D01*
X120737238Y-84986761D01*
X120689619Y-84939142D01*
X117610095Y-103048380D02*
X118181523Y-103048380D01*
X117895809Y-104048380D02*
X117895809Y-103048380D01*
X118514857Y-104048380D02*
X118514857Y-103048380D01*
X118895809Y-103048380D01*
X118991047Y-103096000D01*
X119038666Y-103143619D01*
X119086285Y-103238857D01*
X119086285Y-103381714D01*
X119038666Y-103476952D01*
X118991047Y-103524571D01*
X118895809Y-103572190D01*
X118514857Y-103572190D01*
X119467238Y-103143619D02*
X119514857Y-103096000D01*
X119610095Y-103048380D01*
X119848190Y-103048380D01*
X119943428Y-103096000D01*
X119991047Y-103143619D01*
X120038666Y-103238857D01*
X120038666Y-103334095D01*
X119991047Y-103476952D01*
X119419619Y-104048380D01*
X120038666Y-104048380D01*
X110323333Y-92687380D02*
X109990000Y-92211190D01*
X109751904Y-92687380D02*
X109751904Y-91687380D01*
X110132857Y-91687380D01*
X110228095Y-91735000D01*
X110275714Y-91782619D01*
X110323333Y-91877857D01*
X110323333Y-92020714D01*
X110275714Y-92115952D01*
X110228095Y-92163571D01*
X110132857Y-92211190D01*
X109751904Y-92211190D01*
X111180476Y-92020714D02*
X111180476Y-92687380D01*
X110942380Y-91639761D02*
X110704285Y-92354047D01*
X111323333Y-92354047D01*
X156749761Y-95057619D02*
X156654523Y-95010000D01*
X156559285Y-94914761D01*
X156416428Y-94771904D01*
X156321190Y-94724285D01*
X156225952Y-94724285D01*
X156273571Y-94962380D02*
X156178333Y-94914761D01*
X156083095Y-94819523D01*
X156035476Y-94629047D01*
X156035476Y-94295714D01*
X156083095Y-94105238D01*
X156178333Y-94010000D01*
X156273571Y-93962380D01*
X156464047Y-93962380D01*
X156559285Y-94010000D01*
X156654523Y-94105238D01*
X156702142Y-94295714D01*
X156702142Y-94629047D01*
X156654523Y-94819523D01*
X156559285Y-94914761D01*
X156464047Y-94962380D01*
X156273571Y-94962380D01*
X157654523Y-94962380D02*
X157083095Y-94962380D01*
X157368809Y-94962380D02*
X157368809Y-93962380D01*
X157273571Y-94105238D01*
X157178333Y-94200476D01*
X157083095Y-94248095D01*
X112622380Y-88524404D02*
X113431904Y-88524404D01*
X113527142Y-88476785D01*
X113574761Y-88429166D01*
X113622380Y-88333928D01*
X113622380Y-88143452D01*
X113574761Y-88048214D01*
X113527142Y-88000595D01*
X113431904Y-87952976D01*
X112622380Y-87952976D01*
X112622380Y-87572023D02*
X112622380Y-86952976D01*
X113003333Y-87286309D01*
X113003333Y-87143452D01*
X113050952Y-87048214D01*
X113098571Y-87000595D01*
X113193809Y-86952976D01*
X113431904Y-86952976D01*
X113527142Y-87000595D01*
X113574761Y-87048214D01*
X113622380Y-87143452D01*
X113622380Y-87429166D01*
X113574761Y-87524404D01*
X113527142Y-87572023D01*
X181292666Y-82446761D02*
X181435523Y-82494380D01*
X181673619Y-82494380D01*
X181768857Y-82446761D01*
X181816476Y-82399142D01*
X181864095Y-82303904D01*
X181864095Y-82208666D01*
X181816476Y-82113428D01*
X181768857Y-82065809D01*
X181673619Y-82018190D01*
X181483142Y-81970571D01*
X181387904Y-81922952D01*
X181340285Y-81875333D01*
X181292666Y-81780095D01*
X181292666Y-81684857D01*
X181340285Y-81589619D01*
X181387904Y-81542000D01*
X181483142Y-81494380D01*
X181721238Y-81494380D01*
X181864095Y-81542000D01*
X182197428Y-81494380D02*
X182435523Y-82494380D01*
X182626000Y-81780095D01*
X182816476Y-82494380D01*
X183054571Y-81494380D01*
X183959333Y-82494380D02*
X183387904Y-82494380D01*
X183673619Y-82494380D02*
X183673619Y-81494380D01*
X183578380Y-81637238D01*
X183483142Y-81732476D01*
X183387904Y-81780095D01*
X149058333Y-95542380D02*
X148725000Y-95066190D01*
X148486904Y-95542380D02*
X148486904Y-94542380D01*
X148867857Y-94542380D01*
X148963095Y-94590000D01*
X149010714Y-94637619D01*
X149058333Y-94732857D01*
X149058333Y-94875714D01*
X149010714Y-94970952D01*
X148963095Y-95018571D01*
X148867857Y-95066190D01*
X148486904Y-95066190D01*
X150010714Y-95542380D02*
X149439285Y-95542380D01*
X149725000Y-95542380D02*
X149725000Y-94542380D01*
X149629761Y-94685238D01*
X149534523Y-94780476D01*
X149439285Y-94828095D01*
X117181333Y-80462380D02*
X116848000Y-79986190D01*
X116609904Y-80462380D02*
X116609904Y-79462380D01*
X116990857Y-79462380D01*
X117086095Y-79510000D01*
X117133714Y-79557619D01*
X117181333Y-79652857D01*
X117181333Y-79795714D01*
X117133714Y-79890952D01*
X117086095Y-79938571D01*
X116990857Y-79986190D01*
X116609904Y-79986190D01*
X117562285Y-79557619D02*
X117609904Y-79510000D01*
X117705142Y-79462380D01*
X117943238Y-79462380D01*
X118038476Y-79510000D01*
X118086095Y-79557619D01*
X118133714Y-79652857D01*
X118133714Y-79748095D01*
X118086095Y-79890952D01*
X117514666Y-80462380D01*
X118133714Y-80462380D01*
X150264904Y-106497380D02*
X150264904Y-105497380D01*
X150503000Y-105497380D01*
X150645857Y-105545000D01*
X150741095Y-105640238D01*
X150788714Y-105735476D01*
X150836333Y-105925952D01*
X150836333Y-106068809D01*
X150788714Y-106259285D01*
X150741095Y-106354523D01*
X150645857Y-106449761D01*
X150503000Y-106497380D01*
X150264904Y-106497380D01*
X151788714Y-106497380D02*
X151217285Y-106497380D01*
X151503000Y-106497380D02*
X151503000Y-105497380D01*
X151407761Y-105640238D01*
X151312523Y-105735476D01*
X151217285Y-105783095D01*
X180911666Y-102766761D02*
X181054523Y-102814380D01*
X181292619Y-102814380D01*
X181387857Y-102766761D01*
X181435476Y-102719142D01*
X181483095Y-102623904D01*
X181483095Y-102528666D01*
X181435476Y-102433428D01*
X181387857Y-102385809D01*
X181292619Y-102338190D01*
X181102142Y-102290571D01*
X181006904Y-102242952D01*
X180959285Y-102195333D01*
X180911666Y-102100095D01*
X180911666Y-102004857D01*
X180959285Y-101909619D01*
X181006904Y-101862000D01*
X181102142Y-101814380D01*
X181340238Y-101814380D01*
X181483095Y-101862000D01*
X181816428Y-101814380D02*
X182054523Y-102814380D01*
X182245000Y-102100095D01*
X182435476Y-102814380D01*
X182673571Y-101814380D01*
X183006904Y-101909619D02*
X183054523Y-101862000D01*
X183149761Y-101814380D01*
X183387857Y-101814380D01*
X183483095Y-101862000D01*
X183530714Y-101909619D01*
X183578333Y-102004857D01*
X183578333Y-102100095D01*
X183530714Y-102242952D01*
X182959285Y-102814380D01*
X183578333Y-102814380D01*
X154344761Y-88590380D02*
X154011428Y-88114190D01*
X153773333Y-88590380D02*
X153773333Y-87590380D01*
X154154285Y-87590380D01*
X154249523Y-87638000D01*
X154297142Y-87685619D01*
X154344761Y-87780857D01*
X154344761Y-87923714D01*
X154297142Y-88018952D01*
X154249523Y-88066571D01*
X154154285Y-88114190D01*
X153773333Y-88114190D01*
X154630476Y-87590380D02*
X154963809Y-88590380D01*
X155297142Y-87590380D01*
X156154285Y-88590380D02*
X155582857Y-88590380D01*
X155868571Y-88590380D02*
X155868571Y-87590380D01*
X155773333Y-87733238D01*
X155678095Y-87828476D01*
X155582857Y-87876095D01*
X149058333Y-99637142D02*
X149010714Y-99684761D01*
X148867857Y-99732380D01*
X148772619Y-99732380D01*
X148629761Y-99684761D01*
X148534523Y-99589523D01*
X148486904Y-99494285D01*
X148439285Y-99303809D01*
X148439285Y-99160952D01*
X148486904Y-98970476D01*
X148534523Y-98875238D01*
X148629761Y-98780000D01*
X148772619Y-98732380D01*
X148867857Y-98732380D01*
X149010714Y-98780000D01*
X149058333Y-98827619D01*
X150010714Y-99732380D02*
X149439285Y-99732380D01*
X149725000Y-99732380D02*
X149725000Y-98732380D01*
X149629761Y-98875238D01*
X149534523Y-98970476D01*
X149439285Y-99018095D01*
X173012142Y-114466666D02*
X173059761Y-114514285D01*
X173107380Y-114657142D01*
X173107380Y-114752380D01*
X173059761Y-114895238D01*
X172964523Y-114990476D01*
X172869285Y-115038095D01*
X172678809Y-115085714D01*
X172535952Y-115085714D01*
X172345476Y-115038095D01*
X172250238Y-114990476D01*
X172155000Y-114895238D01*
X172107380Y-114752380D01*
X172107380Y-114657142D01*
X172155000Y-114514285D01*
X172202619Y-114466666D01*
X172107380Y-114133333D02*
X172107380Y-113466666D01*
X173107380Y-113895238D01*
X103973333Y-81637142D02*
X103925714Y-81684761D01*
X103782857Y-81732380D01*
X103687619Y-81732380D01*
X103544761Y-81684761D01*
X103449523Y-81589523D01*
X103401904Y-81494285D01*
X103354285Y-81303809D01*
X103354285Y-81160952D01*
X103401904Y-80970476D01*
X103449523Y-80875238D01*
X103544761Y-80780000D01*
X103687619Y-80732380D01*
X103782857Y-80732380D01*
X103925714Y-80780000D01*
X103973333Y-80827619D01*
X104830476Y-81065714D02*
X104830476Y-81732380D01*
X104592380Y-80684761D02*
X104354285Y-81399047D01*
X104973333Y-81399047D01*
X173012142Y-110516666D02*
X173059761Y-110564285D01*
X173107380Y-110707142D01*
X173107380Y-110802380D01*
X173059761Y-110945238D01*
X172964523Y-111040476D01*
X172869285Y-111088095D01*
X172678809Y-111135714D01*
X172535952Y-111135714D01*
X172345476Y-111088095D01*
X172250238Y-111040476D01*
X172155000Y-110945238D01*
X172107380Y-110802380D01*
X172107380Y-110707142D01*
X172155000Y-110564285D01*
X172202619Y-110516666D01*
X172535952Y-109945238D02*
X172488333Y-110040476D01*
X172440714Y-110088095D01*
X172345476Y-110135714D01*
X172297857Y-110135714D01*
X172202619Y-110088095D01*
X172155000Y-110040476D01*
X172107380Y-109945238D01*
X172107380Y-109754761D01*
X172155000Y-109659523D01*
X172202619Y-109611904D01*
X172297857Y-109564285D01*
X172345476Y-109564285D01*
X172440714Y-109611904D01*
X172488333Y-109659523D01*
X172535952Y-109754761D01*
X172535952Y-109945238D01*
X172583571Y-110040476D01*
X172631190Y-110088095D01*
X172726428Y-110135714D01*
X172916904Y-110135714D01*
X173012142Y-110088095D01*
X173059761Y-110040476D01*
X173107380Y-109945238D01*
X173107380Y-109754761D01*
X173059761Y-109659523D01*
X173012142Y-109611904D01*
X172916904Y-109564285D01*
X172726428Y-109564285D01*
X172631190Y-109611904D01*
X172583571Y-109659523D01*
X172535952Y-109754761D01*
X132334095Y-84288380D02*
X132334095Y-85097904D01*
X132381714Y-85193142D01*
X132429333Y-85240761D01*
X132524571Y-85288380D01*
X132715047Y-85288380D01*
X132810285Y-85240761D01*
X132857904Y-85193142D01*
X132905523Y-85097904D01*
X132905523Y-84288380D01*
X133857904Y-84288380D02*
X133381714Y-84288380D01*
X133334095Y-84764571D01*
X133381714Y-84716952D01*
X133476952Y-84669333D01*
X133715047Y-84669333D01*
X133810285Y-84716952D01*
X133857904Y-84764571D01*
X133905523Y-84859809D01*
X133905523Y-85097904D01*
X133857904Y-85193142D01*
X133810285Y-85240761D01*
X133715047Y-85288380D01*
X133476952Y-85288380D01*
X133381714Y-85240761D01*
X133334095Y-85193142D01*
X128588095Y-89016666D02*
X129064285Y-89016666D01*
X128492857Y-89302380D02*
X128826190Y-88302380D01*
X129159523Y-89302380D01*
X129492857Y-88635714D02*
X129492857Y-89302380D01*
X129492857Y-88730952D02*
X129540476Y-88683333D01*
X129635714Y-88635714D01*
X129778571Y-88635714D01*
X129873809Y-88683333D01*
X129921428Y-88778571D01*
X129921428Y-89302380D01*
X130254761Y-88635714D02*
X130635714Y-88635714D01*
X130397619Y-88302380D02*
X130397619Y-89159523D01*
X130445238Y-89254761D01*
X130540476Y-89302380D01*
X130635714Y-89302380D01*
X131350000Y-89254761D02*
X131254761Y-89302380D01*
X131064285Y-89302380D01*
X130969047Y-89254761D01*
X130921428Y-89159523D01*
X130921428Y-88778571D01*
X130969047Y-88683333D01*
X131064285Y-88635714D01*
X131254761Y-88635714D01*
X131350000Y-88683333D01*
X131397619Y-88778571D01*
X131397619Y-88873809D01*
X130921428Y-88969047D01*
X131826190Y-88635714D02*
X131826190Y-89302380D01*
X131826190Y-88730952D02*
X131873809Y-88683333D01*
X131969047Y-88635714D01*
X132111904Y-88635714D01*
X132207142Y-88683333D01*
X132254761Y-88778571D01*
X132254761Y-89302380D01*
X132730952Y-88635714D02*
X132730952Y-89302380D01*
X132730952Y-88730952D02*
X132778571Y-88683333D01*
X132873809Y-88635714D01*
X133016666Y-88635714D01*
X133111904Y-88683333D01*
X133159523Y-88778571D01*
X133159523Y-89302380D01*
X134064285Y-89302380D02*
X134064285Y-88778571D01*
X134016666Y-88683333D01*
X133921428Y-88635714D01*
X133730952Y-88635714D01*
X133635714Y-88683333D01*
X134064285Y-89254761D02*
X133969047Y-89302380D01*
X133730952Y-89302380D01*
X133635714Y-89254761D01*
X133588095Y-89159523D01*
X133588095Y-89064285D01*
X133635714Y-88969047D01*
X133730952Y-88921428D01*
X133969047Y-88921428D01*
X134064285Y-88873809D01*
X135254761Y-89016666D02*
X135730952Y-89016666D01*
X135159523Y-89302380D02*
X135492857Y-88302380D01*
X135826190Y-89302380D01*
X136159523Y-89302380D02*
X136159523Y-88635714D01*
X136159523Y-88826190D02*
X136207142Y-88730952D01*
X136254761Y-88683333D01*
X136350000Y-88635714D01*
X136445238Y-88635714D01*
X137159523Y-89254761D02*
X137064285Y-89302380D01*
X136873809Y-89302380D01*
X136778571Y-89254761D01*
X136730952Y-89159523D01*
X136730952Y-88778571D01*
X136778571Y-88683333D01*
X136873809Y-88635714D01*
X137064285Y-88635714D01*
X137159523Y-88683333D01*
X137207142Y-88778571D01*
X137207142Y-88873809D01*
X136730952Y-88969047D01*
X138064285Y-89302380D02*
X138064285Y-88778571D01*
X138016666Y-88683333D01*
X137921428Y-88635714D01*
X137730952Y-88635714D01*
X137635714Y-88683333D01*
X138064285Y-89254761D02*
X137969047Y-89302380D01*
X137730952Y-89302380D01*
X137635714Y-89254761D01*
X137588095Y-89159523D01*
X137588095Y-89064285D01*
X137635714Y-88969047D01*
X137730952Y-88921428D01*
X137969047Y-88921428D01*
X138064285Y-88873809D01*
X181744285Y-110164571D02*
X181887142Y-110212190D01*
X181934761Y-110259809D01*
X181982380Y-110355047D01*
X181982380Y-110497904D01*
X181934761Y-110593142D01*
X181887142Y-110640761D01*
X181791904Y-110688380D01*
X181410952Y-110688380D01*
X181410952Y-109688380D01*
X181744285Y-109688380D01*
X181839523Y-109736000D01*
X181887142Y-109783619D01*
X181934761Y-109878857D01*
X181934761Y-109974095D01*
X181887142Y-110069333D01*
X181839523Y-110116952D01*
X181744285Y-110164571D01*
X181410952Y-110164571D01*
X182268095Y-109688380D02*
X182839523Y-109688380D01*
X182553809Y-110688380D02*
X182553809Y-109688380D01*
X183696666Y-110688380D02*
X183125238Y-110688380D01*
X183410952Y-110688380D02*
X183410952Y-109688380D01*
X183315714Y-109831238D01*
X183220476Y-109926476D01*
X183125238Y-109974095D01*
X168838333Y-103162380D02*
X168505000Y-102686190D01*
X168266904Y-103162380D02*
X168266904Y-102162380D01*
X168647857Y-102162380D01*
X168743095Y-102210000D01*
X168790714Y-102257619D01*
X168838333Y-102352857D01*
X168838333Y-102495714D01*
X168790714Y-102590952D01*
X168743095Y-102638571D01*
X168647857Y-102686190D01*
X168266904Y-102686190D01*
X169171666Y-102162380D02*
X169838333Y-102162380D01*
X169409761Y-103162380D01*
X111847333Y-83161142D02*
X111799714Y-83208761D01*
X111656857Y-83256380D01*
X111561619Y-83256380D01*
X111418761Y-83208761D01*
X111323523Y-83113523D01*
X111275904Y-83018285D01*
X111228285Y-82827809D01*
X111228285Y-82684952D01*
X111275904Y-82494476D01*
X111323523Y-82399238D01*
X111418761Y-82304000D01*
X111561619Y-82256380D01*
X111656857Y-82256380D01*
X111799714Y-82304000D01*
X111847333Y-82351619D01*
X112752095Y-82256380D02*
X112275904Y-82256380D01*
X112228285Y-82732571D01*
X112275904Y-82684952D01*
X112371142Y-82637333D01*
X112609238Y-82637333D01*
X112704476Y-82684952D01*
X112752095Y-82732571D01*
X112799714Y-82827809D01*
X112799714Y-83065904D01*
X112752095Y-83161142D01*
X112704476Y-83208761D01*
X112609238Y-83256380D01*
X112371142Y-83256380D01*
X112275904Y-83208761D01*
X112228285Y-83161142D01*
X107600761Y-97321619D02*
X107505523Y-97274000D01*
X107410285Y-97178761D01*
X107267428Y-97035904D01*
X107172190Y-96988285D01*
X107076952Y-96988285D01*
X107124571Y-97226380D02*
X107029333Y-97178761D01*
X106934095Y-97083523D01*
X106886476Y-96893047D01*
X106886476Y-96559714D01*
X106934095Y-96369238D01*
X107029333Y-96274000D01*
X107124571Y-96226380D01*
X107315047Y-96226380D01*
X107410285Y-96274000D01*
X107505523Y-96369238D01*
X107553142Y-96559714D01*
X107553142Y-96893047D01*
X107505523Y-97083523D01*
X107410285Y-97178761D01*
X107315047Y-97226380D01*
X107124571Y-97226380D01*
X107886476Y-96226380D02*
X108505523Y-96226380D01*
X108172190Y-96607333D01*
X108315047Y-96607333D01*
X108410285Y-96654952D01*
X108457904Y-96702571D01*
X108505523Y-96797809D01*
X108505523Y-97035904D01*
X108457904Y-97131142D01*
X108410285Y-97178761D01*
X108315047Y-97226380D01*
X108029333Y-97226380D01*
X107934095Y-97178761D01*
X107886476Y-97131142D01*
X106958333Y-105067380D02*
X106625000Y-104591190D01*
X106386904Y-105067380D02*
X106386904Y-104067380D01*
X106767857Y-104067380D01*
X106863095Y-104115000D01*
X106910714Y-104162619D01*
X106958333Y-104257857D01*
X106958333Y-104400714D01*
X106910714Y-104495952D01*
X106863095Y-104543571D01*
X106767857Y-104591190D01*
X106386904Y-104591190D01*
X107291666Y-104067380D02*
X107910714Y-104067380D01*
X107577380Y-104448333D01*
X107720238Y-104448333D01*
X107815476Y-104495952D01*
X107863095Y-104543571D01*
X107910714Y-104638809D01*
X107910714Y-104876904D01*
X107863095Y-104972142D01*
X107815476Y-105019761D01*
X107720238Y-105067380D01*
X107434523Y-105067380D01*
X107339285Y-105019761D01*
X107291666Y-104972142D01*
X169587380Y-114426904D02*
X170396904Y-114426904D01*
X170492142Y-114379285D01*
X170539761Y-114331666D01*
X170587380Y-114236428D01*
X170587380Y-114045952D01*
X170539761Y-113950714D01*
X170492142Y-113903095D01*
X170396904Y-113855476D01*
X169587380Y-113855476D01*
X169587380Y-112950714D02*
X169587380Y-113141190D01*
X169635000Y-113236428D01*
X169682619Y-113284047D01*
X169825476Y-113379285D01*
X170015952Y-113426904D01*
X170396904Y-113426904D01*
X170492142Y-113379285D01*
X170539761Y-113331666D01*
X170587380Y-113236428D01*
X170587380Y-113045952D01*
X170539761Y-112950714D01*
X170492142Y-112903095D01*
X170396904Y-112855476D01*
X170158809Y-112855476D01*
X170063571Y-112903095D01*
X170015952Y-112950714D01*
X169968333Y-113045952D01*
X169968333Y-113236428D01*
X170015952Y-113331666D01*
X170063571Y-113379285D01*
X170158809Y-113426904D01*
X154384476Y-110942380D02*
X154384476Y-109942380D01*
X154717809Y-110656666D01*
X155051142Y-109942380D01*
X155051142Y-110942380D01*
X156051142Y-110942380D02*
X155479714Y-110942380D01*
X155765428Y-110942380D02*
X155765428Y-109942380D01*
X155670190Y-110085238D01*
X155574952Y-110180476D01*
X155479714Y-110228095D01*
X170299142Y-82240380D02*
X169822952Y-82240380D01*
X169822952Y-81240380D01*
X170584857Y-82192761D02*
X170727714Y-82240380D01*
X170965809Y-82240380D01*
X171061047Y-82192761D01*
X171108666Y-82145142D01*
X171156285Y-82049904D01*
X171156285Y-81954666D01*
X171108666Y-81859428D01*
X171061047Y-81811809D01*
X170965809Y-81764190D01*
X170775333Y-81716571D01*
X170680095Y-81668952D01*
X170632476Y-81621333D01*
X170584857Y-81526095D01*
X170584857Y-81430857D01*
X170632476Y-81335619D01*
X170680095Y-81288000D01*
X170775333Y-81240380D01*
X171013428Y-81240380D01*
X171156285Y-81288000D01*
X172108666Y-82240380D02*
X171537238Y-82240380D01*
X171822952Y-82240380D02*
X171822952Y-81240380D01*
X171727714Y-81383238D01*
X171632476Y-81478476D01*
X171537238Y-81526095D01*
X116236761Y-97321619D02*
X116141523Y-97274000D01*
X116046285Y-97178761D01*
X115903428Y-97035904D01*
X115808190Y-96988285D01*
X115712952Y-96988285D01*
X115760571Y-97226380D02*
X115665333Y-97178761D01*
X115570095Y-97083523D01*
X115522476Y-96893047D01*
X115522476Y-96559714D01*
X115570095Y-96369238D01*
X115665333Y-96274000D01*
X115760571Y-96226380D01*
X115951047Y-96226380D01*
X116046285Y-96274000D01*
X116141523Y-96369238D01*
X116189142Y-96559714D01*
X116189142Y-96893047D01*
X116141523Y-97083523D01*
X116046285Y-97178761D01*
X115951047Y-97226380D01*
X115760571Y-97226380D01*
X116570095Y-96321619D02*
X116617714Y-96274000D01*
X116712952Y-96226380D01*
X116951047Y-96226380D01*
X117046285Y-96274000D01*
X117093904Y-96321619D01*
X117141523Y-96416857D01*
X117141523Y-96512095D01*
X117093904Y-96654952D01*
X116522476Y-97226380D01*
X117141523Y-97226380D01*
X115593333Y-91097380D02*
X115260000Y-90621190D01*
X115021904Y-91097380D02*
X115021904Y-90097380D01*
X115402857Y-90097380D01*
X115498095Y-90145000D01*
X115545714Y-90192619D01*
X115593333Y-90287857D01*
X115593333Y-90430714D01*
X115545714Y-90525952D01*
X115498095Y-90573571D01*
X115402857Y-90621190D01*
X115021904Y-90621190D01*
X116498095Y-90097380D02*
X116021904Y-90097380D01*
X115974285Y-90573571D01*
X116021904Y-90525952D01*
X116117142Y-90478333D01*
X116355238Y-90478333D01*
X116450476Y-90525952D01*
X116498095Y-90573571D01*
X116545714Y-90668809D01*
X116545714Y-90906904D01*
X116498095Y-91002142D01*
X116450476Y-91049761D01*
X116355238Y-91097380D01*
X116117142Y-91097380D01*
X116021904Y-91049761D01*
X115974285Y-91002142D01*
X165028333Y-103447142D02*
X164980714Y-103494761D01*
X164837857Y-103542380D01*
X164742619Y-103542380D01*
X164599761Y-103494761D01*
X164504523Y-103399523D01*
X164456904Y-103304285D01*
X164409285Y-103113809D01*
X164409285Y-102970952D01*
X164456904Y-102780476D01*
X164504523Y-102685238D01*
X164599761Y-102590000D01*
X164742619Y-102542380D01*
X164837857Y-102542380D01*
X164980714Y-102590000D01*
X165028333Y-102637619D01*
X165885476Y-102542380D02*
X165695000Y-102542380D01*
X165599761Y-102590000D01*
X165552142Y-102637619D01*
X165456904Y-102780476D01*
X165409285Y-102970952D01*
X165409285Y-103351904D01*
X165456904Y-103447142D01*
X165504523Y-103494761D01*
X165599761Y-103542380D01*
X165790238Y-103542380D01*
X165885476Y-103494761D01*
X165933095Y-103447142D01*
X165980714Y-103351904D01*
X165980714Y-103113809D01*
X165933095Y-103018571D01*
X165885476Y-102970952D01*
X165790238Y-102923333D01*
X165599761Y-102923333D01*
X165504523Y-102970952D01*
X165456904Y-103018571D01*
X165409285Y-103113809D01*
X172648333Y-103162380D02*
X172315000Y-102686190D01*
X172076904Y-103162380D02*
X172076904Y-102162380D01*
X172457857Y-102162380D01*
X172553095Y-102210000D01*
X172600714Y-102257619D01*
X172648333Y-102352857D01*
X172648333Y-102495714D01*
X172600714Y-102590952D01*
X172553095Y-102638571D01*
X172457857Y-102686190D01*
X172076904Y-102686190D01*
X173505476Y-102162380D02*
X173315000Y-102162380D01*
X173219761Y-102210000D01*
X173172142Y-102257619D01*
X173076904Y-102400476D01*
X173029285Y-102590952D01*
X173029285Y-102971904D01*
X173076904Y-103067142D01*
X173124523Y-103114761D01*
X173219761Y-103162380D01*
X173410238Y-103162380D01*
X173505476Y-103114761D01*
X173553095Y-103067142D01*
X173600714Y-102971904D01*
X173600714Y-102733809D01*
X173553095Y-102638571D01*
X173505476Y-102590952D01*
X173410238Y-102543333D01*
X173219761Y-102543333D01*
X173124523Y-102590952D01*
X173076904Y-102638571D01*
X173029285Y-102733809D01*
X181251880Y-93678333D02*
X181966166Y-93678333D01*
X182109023Y-93725952D01*
X182204261Y-93821190D01*
X182251880Y-93964047D01*
X182251880Y-94059285D01*
X181347119Y-93249761D02*
X181299500Y-93202142D01*
X181251880Y-93106904D01*
X181251880Y-92868809D01*
X181299500Y-92773571D01*
X181347119Y-92725952D01*
X181442357Y-92678333D01*
X181537595Y-92678333D01*
X181680452Y-92725952D01*
X182251880Y-93297380D01*
X182251880Y-92678333D01*
X170148095Y-88802380D02*
X170148095Y-89611904D01*
X170195714Y-89707142D01*
X170243333Y-89754761D01*
X170338571Y-89802380D01*
X170529047Y-89802380D01*
X170624285Y-89754761D01*
X170671904Y-89707142D01*
X170719523Y-89611904D01*
X170719523Y-88802380D01*
X171719523Y-89802380D02*
X171148095Y-89802380D01*
X171433809Y-89802380D02*
X171433809Y-88802380D01*
X171338571Y-88945238D01*
X171243333Y-89040476D01*
X171148095Y-89088095D01*
D11*
X117408000Y-116138000D02*
X116078000Y-116138000D01*
X114808000Y-116138000D02*
X104588000Y-116138000D01*
X114808000Y-113478000D02*
X104588000Y-113478000D01*
X114808000Y-113478000D02*
X114808000Y-116138000D01*
X104588000Y-113478000D02*
X104588000Y-116138000D01*
X117408000Y-114808000D02*
X117408000Y-116138000D01*
X178495000Y-111683000D02*
X178495000Y-111558000D01*
X177105000Y-111683000D02*
X177191724Y-111683000D01*
X177105000Y-110313000D02*
X177800000Y-110313000D01*
X177105000Y-111683000D02*
X177105000Y-111558000D01*
X178408276Y-111683000D02*
X178495000Y-111683000D01*
X177105000Y-111683000D02*
X178495000Y-111683000D01*
X177105000Y-110998000D02*
X177105000Y-110313000D01*
X146491000Y-99745000D02*
X146491000Y-99620000D01*
X145101000Y-99745000D02*
X145187724Y-99745000D01*
X145101000Y-98375000D02*
X145796000Y-98375000D01*
X145101000Y-99745000D02*
X145101000Y-99620000D01*
X146404276Y-99745000D02*
X146491000Y-99745000D01*
X145101000Y-99745000D02*
X146491000Y-99745000D01*
X145101000Y-99060000D02*
X145101000Y-98375000D01*
X155635000Y-85521000D02*
X155635000Y-85396000D01*
X154245000Y-85521000D02*
X154331724Y-85521000D01*
X154245000Y-84151000D02*
X154940000Y-84151000D01*
X154245000Y-85521000D02*
X154245000Y-85396000D01*
X155548276Y-85521000D02*
X155635000Y-85521000D01*
X154245000Y-85521000D02*
X155635000Y-85521000D01*
X154245000Y-84836000D02*
X154245000Y-84151000D01*
X164271000Y-85267000D02*
X164271000Y-85142000D01*
X162881000Y-85267000D02*
X162967724Y-85267000D01*
X162881000Y-83897000D02*
X163576000Y-83897000D01*
X162881000Y-85267000D02*
X162881000Y-85142000D01*
X164184276Y-85267000D02*
X164271000Y-85267000D01*
X162881000Y-85267000D02*
X164271000Y-85267000D01*
X162881000Y-84582000D02*
X162881000Y-83897000D01*
X122361000Y-96189000D02*
X122361000Y-96064000D01*
X120971000Y-96189000D02*
X121057724Y-96189000D01*
X120971000Y-94819000D02*
X121666000Y-94819000D01*
X120971000Y-96189000D02*
X120971000Y-96064000D01*
X122274276Y-96189000D02*
X122361000Y-96189000D01*
X120971000Y-96189000D02*
X122361000Y-96189000D01*
X120971000Y-95504000D02*
X120971000Y-94819000D01*
X122107000Y-82727000D02*
X122107000Y-82602000D01*
X120717000Y-82727000D02*
X120803724Y-82727000D01*
X120717000Y-81357000D02*
X121412000Y-81357000D01*
X120717000Y-82727000D02*
X120717000Y-82602000D01*
X122020276Y-82727000D02*
X122107000Y-82727000D01*
X120717000Y-82727000D02*
X122107000Y-82727000D01*
X120717000Y-82042000D02*
X120717000Y-81357000D01*
X118043000Y-85267000D02*
X118043000Y-85142000D01*
X116653000Y-85267000D02*
X116739724Y-85267000D01*
X116653000Y-83897000D02*
X117348000Y-83897000D01*
X116653000Y-85267000D02*
X116653000Y-85142000D01*
X117956276Y-85267000D02*
X118043000Y-85267000D01*
X116653000Y-85267000D02*
X118043000Y-85267000D01*
X116653000Y-84582000D02*
X116653000Y-83897000D01*
X119567000Y-105841000D02*
X119567000Y-105716000D01*
X118177000Y-105841000D02*
X118263724Y-105841000D01*
X118177000Y-104471000D02*
X118872000Y-104471000D01*
X118177000Y-105841000D02*
X118177000Y-105716000D01*
X119480276Y-105841000D02*
X119567000Y-105841000D01*
X118177000Y-105841000D02*
X119567000Y-105841000D01*
X118177000Y-105156000D02*
X118177000Y-104471000D01*
X110727258Y-90282500D02*
X110252742Y-90282500D01*
X110727258Y-91327500D02*
X110252742Y-91327500D01*
X153847916Y-96555098D02*
X152956961Y-95664144D01*
X152179144Y-96441961D02*
X153070098Y-97332916D01*
X152956961Y-95664144D02*
X152179144Y-96441961D01*
X153070326Y-97332629D02*
G75*
G03*
X153847916Y-96555098I3774674J-2997371D01*
G01*
X114010000Y-87762500D02*
X114010000Y-86962500D01*
X117130000Y-87762500D02*
X117130000Y-86962500D01*
X114010000Y-87762500D02*
X114010000Y-89562500D01*
X117130000Y-87762500D02*
X117130000Y-88562500D01*
X148987742Y-95997500D02*
X149462258Y-95997500D01*
X148987742Y-97042500D02*
X149462258Y-97042500D01*
X117047742Y-80757500D02*
X117522258Y-80757500D01*
X117047742Y-81802500D02*
X117522258Y-81802500D01*
X148930000Y-106950000D02*
X148930000Y-108950000D01*
X148930000Y-106950000D02*
X152780000Y-106950000D01*
X148930000Y-108950000D02*
X152780000Y-108950000D01*
X173575000Y-114440580D02*
X173575000Y-114159420D01*
X174595000Y-114440580D02*
X174595000Y-114159420D01*
X107034420Y-80770000D02*
X107315580Y-80770000D01*
X107034420Y-81790000D02*
X107315580Y-81790000D01*
X174595000Y-110490580D02*
X174595000Y-110209420D01*
X173575000Y-110490580D02*
X173575000Y-110209420D01*
X142350000Y-111350000D02*
X141350000Y-111350000D01*
X124350000Y-85850000D02*
X142350000Y-85850000D01*
X124350000Y-85850000D02*
X124350000Y-92600000D01*
X124350000Y-111350000D02*
X125350000Y-111350000D01*
X124350000Y-110600000D02*
X124350000Y-111350000D01*
X142350000Y-91790000D02*
X124350000Y-91790000D01*
X142350000Y-85850000D02*
X142350000Y-92600000D01*
X142350000Y-110600000D02*
X142350000Y-111350000D01*
X168767742Y-104662500D02*
X169242258Y-104662500D01*
X168767742Y-103617500D02*
X169242258Y-103617500D01*
X112889420Y-80770000D02*
X113170580Y-80770000D01*
X112889420Y-81790000D02*
X113170580Y-81790000D01*
X109750000Y-97845000D02*
X106150000Y-97845000D01*
X107950000Y-102295001D02*
G75*
G03*
X109788478Y-97856522I0J2600001D01*
G01*
X106111522Y-97856522D02*
G75*
G03*
X107950000Y-102295000I1838478J-1838478D01*
G01*
X106887742Y-105522500D02*
X107362258Y-105522500D01*
X106887742Y-106567500D02*
X107362258Y-106567500D01*
X169295000Y-113665000D02*
X169295000Y-114465000D01*
X169295000Y-113665000D02*
X169295000Y-111865000D01*
X166175000Y-113665000D02*
X166175000Y-112865000D01*
X166175000Y-113665000D02*
X166175000Y-114465000D01*
X115675000Y-102180000D02*
X119275000Y-102180000D01*
X119313478Y-102168478D02*
G75*
G03*
X117475000Y-97730000I-1838478J1838478D01*
G01*
X117475000Y-97729999D02*
G75*
G03*
X115636522Y-102168478I0J-2600001D01*
G01*
X115522742Y-92597500D02*
X115997258Y-92597500D01*
X115522742Y-91552500D02*
X115997258Y-91552500D01*
X172577742Y-103617500D02*
X173052258Y-103617500D01*
X172577742Y-104662500D02*
X173052258Y-104662500D01*
X187549500Y-89445000D02*
X187299500Y-89445000D01*
X183149500Y-97245000D02*
X183149500Y-96795000D01*
X182599500Y-95045000D02*
X183049500Y-95045000D01*
X182599500Y-95045000D02*
X182599500Y-94595000D01*
X187549500Y-97245000D02*
X187299500Y-97245000D01*
X183149500Y-89445000D02*
X183149500Y-89895000D01*
X184999500Y-89445000D02*
X183149500Y-89445000D01*
X184999500Y-97245000D02*
X183149500Y-97245000D01*
X170910000Y-100310000D02*
X168960000Y-100310000D01*
X170910000Y-90190000D02*
X172860000Y-90190000D01*
X170910000Y-90190000D02*
X167410000Y-90190000D01*
X170910000Y-100310000D02*
X172860000Y-100310000D01*
%LPC*%
D12*
X107315000Y-85090000D03*
X107315000Y-89090000D03*
X107315000Y-93090000D03*
D13*
X116078000Y-114808000D03*
D14*
X113538000Y-114808000D03*
X110998000Y-114808000D03*
X108458000Y-114808000D03*
X105918000Y-114808000D03*
D15*
X177800000Y-110998000D03*
X145796000Y-99060000D03*
X154940000Y-84836000D03*
X163576000Y-84582000D03*
X121666000Y-95504000D03*
X121412000Y-82042000D03*
X117348000Y-84582000D03*
X118872000Y-105156000D03*
D16*
X111315000Y-90805000D03*
X109665000Y-90805000D03*
D17*
X154305000Y-100330000D03*
D18*
X156845000Y-102870000D03*
X159385000Y-100330000D03*
D19*
X114620000Y-86625000D03*
X116520000Y-86625000D03*
X116520000Y-88900000D03*
X115570000Y-88900000D03*
X114620000Y-88900000D03*
D12*
X180785000Y-84455000D03*
X184785000Y-84455000D03*
D20*
X148400000Y-96520000D03*
X150050000Y-96520000D03*
X118110000Y-81280000D03*
X116460000Y-81280000D03*
D21*
X149730000Y-107950000D03*
X152530000Y-107950000D03*
D12*
X184245000Y-105410000D03*
X180245000Y-105410000D03*
D22*
X149940000Y-91130000D03*
X154940000Y-91130000D03*
X159940000Y-91130000D03*
D23*
X149545000Y-100330000D03*
X148905000Y-100330000D03*
D24*
X174085000Y-113525000D03*
X174085000Y-115075000D03*
D25*
X107950000Y-81280000D03*
X106400000Y-81280000D03*
D24*
X174085000Y-109575000D03*
X174085000Y-111125000D03*
D26*
X124600000Y-93340000D03*
X124600000Y-94610000D03*
X124600000Y-95880000D03*
X124600000Y-97150000D03*
X124600000Y-98420000D03*
X124600000Y-99690000D03*
X124600000Y-100960000D03*
X124600000Y-102230000D03*
X124600000Y-103500000D03*
X124600000Y-104770000D03*
X124600000Y-106040000D03*
X124600000Y-107310000D03*
X124600000Y-108580000D03*
X124600000Y-109850000D03*
D27*
X126365000Y-111100000D03*
X127635000Y-111100000D03*
X128905000Y-111100000D03*
X130175000Y-111100000D03*
X131445000Y-111100000D03*
X132715000Y-111100000D03*
X133985000Y-111100000D03*
X135255000Y-111100000D03*
X136525000Y-111100000D03*
X137795000Y-111100000D03*
X139065000Y-111100000D03*
X140335000Y-111100000D03*
D26*
X142100000Y-109850000D03*
X142100000Y-108580000D03*
X142100000Y-107310000D03*
X142100000Y-106040000D03*
X142100000Y-104770000D03*
X142100000Y-103500000D03*
X142100000Y-102230000D03*
X142100000Y-100960000D03*
X142100000Y-99690000D03*
X142100000Y-98420000D03*
X142100000Y-97150000D03*
X142100000Y-95880000D03*
X142100000Y-94610000D03*
X142100000Y-93340000D03*
D28*
X131850000Y-102460000D03*
X130450000Y-102460000D03*
X131850000Y-101060000D03*
X133250000Y-102460000D03*
X130450000Y-101060000D03*
X131850000Y-99660000D03*
X133250000Y-99660000D03*
X133250000Y-101060000D03*
X130450000Y-99660000D03*
D12*
X180530000Y-113030000D03*
X184530000Y-113030000D03*
D20*
X168180000Y-104140000D03*
X169830000Y-104140000D03*
D25*
X112255000Y-81280000D03*
X113805000Y-81280000D03*
D29*
X109220000Y-99695000D03*
D30*
X107950000Y-99695000D03*
X106680000Y-99695000D03*
D20*
X106300000Y-106045000D03*
X107950000Y-106045000D03*
D31*
X168685000Y-112527500D03*
X167735000Y-112527500D03*
X166785000Y-112527500D03*
X166785000Y-114802500D03*
X168685000Y-114802500D03*
D12*
X153480000Y-113030000D03*
X157480000Y-113030000D03*
X168815000Y-84455000D03*
X172815000Y-84455000D03*
D29*
X116205000Y-100330000D03*
D30*
X117475000Y-100330000D03*
X118745000Y-100330000D03*
D20*
X114935000Y-92075000D03*
X116585000Y-92075000D03*
D23*
X165515000Y-104140000D03*
X164875000Y-104140000D03*
D20*
X173640000Y-104140000D03*
X171990000Y-104140000D03*
D32*
X183449500Y-94645000D03*
X183449500Y-93995000D03*
X183449500Y-93345000D03*
X183449500Y-92695000D03*
X183449500Y-92045000D03*
D33*
X183449500Y-95845000D03*
D34*
X186149500Y-96245000D03*
D35*
X186149500Y-96845000D03*
D36*
X186149500Y-92345000D03*
D35*
X186149500Y-89845000D03*
D34*
X186149500Y-90445000D03*
D36*
X186149500Y-94345000D03*
D33*
X183449500Y-90845000D03*
D37*
X168410000Y-90805000D03*
X168410000Y-92075000D03*
X168410000Y-93345000D03*
X168410000Y-94615000D03*
X168410000Y-95885000D03*
X168410000Y-97155000D03*
X168410000Y-98425000D03*
X168410000Y-99695000D03*
X173410000Y-99695000D03*
X173410000Y-98425000D03*
X173410000Y-97155000D03*
X173410000Y-95885000D03*
X173410000Y-94615000D03*
X173410000Y-93345000D03*
X173410000Y-92075000D03*
X173410000Y-90805000D03*
M02*
