M48
; DRILL file {KiCad (6.0.7-1)-1} date Thursday, November 10, 2022 at 11:37:12 PM
; FORMAT={-:-/ absolute / metric / decimal}
; #@! TF.CreationDate,2022-11-10T23:37:12-08:00
; #@! TF.GenerationSoftware,Kicad,Pcbnew,(6.0.7-1)-1
; #@! TF.FileFunction,Plated,1,2,PTH
FMAT,2
METRIC
; #@! TA.AperFunction,Plated,PTH,ViaDrill
T1C0.305
; #@! TA.AperFunction,Plated,PTH,ComponentDrill
T2C0.500
; #@! TA.AperFunction,Plated,PTH,ComponentDrill
T3C0.600
; #@! TA.AperFunction,Plated,PTH,ComponentDrill
T4C0.700
; #@! TA.AperFunction,Plated,PTH,ComponentDrill
T5C0.750
; #@! TA.AperFunction,Plated,PTH,ComponentDrill
T6C0.762
; #@! TA.AperFunction,Plated,PTH,ComponentDrill
T7C0.850
; #@! TA.AperFunction,Plated,PTH,ComponentDrill
T8C1.000
%
G90
G05
T1
X103.632Y-92.964
X103.632Y-103.632
X104.14Y-82.804
X108.458Y-111.506
X109.22Y-91.948
X109.22Y-94.004
X110.49Y-104.14
X112.268Y-96.012
X112.392Y-91.437
X112.776Y-98.552
X113.03Y-84.074
X113.665Y-94.615
X113.792Y-87.884
X115.062Y-81.026
X115.57Y-82.804
X117.348Y-87.884
X117.602Y-89.408
X117.831Y-90.579
X118.11Y-93.98
X118.11Y-96.52
X119.634Y-91.694
X121.412Y-88.392
X121.412Y-91.694
X121.412Y-115.316
X122.936Y-98.044
X122.936Y-101.6
X123.698Y-83.058
X123.952Y-91.186
X125.984Y-96.774
X126.492Y-107.696
X128.016Y-106.172
X129.286Y-99.314
X130.302Y-96.52
X130.556Y-93.98
X131.445Y-113.665
X134.112Y-108.204
X134.692Y-104.068
X137.668Y-93.472
X137.668Y-99.568
X138.752Y-100.906
X140.335Y-106.68
X143.511Y-101.346
X144.145Y-95.795
X144.145Y-98.425
X145.288Y-85.852
X145.288Y-114.3
X145.415Y-95.795
X145.415Y-97.245
X145.796Y-110.744
X148.59Y-97.79
X151.095Y-102.905
X151.13Y-99.06
X153.67Y-105.41
X155.789Y-106.259
X156.034Y-103.964
X161.544Y-106.172
X161.544Y-114.3
X162.56Y-80.772
X163.576Y-96.012
X163.576Y-110.236
X163.83Y-102.235
X164.592Y-91.948
X165.735Y-112.963
X166.37Y-97.7
X166.37Y-99.149
X167.005Y-104.14
X167.132Y-81.28
X168.922Y-113.568
X169.756Y-106.68
X170.18Y-90.805
X170.688Y-109.22
X170.763Y-105.956
X170.815Y-111.76
X171.596Y-91.586
X172.187Y-112.497
X173.99Y-88.9
X175.188Y-88.972
X175.26Y-93.92
X175.26Y-95.37
X175.26Y-102.616
X175.768Y-115.316
X175.895Y-88.265
X176.784Y-80.772
X176.784Y-113.792
X178.308Y-107.442
X178.816Y-99.568
X179.832Y-88.392
X186.436Y-100.076
X186.944Y-80.772
X186.944Y-109.22
T2
X117.348Y-84.582
X118.872Y-105.156
X121.412Y-82.042
X121.666Y-95.504
X145.796Y-99.06
X154.94Y-84.836
X163.576Y-84.582
X177.8Y-110.998
T4
X154.305Y-100.33
X156.845Y-102.87
X159.385Y-100.33
T5
X106.68Y-99.695
X107.95Y-99.695
X109.22Y-99.695
X116.205Y-100.33
X117.475Y-100.33
X118.745Y-100.33
T6
X107.315Y-85.09
X107.315Y-89.09
X107.315Y-93.09
T7
X183.45Y-90.845
X183.45Y-95.845
T8
X105.918Y-114.808
X108.458Y-114.808
X110.998Y-114.808
X113.538Y-114.808
X116.078Y-114.808
X149.94Y-91.13
X153.48Y-113.03
X154.94Y-91.13
X157.48Y-113.03
X159.94Y-91.13
X168.815Y-84.455
X172.815Y-84.455
X180.245Y-105.41
X180.53Y-113.03
X180.785Y-84.455
X184.245Y-105.41
X184.53Y-113.03
X184.785Y-84.455
T3
X185.799Y-89.845G85X186.499Y-89.845
G05
X186.499Y-96.845G85X185.799Y-96.845
G05
T0
M30
