G04 #@! TF.GenerationSoftware,KiCad,Pcbnew,(6.0.7-1)-1*
G04 #@! TF.CreationDate,2022-11-10T23:35:09-08:00*
G04 #@! TF.ProjectId,Lightsaber,4c696768-7473-4616-9265-722e6b696361,rev?*
G04 #@! TF.SameCoordinates,Original*
G04 #@! TF.FileFunction,Copper,L2,Bot*
G04 #@! TF.FilePolarity,Positive*
%FSLAX46Y46*%
G04 Gerber Fmt 4.6, Leading zero omitted, Abs format (unit mm)*
G04 Created by KiCad (PCBNEW (6.0.7-1)-1) date 2022-11-10 23:35:09*
%MOMM*%
%LPD*%
G01*
G04 APERTURE LIST*
G04 #@! TA.AperFunction,ComponentPad*
%ADD10R,2.000000X2.000000*%
G04 #@! TD*
G04 #@! TA.AperFunction,ComponentPad*
%ADD11R,1.700000X1.700000*%
G04 #@! TD*
G04 #@! TA.AperFunction,ComponentPad*
%ADD12O,1.700000X1.700000*%
G04 #@! TD*
G04 #@! TA.AperFunction,ComponentPad*
%ADD13R,0.850000X0.850000*%
G04 #@! TD*
G04 #@! TA.AperFunction,ComponentPad*
%ADD14O,1.600000X1.200000*%
G04 #@! TD*
G04 #@! TA.AperFunction,ComponentPad*
%ADD15O,1.200000X1.200000*%
G04 #@! TD*
G04 #@! TA.AperFunction,ComponentPad*
%ADD16C,2.000000*%
G04 #@! TD*
G04 #@! TA.AperFunction,ComponentPad*
%ADD17R,1.050000X1.500000*%
G04 #@! TD*
G04 #@! TA.AperFunction,ComponentPad*
%ADD18O,1.050000X1.500000*%
G04 #@! TD*
G04 #@! TA.AperFunction,ComponentPad*
%ADD19C,1.450000*%
G04 #@! TD*
G04 #@! TA.AperFunction,ComponentPad*
%ADD20O,1.900000X1.200000*%
G04 #@! TD*
G04 #@! TA.AperFunction,ViaPad*
%ADD21C,0.711200*%
G04 #@! TD*
G04 #@! TA.AperFunction,ViaPad*
%ADD22C,1.016000*%
G04 #@! TD*
G04 #@! TA.AperFunction,Conductor*
%ADD23C,0.203200*%
G04 #@! TD*
G04 #@! TA.AperFunction,Conductor*
%ADD24C,0.762000*%
G04 #@! TD*
G04 APERTURE END LIST*
D10*
X107315000Y-85090000D03*
X107315000Y-89090000D03*
X107315000Y-93090000D03*
D11*
X116078000Y-114808000D03*
D12*
X113538000Y-114808000D03*
X110998000Y-114808000D03*
X108458000Y-114808000D03*
X105918000Y-114808000D03*
D13*
X177800000Y-110998000D03*
X145796000Y-99060000D03*
X154940000Y-84836000D03*
X163576000Y-84582000D03*
X121666000Y-95504000D03*
X121412000Y-82042000D03*
X117348000Y-84582000D03*
X118872000Y-105156000D03*
D14*
X154305000Y-100330000D03*
D15*
X156845000Y-102870000D03*
X159385000Y-100330000D03*
D10*
X180785000Y-84455000D03*
X184785000Y-84455000D03*
X184245000Y-105410000D03*
X180245000Y-105410000D03*
D16*
X149940000Y-91130000D03*
X154940000Y-91130000D03*
X159940000Y-91130000D03*
D10*
X180530000Y-113030000D03*
X184530000Y-113030000D03*
D17*
X109220000Y-99695000D03*
D18*
X107950000Y-99695000D03*
X106680000Y-99695000D03*
D10*
X153480000Y-113030000D03*
X157480000Y-113030000D03*
X168815000Y-84455000D03*
X172815000Y-84455000D03*
D17*
X116205000Y-100330000D03*
D18*
X117475000Y-100330000D03*
X118745000Y-100330000D03*
D19*
X183449500Y-95845000D03*
D20*
X186149500Y-96845000D03*
X186149500Y-89845000D03*
D19*
X183449500Y-90845000D03*
D21*
X109220000Y-91948000D03*
X109220000Y-94003900D03*
X121412000Y-91694000D03*
X112268000Y-96012000D03*
X123952000Y-91186000D03*
X143510500Y-101346000D03*
X137668000Y-99568000D03*
X138751660Y-100905660D03*
X122936000Y-98044000D03*
X122936000Y-101600000D03*
X126492000Y-107696000D03*
D22*
X113792000Y-87884000D03*
X117348000Y-87884000D03*
X117831100Y-90579102D03*
X117602000Y-89408000D03*
D21*
X125984000Y-96774000D03*
X153670000Y-105410000D03*
X166370000Y-97700500D03*
X166370000Y-99149500D03*
X156034275Y-103964275D03*
X151095200Y-102904800D03*
X163830000Y-102235000D03*
X176784000Y-80772000D03*
X163576000Y-110236000D03*
X121412000Y-115316000D03*
X178816000Y-99568000D03*
X145288000Y-85852000D03*
X123698000Y-83058000D03*
X161544000Y-106172000D03*
X163576000Y-96012000D03*
X171595675Y-91585674D03*
D22*
X119634000Y-91694000D03*
D21*
X179832000Y-88392000D03*
X167132000Y-81280000D03*
X170815000Y-111760000D03*
X128016000Y-106172000D03*
X121412000Y-88392000D03*
X175260000Y-102616000D03*
X134112000Y-108204000D03*
X112776000Y-98552000D03*
X161544000Y-114300000D03*
X103632000Y-92964000D03*
X162560000Y-80772000D03*
X186436000Y-100076000D03*
X130556000Y-93980000D03*
X186944000Y-80772000D03*
X172187299Y-112497299D03*
X178308000Y-107442000D03*
X145796000Y-110744000D03*
X104140000Y-82804000D03*
X186944000Y-109220000D03*
X175260000Y-95369500D03*
X175260000Y-93920500D03*
X170180000Y-90805000D03*
X137668000Y-93472000D03*
X108458000Y-111506000D03*
X170688000Y-109220000D03*
X145288000Y-114300000D03*
X164592000Y-91948000D03*
X103632000Y-103632000D03*
D22*
X115062000Y-81026000D03*
X113030000Y-84074000D03*
X131445000Y-113665000D03*
X175768000Y-115316000D03*
X176784000Y-113792000D03*
D21*
X115570000Y-82804000D03*
X155788874Y-106258874D03*
X130302000Y-96520000D03*
X165735000Y-112962700D03*
X168921654Y-113567880D03*
X151130000Y-99060000D03*
X110490000Y-104140000D03*
X118110000Y-96520000D03*
X118110000Y-93980000D03*
X113665000Y-94615000D03*
X112392326Y-91437326D03*
X129286000Y-99314000D03*
X170762701Y-105955500D03*
X169756251Y-106680000D03*
X167005000Y-104140000D03*
X145415000Y-97244500D03*
X134692099Y-104067901D03*
X145415000Y-95795500D03*
X175188245Y-88971755D03*
X144145000Y-98425000D03*
X140335000Y-106680000D03*
X175895000Y-88265000D03*
X144145000Y-95795500D03*
X148590000Y-97790000D03*
X173990000Y-88900000D03*
D23*
X109220000Y-94003900D02*
X109220000Y-91948000D01*
X112392326Y-91437326D02*
X112392326Y-92331674D01*
X112392326Y-92331674D02*
X106680000Y-98044000D01*
X106680000Y-98044000D02*
X106680000Y-99695000D01*
X121412000Y-91694000D02*
X121412000Y-94116026D01*
X121412000Y-94116026D02*
X118373026Y-97155000D01*
X118373026Y-97155000D02*
X113411000Y-97155000D01*
X113411000Y-97155000D02*
X112268000Y-96012000D01*
D24*
X117602000Y-89408000D02*
X120650000Y-89408000D01*
X120650000Y-89408000D02*
X127000000Y-95758000D01*
X127000000Y-95758000D02*
X127000000Y-98425000D01*
X127000000Y-98425000D02*
X131445000Y-102870000D01*
X131445000Y-102870000D02*
X131445000Y-113665000D01*
D23*
X129032000Y-97536000D02*
X135636000Y-97536000D01*
X135636000Y-97536000D02*
X137668000Y-99568000D01*
X123952000Y-91186000D02*
X123952000Y-91694000D01*
X123952000Y-91694000D02*
X128016000Y-95758000D01*
X128016000Y-95758000D02*
X128016000Y-96520000D01*
X128016000Y-96520000D02*
X129032000Y-97536000D01*
X139192000Y-101346000D02*
X138751660Y-100905660D01*
X143510500Y-101346000D02*
X139192000Y-101346000D01*
X122936000Y-101600000D02*
X122936000Y-98044000D01*
X126492000Y-107696000D02*
X119380000Y-114808000D01*
X119380000Y-114808000D02*
X116078000Y-114808000D01*
D24*
X117348000Y-87884000D02*
X113792000Y-87884000D01*
X175768000Y-115316000D02*
X176784000Y-114300000D01*
X176784000Y-114300000D02*
X176784000Y-113792000D01*
X113792000Y-87884000D02*
X113792000Y-85090000D01*
X113792000Y-85090000D02*
X115570000Y-83312000D01*
X115570000Y-83312000D02*
X115570000Y-82804000D01*
X117831100Y-90579102D02*
X118519102Y-90579102D01*
X118519102Y-90579102D02*
X119634000Y-91694000D01*
D23*
X130302000Y-96520000D02*
X146050000Y-96520000D01*
X146050000Y-96520000D02*
X147447000Y-97917000D01*
X124714000Y-95504000D02*
X121666000Y-95504000D01*
X125984000Y-96774000D02*
X124714000Y-95504000D01*
X155788874Y-106258874D02*
X147447000Y-97917000D01*
X145796000Y-99060000D02*
X146939000Y-97917000D01*
X146939000Y-97917000D02*
X147447000Y-97917000D01*
D24*
X115062000Y-81534000D02*
X115062000Y-81026000D01*
D23*
X129286000Y-99314000D02*
X129286000Y-99686400D01*
X129286000Y-99686400D02*
X137549600Y-107950000D01*
X137549600Y-107950000D02*
X169511556Y-107950000D01*
X169511556Y-107950000D02*
X170762701Y-106698855D01*
X170762701Y-106698855D02*
X170762701Y-105955500D01*
D24*
X113030000Y-84074000D02*
X113030000Y-83566000D01*
X113030000Y-83566000D02*
X115062000Y-81534000D01*
D23*
X172187299Y-112497299D02*
X171552299Y-112497299D01*
X171552299Y-112497299D02*
X170815000Y-111760000D01*
X166340180Y-113567880D02*
X165735000Y-112962700D01*
X168921654Y-113567880D02*
X166340180Y-113567880D01*
X173900000Y-88175000D02*
X172720000Y-86995000D01*
X175188245Y-88971755D02*
X174391490Y-88175000D01*
X151130000Y-86995000D02*
X145415000Y-92710000D01*
X172720000Y-86995000D02*
X151130000Y-86995000D01*
X174391490Y-88175000D02*
X173900000Y-88175000D01*
X145415000Y-92710000D02*
X145415000Y-95795500D01*
X173990000Y-86360000D02*
X175895000Y-88265000D01*
X149860000Y-86360000D02*
X173990000Y-86360000D01*
X144145000Y-92075000D02*
X149860000Y-86360000D01*
X144145000Y-95795500D02*
X144145000Y-92075000D01*
X141515500Y-97244500D02*
X134692099Y-104067901D01*
X145415000Y-97244500D02*
X141515500Y-97244500D01*
X144145000Y-102870000D02*
X140335000Y-106680000D01*
X144145000Y-98425000D02*
X144145000Y-102870000D01*
X153600400Y-105410000D02*
X153670000Y-105410000D01*
X162100725Y-103964275D02*
X163830000Y-102235000D01*
X166370000Y-97790000D02*
X166370000Y-97700500D01*
X156034275Y-103964275D02*
X162100725Y-103964275D01*
X166370000Y-99149500D02*
X166370000Y-97790000D01*
X151095200Y-102904800D02*
X153600400Y-105410000D01*
X115570000Y-99695000D02*
X116205000Y-100330000D01*
X175260000Y-93920500D02*
X175260000Y-95369500D01*
X109220000Y-99695000D02*
X115570000Y-99695000D01*
X170815001Y-90805000D02*
X171595675Y-91585674D01*
X170180000Y-90805000D02*
X170815001Y-90805000D01*
X156845000Y-102870000D02*
X154940000Y-102870000D01*
X154940000Y-102870000D02*
X151130000Y-99060000D01*
X110490000Y-104140000D02*
X114320000Y-104140000D01*
X117475000Y-100985000D02*
X117475000Y-100330000D01*
X114320000Y-104140000D02*
X117475000Y-100985000D01*
X118110000Y-93980000D02*
X118110000Y-96520000D01*
X116205000Y-93980000D02*
X111315000Y-89090000D01*
X111315000Y-89090000D02*
X107315000Y-89090000D01*
X118110000Y-93980000D02*
X116205000Y-93980000D01*
X107950000Y-99695000D02*
X107950000Y-99126672D01*
X112461672Y-94615000D02*
X113665000Y-94615000D01*
X107950000Y-99126672D02*
X112461672Y-94615000D01*
X169545000Y-106680000D02*
X167005000Y-104140000D01*
X169756251Y-106680000D02*
X169545000Y-106680000D01*
X167005000Y-104140000D02*
X159940000Y-97075000D01*
X159940000Y-97075000D02*
X159940000Y-91130000D01*
X151406167Y-97790000D02*
X148590000Y-97790000D01*
X160296167Y-88900000D02*
X151406167Y-97790000D01*
X173990000Y-88900000D02*
X160296167Y-88900000D01*
G04 #@! TA.AperFunction,Conductor*
G36*
X188663621Y-79268502D02*
G01*
X188710114Y-79322158D01*
X188721500Y-79374500D01*
X188721500Y-116840500D01*
X188701498Y-116908621D01*
X188647842Y-116955114D01*
X188595500Y-116966500D01*
X102234500Y-116966500D01*
X102166379Y-116946498D01*
X102119886Y-116892842D01*
X102108500Y-116840500D01*
X102108500Y-114774695D01*
X104555251Y-114774695D01*
X104555548Y-114779848D01*
X104555548Y-114779851D01*
X104562380Y-114898341D01*
X104568110Y-114997715D01*
X104569247Y-115002761D01*
X104569248Y-115002767D01*
X104590275Y-115096069D01*
X104617222Y-115215639D01*
X104658985Y-115318489D01*
X104699208Y-115417547D01*
X104701266Y-115422616D01*
X104738685Y-115483678D01*
X104815291Y-115608688D01*
X104817987Y-115613088D01*
X104964250Y-115781938D01*
X105136126Y-115924632D01*
X105329000Y-116037338D01*
X105537692Y-116117030D01*
X105542760Y-116118061D01*
X105542763Y-116118062D01*
X105637862Y-116137410D01*
X105756597Y-116161567D01*
X105761772Y-116161757D01*
X105761774Y-116161757D01*
X105974673Y-116169564D01*
X105974677Y-116169564D01*
X105979837Y-116169753D01*
X105984957Y-116169097D01*
X105984959Y-116169097D01*
X106196288Y-116142025D01*
X106196289Y-116142025D01*
X106201416Y-116141368D01*
X106206366Y-116139883D01*
X106410429Y-116078661D01*
X106410434Y-116078659D01*
X106415384Y-116077174D01*
X106615994Y-115978896D01*
X106797860Y-115849173D01*
X106956096Y-115691489D01*
X107015594Y-115608689D01*
X107086453Y-115510077D01*
X107087640Y-115510930D01*
X107134960Y-115467362D01*
X107204897Y-115455145D01*
X107270338Y-115482678D01*
X107298166Y-115514511D01*
X107355694Y-115608388D01*
X107361777Y-115616699D01*
X107501213Y-115777667D01*
X107508580Y-115784883D01*
X107672434Y-115920916D01*
X107680881Y-115926831D01*
X107864756Y-116034279D01*
X107874042Y-116038729D01*
X108073001Y-116114703D01*
X108082899Y-116117579D01*
X108186250Y-116138606D01*
X108200299Y-116137410D01*
X108204000Y-116127065D01*
X108204000Y-116126517D01*
X108712000Y-116126517D01*
X108716064Y-116140359D01*
X108729478Y-116142393D01*
X108736184Y-116141534D01*
X108746262Y-116139392D01*
X108950255Y-116078191D01*
X108959842Y-116074433D01*
X109151095Y-115980739D01*
X109159945Y-115975464D01*
X109333328Y-115851792D01*
X109341200Y-115845139D01*
X109492052Y-115694812D01*
X109498730Y-115686965D01*
X109626022Y-115509819D01*
X109627279Y-115510722D01*
X109674373Y-115467362D01*
X109744311Y-115455145D01*
X109809751Y-115482678D01*
X109837579Y-115514511D01*
X109897987Y-115613088D01*
X110044250Y-115781938D01*
X110216126Y-115924632D01*
X110409000Y-116037338D01*
X110617692Y-116117030D01*
X110622760Y-116118061D01*
X110622763Y-116118062D01*
X110717862Y-116137410D01*
X110836597Y-116161567D01*
X110841772Y-116161757D01*
X110841774Y-116161757D01*
X111054673Y-116169564D01*
X111054677Y-116169564D01*
X111059837Y-116169753D01*
X111064957Y-116169097D01*
X111064959Y-116169097D01*
X111276288Y-116142025D01*
X111276289Y-116142025D01*
X111281416Y-116141368D01*
X111286366Y-116139883D01*
X111490429Y-116078661D01*
X111490434Y-116078659D01*
X111495384Y-116077174D01*
X111695994Y-115978896D01*
X111877860Y-115849173D01*
X112036096Y-115691489D01*
X112095594Y-115608689D01*
X112166453Y-115510077D01*
X112167776Y-115511028D01*
X112214645Y-115467857D01*
X112284580Y-115455625D01*
X112350026Y-115483144D01*
X112377875Y-115514994D01*
X112437987Y-115613088D01*
X112584250Y-115781938D01*
X112756126Y-115924632D01*
X112949000Y-116037338D01*
X113157692Y-116117030D01*
X113162760Y-116118061D01*
X113162763Y-116118062D01*
X113257862Y-116137410D01*
X113376597Y-116161567D01*
X113381772Y-116161757D01*
X113381774Y-116161757D01*
X113594673Y-116169564D01*
X113594677Y-116169564D01*
X113599837Y-116169753D01*
X113604957Y-116169097D01*
X113604959Y-116169097D01*
X113816288Y-116142025D01*
X113816289Y-116142025D01*
X113821416Y-116141368D01*
X113826366Y-116139883D01*
X114030429Y-116078661D01*
X114030434Y-116078659D01*
X114035384Y-116077174D01*
X114235994Y-115978896D01*
X114417860Y-115849173D01*
X114526091Y-115741319D01*
X114588462Y-115707404D01*
X114659268Y-115712592D01*
X114716030Y-115755238D01*
X114733012Y-115786341D01*
X114777385Y-115904705D01*
X114864739Y-116021261D01*
X114981295Y-116108615D01*
X115117684Y-116159745D01*
X115179866Y-116166500D01*
X116976134Y-116166500D01*
X117038316Y-116159745D01*
X117174705Y-116108615D01*
X117291261Y-116021261D01*
X117378615Y-115904705D01*
X117429745Y-115768316D01*
X117436500Y-115706134D01*
X117436500Y-115544100D01*
X117456502Y-115475979D01*
X117510158Y-115429486D01*
X117562500Y-115418100D01*
X119304322Y-115418100D01*
X119314874Y-115418598D01*
X119322128Y-115420219D01*
X119387595Y-115418162D01*
X119391552Y-115418100D01*
X119418383Y-115418100D01*
X119422310Y-115417604D01*
X119423216Y-115417547D01*
X119433860Y-115416708D01*
X119476199Y-115415378D01*
X119494586Y-115410036D01*
X119513943Y-115406028D01*
X119525065Y-115404623D01*
X119525066Y-115404623D01*
X119532932Y-115403629D01*
X119543504Y-115399444D01*
X119572318Y-115388036D01*
X119583545Y-115384192D01*
X119616609Y-115374585D01*
X119616611Y-115374584D01*
X119624225Y-115372372D01*
X119640705Y-115362626D01*
X119658445Y-115353935D01*
X119676254Y-115346884D01*
X119710532Y-115321980D01*
X119720452Y-115315464D01*
X119743660Y-115301739D01*
X174746682Y-115301739D01*
X174763362Y-115500386D01*
X174818310Y-115692009D01*
X174821125Y-115697486D01*
X174900427Y-115851792D01*
X174909430Y-115869311D01*
X175033253Y-116025537D01*
X175185063Y-116154737D01*
X175190441Y-116157743D01*
X175190443Y-116157744D01*
X175232397Y-116181191D01*
X175359076Y-116251989D01*
X175364935Y-116253893D01*
X175364938Y-116253894D01*
X175400701Y-116265514D01*
X175548665Y-116313591D01*
X175554775Y-116314320D01*
X175554777Y-116314320D01*
X175622314Y-116322373D01*
X175746609Y-116337194D01*
X175752744Y-116336722D01*
X175752746Y-116336722D01*
X175939226Y-116322373D01*
X175939231Y-116322372D01*
X175945367Y-116321900D01*
X175951297Y-116320244D01*
X175951299Y-116320244D01*
X176041368Y-116295096D01*
X176137370Y-116268292D01*
X176142870Y-116265514D01*
X176309802Y-116181191D01*
X176309804Y-116181190D01*
X176315303Y-116178412D01*
X176472390Y-116055682D01*
X176486633Y-116039181D01*
X176598618Y-115909446D01*
X176598619Y-115909444D01*
X176602647Y-115904778D01*
X176701112Y-115731448D01*
X176714232Y-115692009D01*
X176736881Y-115623922D01*
X176767344Y-115574599D01*
X177356454Y-114985489D01*
X177371482Y-114972652D01*
X177382470Y-114964669D01*
X177427249Y-114914937D01*
X177431790Y-114910153D01*
X177445937Y-114896006D01*
X177458537Y-114880446D01*
X177462825Y-114875425D01*
X177503170Y-114830619D01*
X177503173Y-114830615D01*
X177507585Y-114825715D01*
X177510881Y-114820005D01*
X177510884Y-114820002D01*
X177514375Y-114813955D01*
X177525568Y-114797670D01*
X177529950Y-114792258D01*
X177534107Y-114787125D01*
X177564477Y-114727520D01*
X177567624Y-114721724D01*
X177588137Y-114686194D01*
X177601075Y-114663785D01*
X177605270Y-114650875D01*
X177612833Y-114632616D01*
X177618994Y-114620524D01*
X177636309Y-114555906D01*
X177638182Y-114549582D01*
X177656813Y-114492240D01*
X177658855Y-114485956D01*
X177660272Y-114472470D01*
X177663876Y-114453023D01*
X177665680Y-114446293D01*
X177665680Y-114446292D01*
X177667389Y-114439915D01*
X177669037Y-114408476D01*
X177670890Y-114373113D01*
X177671407Y-114366539D01*
X177673156Y-114349895D01*
X177673156Y-114349891D01*
X177673500Y-114346620D01*
X177673500Y-114326593D01*
X177673671Y-114320030D01*
X177674197Y-114309992D01*
X177690466Y-114254353D01*
X177717112Y-114207448D01*
X177725403Y-114182526D01*
X177750321Y-114107618D01*
X177760129Y-114078134D01*
X179021500Y-114078134D01*
X179028255Y-114140316D01*
X179079385Y-114276705D01*
X179166739Y-114393261D01*
X179283295Y-114480615D01*
X179419684Y-114531745D01*
X179481866Y-114538500D01*
X181578134Y-114538500D01*
X181640316Y-114531745D01*
X181776705Y-114480615D01*
X181893261Y-114393261D01*
X181980615Y-114276705D01*
X182031745Y-114140316D01*
X182038500Y-114078134D01*
X182038500Y-114074669D01*
X183022001Y-114074669D01*
X183022371Y-114081490D01*
X183027895Y-114132352D01*
X183031521Y-114147604D01*
X183076676Y-114268054D01*
X183085214Y-114283649D01*
X183161715Y-114385724D01*
X183174276Y-114398285D01*
X183276351Y-114474786D01*
X183291946Y-114483324D01*
X183412394Y-114528478D01*
X183427649Y-114532105D01*
X183478514Y-114537631D01*
X183485328Y-114538000D01*
X184257885Y-114538000D01*
X184273124Y-114533525D01*
X184274329Y-114532135D01*
X184276000Y-114524452D01*
X184276000Y-114519884D01*
X184784000Y-114519884D01*
X184788475Y-114535123D01*
X184789865Y-114536328D01*
X184797548Y-114537999D01*
X185574669Y-114537999D01*
X185581490Y-114537629D01*
X185632352Y-114532105D01*
X185647604Y-114528479D01*
X185768054Y-114483324D01*
X185783649Y-114474786D01*
X185885724Y-114398285D01*
X185898285Y-114385724D01*
X185974786Y-114283649D01*
X185983324Y-114268054D01*
X186028478Y-114147606D01*
X186032105Y-114132351D01*
X186037631Y-114081486D01*
X186038000Y-114074672D01*
X186038000Y-113302115D01*
X186033525Y-113286876D01*
X186032135Y-113285671D01*
X186024452Y-113284000D01*
X184802115Y-113284000D01*
X184786876Y-113288475D01*
X184785671Y-113289865D01*
X184784000Y-113297548D01*
X184784000Y-114519884D01*
X184276000Y-114519884D01*
X184276000Y-113302115D01*
X184271525Y-113286876D01*
X184270135Y-113285671D01*
X184262452Y-113284000D01*
X183040116Y-113284000D01*
X183024877Y-113288475D01*
X183023672Y-113289865D01*
X183022001Y-113297548D01*
X183022001Y-114074669D01*
X182038500Y-114074669D01*
X182038500Y-112757885D01*
X183022000Y-112757885D01*
X183026475Y-112773124D01*
X183027865Y-112774329D01*
X183035548Y-112776000D01*
X184257885Y-112776000D01*
X184273124Y-112771525D01*
X184274329Y-112770135D01*
X184276000Y-112762452D01*
X184276000Y-112757885D01*
X184784000Y-112757885D01*
X184788475Y-112773124D01*
X184789865Y-112774329D01*
X184797548Y-112776000D01*
X186019884Y-112776000D01*
X186035123Y-112771525D01*
X186036328Y-112770135D01*
X186037999Y-112762452D01*
X186037999Y-111985331D01*
X186037629Y-111978510D01*
X186032105Y-111927648D01*
X186028479Y-111912396D01*
X185983324Y-111791946D01*
X185974786Y-111776351D01*
X185898285Y-111674276D01*
X185885724Y-111661715D01*
X185783649Y-111585214D01*
X185768054Y-111576676D01*
X185647606Y-111531522D01*
X185632351Y-111527895D01*
X185581486Y-111522369D01*
X185574672Y-111522000D01*
X184802115Y-111522000D01*
X184786876Y-111526475D01*
X184785671Y-111527865D01*
X184784000Y-111535548D01*
X184784000Y-112757885D01*
X184276000Y-112757885D01*
X184276000Y-111540116D01*
X184271525Y-111524877D01*
X184270135Y-111523672D01*
X184262452Y-111522001D01*
X183485331Y-111522001D01*
X183478510Y-111522371D01*
X183427648Y-111527895D01*
X183412396Y-111531521D01*
X183291946Y-111576676D01*
X183276351Y-111585214D01*
X183174276Y-111661715D01*
X183161715Y-111674276D01*
X183085214Y-111776351D01*
X183076676Y-111791946D01*
X183031522Y-111912394D01*
X183027895Y-111927649D01*
X183022369Y-111978514D01*
X183022000Y-111985328D01*
X183022000Y-112757885D01*
X182038500Y-112757885D01*
X182038500Y-111981866D01*
X182031745Y-111919684D01*
X181980615Y-111783295D01*
X181893261Y-111666739D01*
X181776705Y-111579385D01*
X181640316Y-111528255D01*
X181578134Y-111521500D01*
X179481866Y-111521500D01*
X179419684Y-111528255D01*
X179283295Y-111579385D01*
X179166739Y-111666739D01*
X179079385Y-111783295D01*
X179028255Y-111919684D01*
X179021500Y-111981866D01*
X179021500Y-114078134D01*
X177760129Y-114078134D01*
X177780035Y-114018294D01*
X177796663Y-113886671D01*
X177804578Y-113824023D01*
X177804579Y-113824013D01*
X177805020Y-113820520D01*
X177805418Y-113792000D01*
X177785965Y-113593606D01*
X177784184Y-113587707D01*
X177784183Y-113587702D01*
X177730129Y-113408667D01*
X177728348Y-113402768D01*
X177668317Y-113289865D01*
X177637655Y-113232198D01*
X177637653Y-113232195D01*
X177634761Y-113226756D01*
X177630871Y-113221986D01*
X177630868Y-113221982D01*
X177512663Y-113077049D01*
X177512660Y-113077046D01*
X177508768Y-113072274D01*
X177355170Y-112945206D01*
X177179815Y-112850392D01*
X176989385Y-112791444D01*
X176983260Y-112790800D01*
X176983259Y-112790800D01*
X176797260Y-112771251D01*
X176797258Y-112771251D01*
X176791131Y-112770607D01*
X176668252Y-112781790D01*
X176598746Y-112788115D01*
X176598745Y-112788115D01*
X176592605Y-112788674D01*
X176586691Y-112790415D01*
X176586689Y-112790415D01*
X176488527Y-112819306D01*
X176401370Y-112844958D01*
X176224709Y-112937314D01*
X176219909Y-112941174D01*
X176219908Y-112941174D01*
X176214893Y-112945206D01*
X176069351Y-113062225D01*
X175941214Y-113214933D01*
X175845179Y-113389621D01*
X175843318Y-113395488D01*
X175843317Y-113395490D01*
X175820415Y-113467685D01*
X175784902Y-113579635D01*
X175762682Y-113777739D01*
X175767934Y-113840285D01*
X175779362Y-113976386D01*
X175778186Y-113976485D01*
X175771461Y-114040830D01*
X175744005Y-114082052D01*
X175509725Y-114316332D01*
X175456209Y-114348109D01*
X175385370Y-114368958D01*
X175208709Y-114461314D01*
X175203909Y-114465174D01*
X175203908Y-114465174D01*
X175170245Y-114492240D01*
X175053351Y-114586225D01*
X174925214Y-114738933D01*
X174829179Y-114913621D01*
X174768902Y-115103635D01*
X174746682Y-115301739D01*
X119743660Y-115301739D01*
X119750079Y-115297943D01*
X119750082Y-115297941D01*
X119756906Y-115293905D01*
X119770433Y-115280378D01*
X119785467Y-115267537D01*
X119794547Y-115260940D01*
X119794548Y-115260939D01*
X119800962Y-115256279D01*
X119827974Y-115223627D01*
X119835963Y-115214848D01*
X126453807Y-108597005D01*
X126516119Y-108562979D01*
X126542902Y-108560100D01*
X126582821Y-108560100D01*
X126589274Y-108558728D01*
X126589278Y-108558728D01*
X126689697Y-108537383D01*
X126760493Y-108522335D01*
X126766524Y-108519650D01*
X126920400Y-108451140D01*
X126920402Y-108451139D01*
X126926430Y-108448455D01*
X126971979Y-108415362D01*
X127068037Y-108345572D01*
X127068039Y-108345570D01*
X127073381Y-108341689D01*
X127077898Y-108336672D01*
X127190504Y-108211611D01*
X127190505Y-108211610D01*
X127194923Y-108206703D01*
X127285743Y-108049397D01*
X127341873Y-107876646D01*
X127360860Y-107696000D01*
X127341873Y-107515354D01*
X127285743Y-107342603D01*
X127262876Y-107302995D01*
X127236534Y-107257370D01*
X127194923Y-107185297D01*
X127183564Y-107172681D01*
X127077803Y-107055222D01*
X127077802Y-107055221D01*
X127073381Y-107050311D01*
X127064050Y-107043531D01*
X126931772Y-106947426D01*
X126931771Y-106947425D01*
X126926430Y-106943545D01*
X126920402Y-106940861D01*
X126920400Y-106940860D01*
X126766524Y-106872350D01*
X126766523Y-106872350D01*
X126760493Y-106869665D01*
X126671657Y-106850782D01*
X126589278Y-106833272D01*
X126589274Y-106833272D01*
X126582821Y-106831900D01*
X126401179Y-106831900D01*
X126394726Y-106833272D01*
X126394722Y-106833272D01*
X126312343Y-106850782D01*
X126223507Y-106869665D01*
X126217477Y-106872350D01*
X126217476Y-106872350D01*
X126063600Y-106940860D01*
X126063598Y-106940861D01*
X126057570Y-106943545D01*
X126052229Y-106947425D01*
X126052228Y-106947426D01*
X125919951Y-107043531D01*
X125910619Y-107050311D01*
X125906198Y-107055221D01*
X125906197Y-107055222D01*
X125800437Y-107172681D01*
X125789077Y-107185297D01*
X125747466Y-107257370D01*
X125721125Y-107302995D01*
X125698257Y-107342603D01*
X125642127Y-107515354D01*
X125641437Y-107521917D01*
X125641437Y-107521918D01*
X125627093Y-107658387D01*
X125600079Y-107724044D01*
X125590878Y-107734311D01*
X119164193Y-114160995D01*
X119101881Y-114195021D01*
X119075098Y-114197900D01*
X117562500Y-114197900D01*
X117494379Y-114177898D01*
X117447886Y-114124242D01*
X117436500Y-114071900D01*
X117436500Y-113909866D01*
X117429745Y-113847684D01*
X117378615Y-113711295D01*
X117291261Y-113594739D01*
X117174705Y-113507385D01*
X117038316Y-113456255D01*
X116976134Y-113449500D01*
X115179866Y-113449500D01*
X115117684Y-113456255D01*
X114981295Y-113507385D01*
X114864739Y-113594739D01*
X114777385Y-113711295D01*
X114774233Y-113719703D01*
X114732919Y-113829907D01*
X114690277Y-113886671D01*
X114623716Y-113911371D01*
X114554367Y-113896163D01*
X114521743Y-113870476D01*
X114471151Y-113814875D01*
X114471142Y-113814866D01*
X114467670Y-113811051D01*
X114463619Y-113807852D01*
X114463615Y-113807848D01*
X114296414Y-113675800D01*
X114296410Y-113675798D01*
X114292359Y-113672598D01*
X114272279Y-113661513D01*
X114176044Y-113608389D01*
X114096789Y-113564638D01*
X114091920Y-113562914D01*
X114091916Y-113562912D01*
X113891087Y-113491795D01*
X113891083Y-113491794D01*
X113886212Y-113490069D01*
X113881119Y-113489162D01*
X113881116Y-113489161D01*
X113671373Y-113451800D01*
X113671367Y-113451799D01*
X113666284Y-113450894D01*
X113592452Y-113449992D01*
X113448081Y-113448228D01*
X113448079Y-113448228D01*
X113442911Y-113448165D01*
X113222091Y-113481955D01*
X113009756Y-113551357D01*
X112978016Y-113567880D01*
X112892740Y-113612272D01*
X112811607Y-113654507D01*
X112807474Y-113657610D01*
X112807471Y-113657612D01*
X112647477Y-113777739D01*
X112632965Y-113788635D01*
X112607541Y-113815240D01*
X112539280Y-113886671D01*
X112478629Y-113950138D01*
X112371201Y-114107621D01*
X112316293Y-114152621D01*
X112245768Y-114160792D01*
X112182021Y-114129538D01*
X112161324Y-114105054D01*
X112080822Y-113980617D01*
X112080820Y-113980614D01*
X112078014Y-113976277D01*
X111927670Y-113811051D01*
X111923619Y-113807852D01*
X111923615Y-113807848D01*
X111756414Y-113675800D01*
X111756410Y-113675798D01*
X111752359Y-113672598D01*
X111732279Y-113661513D01*
X111636044Y-113608389D01*
X111556789Y-113564638D01*
X111551920Y-113562914D01*
X111551916Y-113562912D01*
X111351087Y-113491795D01*
X111351083Y-113491794D01*
X111346212Y-113490069D01*
X111341119Y-113489162D01*
X111341116Y-113489161D01*
X111131373Y-113451800D01*
X111131367Y-113451799D01*
X111126284Y-113450894D01*
X111052452Y-113449992D01*
X110908081Y-113448228D01*
X110908079Y-113448228D01*
X110902911Y-113448165D01*
X110682091Y-113481955D01*
X110469756Y-113551357D01*
X110438016Y-113567880D01*
X110352740Y-113612272D01*
X110271607Y-113654507D01*
X110267474Y-113657610D01*
X110267471Y-113657612D01*
X110107477Y-113777739D01*
X110092965Y-113788635D01*
X110067541Y-113815240D01*
X109999280Y-113886671D01*
X109938629Y-113950138D01*
X109935720Y-113954403D01*
X109935714Y-113954411D01*
X109900488Y-114006051D01*
X109831204Y-114107618D01*
X109830898Y-114108066D01*
X109775987Y-114153069D01*
X109705462Y-114161240D01*
X109641715Y-114129986D01*
X109621018Y-114105502D01*
X109540426Y-113980926D01*
X109534136Y-113972757D01*
X109390806Y-113815240D01*
X109383273Y-113808215D01*
X109216139Y-113676222D01*
X109207552Y-113670517D01*
X109021117Y-113567599D01*
X109011705Y-113563369D01*
X108810959Y-113492280D01*
X108800988Y-113489646D01*
X108729837Y-113476972D01*
X108716540Y-113478432D01*
X108712000Y-113492989D01*
X108712000Y-116126517D01*
X108204000Y-116126517D01*
X108204000Y-113491102D01*
X108200082Y-113477758D01*
X108185806Y-113475771D01*
X108147324Y-113481660D01*
X108137288Y-113484051D01*
X107934868Y-113550212D01*
X107925359Y-113554209D01*
X107736463Y-113652542D01*
X107727738Y-113658036D01*
X107557433Y-113785905D01*
X107549726Y-113792748D01*
X107402590Y-113946717D01*
X107396109Y-113954722D01*
X107291498Y-114108074D01*
X107236587Y-114153076D01*
X107166062Y-114161247D01*
X107102315Y-114129993D01*
X107081618Y-114105509D01*
X107000822Y-113980617D01*
X107000820Y-113980614D01*
X106998014Y-113976277D01*
X106847670Y-113811051D01*
X106843619Y-113807852D01*
X106843615Y-113807848D01*
X106676414Y-113675800D01*
X106676410Y-113675798D01*
X106672359Y-113672598D01*
X106652279Y-113661513D01*
X106556044Y-113608389D01*
X106476789Y-113564638D01*
X106471920Y-113562914D01*
X106471916Y-113562912D01*
X106271087Y-113491795D01*
X106271083Y-113491794D01*
X106266212Y-113490069D01*
X106261119Y-113489162D01*
X106261116Y-113489161D01*
X106051373Y-113451800D01*
X106051367Y-113451799D01*
X106046284Y-113450894D01*
X105972452Y-113449992D01*
X105828081Y-113448228D01*
X105828079Y-113448228D01*
X105822911Y-113448165D01*
X105602091Y-113481955D01*
X105389756Y-113551357D01*
X105358016Y-113567880D01*
X105272740Y-113612272D01*
X105191607Y-113654507D01*
X105187474Y-113657610D01*
X105187471Y-113657612D01*
X105027477Y-113777739D01*
X105012965Y-113788635D01*
X104987541Y-113815240D01*
X104919280Y-113886671D01*
X104858629Y-113950138D01*
X104855720Y-113954403D01*
X104855714Y-113954411D01*
X104820488Y-114006051D01*
X104732743Y-114134680D01*
X104703359Y-114197982D01*
X104648367Y-114316454D01*
X104638688Y-114337305D01*
X104578989Y-114552570D01*
X104555251Y-114774695D01*
X102108500Y-114774695D01*
X102108500Y-105629134D01*
X117938500Y-105629134D01*
X117945255Y-105691316D01*
X117996385Y-105827705D01*
X118083739Y-105944261D01*
X118200295Y-106031615D01*
X118336684Y-106082745D01*
X118398866Y-106089500D01*
X119345134Y-106089500D01*
X119407316Y-106082745D01*
X119543705Y-106031615D01*
X119660261Y-105944261D01*
X119747615Y-105827705D01*
X119798745Y-105691316D01*
X119805500Y-105629134D01*
X119805500Y-104682866D01*
X119798745Y-104620684D01*
X119747615Y-104484295D01*
X119660261Y-104367739D01*
X119543705Y-104280385D01*
X119407316Y-104229255D01*
X119345134Y-104222500D01*
X118398866Y-104222500D01*
X118336684Y-104229255D01*
X118200295Y-104280385D01*
X118083739Y-104367739D01*
X117996385Y-104484295D01*
X117945255Y-104620684D01*
X117938500Y-104682866D01*
X117938500Y-105629134D01*
X102108500Y-105629134D01*
X102108500Y-104140000D01*
X109621140Y-104140000D01*
X109621830Y-104146565D01*
X109625167Y-104178309D01*
X109640127Y-104320646D01*
X109642167Y-104326924D01*
X109642167Y-104326925D01*
X109659381Y-104379903D01*
X109696257Y-104493397D01*
X109699560Y-104499119D01*
X109699561Y-104499120D01*
X109710983Y-104518904D01*
X109787077Y-104650703D01*
X109791495Y-104655610D01*
X109791496Y-104655611D01*
X109878258Y-104751970D01*
X109908619Y-104785689D01*
X109913961Y-104789570D01*
X109913963Y-104789572D01*
X110050228Y-104888574D01*
X110055570Y-104892455D01*
X110061598Y-104895139D01*
X110061600Y-104895140D01*
X110215476Y-104963650D01*
X110221507Y-104966335D01*
X110310343Y-104985218D01*
X110392722Y-105002728D01*
X110392726Y-105002728D01*
X110399179Y-105004100D01*
X110580821Y-105004100D01*
X110587274Y-105002728D01*
X110587278Y-105002728D01*
X110669657Y-104985218D01*
X110758493Y-104966335D01*
X110764524Y-104963650D01*
X110918400Y-104895140D01*
X110918402Y-104895139D01*
X110924430Y-104892455D01*
X110929772Y-104888574D01*
X111066037Y-104789572D01*
X111066039Y-104789570D01*
X111071381Y-104785689D01*
X111074555Y-104782164D01*
X111137940Y-104751746D01*
X111158242Y-104750100D01*
X114244322Y-104750100D01*
X114254874Y-104750598D01*
X114262128Y-104752219D01*
X114327595Y-104750162D01*
X114331552Y-104750100D01*
X114358383Y-104750100D01*
X114362310Y-104749604D01*
X114363216Y-104749547D01*
X114373860Y-104748708D01*
X114416199Y-104747378D01*
X114434586Y-104742036D01*
X114453943Y-104738028D01*
X114465065Y-104736623D01*
X114465066Y-104736623D01*
X114472932Y-104735629D01*
X114483504Y-104731444D01*
X114512318Y-104720036D01*
X114523545Y-104716192D01*
X114556609Y-104706585D01*
X114556611Y-104706584D01*
X114564225Y-104704372D01*
X114580705Y-104694626D01*
X114598445Y-104685935D01*
X114616254Y-104678884D01*
X114650532Y-104653980D01*
X114660452Y-104647464D01*
X114690079Y-104629943D01*
X114690082Y-104629941D01*
X114696906Y-104625905D01*
X114710433Y-104612378D01*
X114725467Y-104599537D01*
X114734547Y-104592940D01*
X114734548Y-104592939D01*
X114740962Y-104588279D01*
X114767974Y-104555627D01*
X114775963Y-104546848D01*
X117722812Y-101600000D01*
X122067140Y-101600000D01*
X122067830Y-101606565D01*
X122079689Y-101719389D01*
X122086127Y-101780646D01*
X122088167Y-101786924D01*
X122088167Y-101786925D01*
X122114559Y-101868150D01*
X122142257Y-101953397D01*
X122145560Y-101959119D01*
X122145561Y-101959120D01*
X122155366Y-101976102D01*
X122233077Y-102110703D01*
X122237495Y-102115610D01*
X122237496Y-102115611D01*
X122346496Y-102236668D01*
X122354619Y-102245689D01*
X122359961Y-102249570D01*
X122359963Y-102249572D01*
X122477500Y-102334967D01*
X122501570Y-102352455D01*
X122507598Y-102355139D01*
X122507600Y-102355140D01*
X122595099Y-102394097D01*
X122667507Y-102426335D01*
X122756343Y-102445218D01*
X122838722Y-102462728D01*
X122838726Y-102462728D01*
X122845179Y-102464100D01*
X123026821Y-102464100D01*
X123033274Y-102462728D01*
X123033278Y-102462728D01*
X123115657Y-102445218D01*
X123204493Y-102426335D01*
X123276901Y-102394097D01*
X123364400Y-102355140D01*
X123364402Y-102355139D01*
X123370430Y-102352455D01*
X123394500Y-102334967D01*
X123512037Y-102249572D01*
X123512039Y-102249570D01*
X123517381Y-102245689D01*
X123525504Y-102236668D01*
X123634504Y-102115611D01*
X123634505Y-102115610D01*
X123638923Y-102110703D01*
X123716634Y-101976102D01*
X123726439Y-101959120D01*
X123726440Y-101959119D01*
X123729743Y-101953397D01*
X123757441Y-101868150D01*
X123783833Y-101786925D01*
X123783833Y-101786924D01*
X123785873Y-101780646D01*
X123792312Y-101719389D01*
X123804170Y-101606565D01*
X123804860Y-101600000D01*
X123802302Y-101575665D01*
X123786563Y-101425918D01*
X123786563Y-101425917D01*
X123785873Y-101419354D01*
X123780566Y-101403019D01*
X123731785Y-101252888D01*
X123729743Y-101246603D01*
X123726439Y-101240880D01*
X123642226Y-101095017D01*
X123642223Y-101095013D01*
X123638923Y-101089297D01*
X123578464Y-101022150D01*
X123547747Y-100958143D01*
X123546100Y-100937840D01*
X123546100Y-98706160D01*
X123566102Y-98638039D01*
X123578464Y-98621849D01*
X123593054Y-98605646D01*
X123615352Y-98580881D01*
X123634504Y-98559611D01*
X123634505Y-98559610D01*
X123638923Y-98554703D01*
X123642223Y-98548987D01*
X123642226Y-98548983D01*
X123726439Y-98403120D01*
X123726440Y-98403119D01*
X123729743Y-98397397D01*
X123762458Y-98296711D01*
X123783833Y-98230925D01*
X123783833Y-98230924D01*
X123785873Y-98224646D01*
X123802040Y-98070835D01*
X123804170Y-98050565D01*
X123804860Y-98044000D01*
X123787636Y-97880128D01*
X123786563Y-97869918D01*
X123786563Y-97869917D01*
X123785873Y-97863354D01*
X123783115Y-97854864D01*
X123734285Y-97704582D01*
X123729743Y-97690603D01*
X123721752Y-97676761D01*
X123677627Y-97600335D01*
X123638923Y-97533297D01*
X123633035Y-97526757D01*
X123521803Y-97403222D01*
X123521802Y-97403221D01*
X123517381Y-97398311D01*
X123511974Y-97394382D01*
X123375772Y-97295426D01*
X123375771Y-97295425D01*
X123370430Y-97291545D01*
X123364402Y-97288861D01*
X123364400Y-97288860D01*
X123210524Y-97220350D01*
X123210523Y-97220350D01*
X123204493Y-97217665D01*
X123115657Y-97198783D01*
X123033278Y-97181272D01*
X123033274Y-97181272D01*
X123026821Y-97179900D01*
X122845179Y-97179900D01*
X122838726Y-97181272D01*
X122838722Y-97181272D01*
X122756343Y-97198782D01*
X122667507Y-97217665D01*
X122661477Y-97220350D01*
X122661476Y-97220350D01*
X122507600Y-97288860D01*
X122507598Y-97288861D01*
X122501570Y-97291545D01*
X122496229Y-97295425D01*
X122496228Y-97295426D01*
X122360027Y-97394382D01*
X122354619Y-97398311D01*
X122350198Y-97403221D01*
X122350197Y-97403222D01*
X122238966Y-97526757D01*
X122233077Y-97533297D01*
X122194373Y-97600335D01*
X122150249Y-97676761D01*
X122142257Y-97690603D01*
X122137715Y-97704582D01*
X122088886Y-97854864D01*
X122086127Y-97863354D01*
X122085437Y-97869917D01*
X122085437Y-97869918D01*
X122084364Y-97880128D01*
X122067140Y-98044000D01*
X122067830Y-98050565D01*
X122069961Y-98070835D01*
X122086127Y-98224646D01*
X122088167Y-98230924D01*
X122088167Y-98230925D01*
X122109542Y-98296711D01*
X122142257Y-98397397D01*
X122145560Y-98403119D01*
X122145561Y-98403120D01*
X122229774Y-98548983D01*
X122229777Y-98548987D01*
X122233077Y-98554703D01*
X122237495Y-98559610D01*
X122237496Y-98559611D01*
X122256648Y-98580881D01*
X122278947Y-98605646D01*
X122293536Y-98621849D01*
X122324253Y-98685857D01*
X122325900Y-98706160D01*
X122325900Y-100937840D01*
X122305898Y-101005961D01*
X122293537Y-101022149D01*
X122233077Y-101089297D01*
X122229777Y-101095013D01*
X122229774Y-101095017D01*
X122145561Y-101240880D01*
X122142257Y-101246603D01*
X122140215Y-101252888D01*
X122091435Y-101403019D01*
X122086127Y-101419354D01*
X122085437Y-101425917D01*
X122085437Y-101425918D01*
X122069698Y-101575665D01*
X122067140Y-101600000D01*
X117722812Y-101600000D01*
X117757573Y-101565239D01*
X117811090Y-101533462D01*
X117864029Y-101517881D01*
X118043460Y-101424077D01*
X118043462Y-101424077D01*
X118043645Y-101423981D01*
X118043663Y-101424016D01*
X118109441Y-101404111D01*
X118170409Y-101419271D01*
X118342565Y-101512356D01*
X118410741Y-101533460D01*
X118530293Y-101570468D01*
X118530296Y-101570469D01*
X118536180Y-101572290D01*
X118542305Y-101572934D01*
X118542306Y-101572934D01*
X118731622Y-101592832D01*
X118731623Y-101592832D01*
X118737750Y-101593476D01*
X118826180Y-101585428D01*
X118933457Y-101575665D01*
X118933460Y-101575664D01*
X118939596Y-101575106D01*
X118945502Y-101573368D01*
X118945506Y-101573367D01*
X119128120Y-101519620D01*
X119128119Y-101519620D01*
X119134029Y-101517881D01*
X119139486Y-101515028D01*
X119139489Y-101515027D01*
X119279707Y-101441723D01*
X119313645Y-101423981D01*
X119339717Y-101403019D01*
X119454635Y-101310622D01*
X119471601Y-101296981D01*
X119601881Y-101141719D01*
X119604845Y-101136327D01*
X119604848Y-101136323D01*
X119696556Y-100969506D01*
X119699523Y-100964109D01*
X119758773Y-100777327D01*
X119758944Y-100776789D01*
X119760807Y-100770916D01*
X119762401Y-100756713D01*
X119769810Y-100690652D01*
X119778500Y-100613183D01*
X119778500Y-100053996D01*
X119763723Y-99903287D01*
X119705142Y-99709258D01*
X119609990Y-99530302D01*
X119592307Y-99508620D01*
X119525256Y-99426409D01*
X119481890Y-99373237D01*
X119444066Y-99341946D01*
X119330472Y-99247973D01*
X119330469Y-99247971D01*
X119325722Y-99244044D01*
X119147435Y-99147644D01*
X119027407Y-99110489D01*
X118959707Y-99089532D01*
X118959704Y-99089531D01*
X118953820Y-99087710D01*
X118947695Y-99087066D01*
X118947694Y-99087066D01*
X118758378Y-99067168D01*
X118758377Y-99067168D01*
X118752250Y-99066524D01*
X118673709Y-99073672D01*
X118556543Y-99084335D01*
X118556540Y-99084336D01*
X118550404Y-99084894D01*
X118544498Y-99086632D01*
X118544494Y-99086633D01*
X118408442Y-99126676D01*
X118355971Y-99142119D01*
X118350514Y-99144972D01*
X118350511Y-99144973D01*
X118329294Y-99156065D01*
X118176540Y-99235923D01*
X118176538Y-99235923D01*
X118176355Y-99236019D01*
X118176337Y-99235984D01*
X118110559Y-99255889D01*
X118049591Y-99240729D01*
X117877435Y-99147644D01*
X117757407Y-99110489D01*
X117689707Y-99089532D01*
X117689704Y-99089531D01*
X117683820Y-99087710D01*
X117677695Y-99087066D01*
X117677694Y-99087066D01*
X117488378Y-99067168D01*
X117488377Y-99067168D01*
X117482250Y-99066524D01*
X117403709Y-99073672D01*
X117286543Y-99084335D01*
X117286540Y-99084336D01*
X117280404Y-99084894D01*
X117274498Y-99086632D01*
X117274494Y-99086633D01*
X117193440Y-99110489D01*
X117085971Y-99142119D01*
X117085771Y-99141441D01*
X117019727Y-99147956D01*
X116982677Y-99134680D01*
X116968063Y-99126679D01*
X116847606Y-99081522D01*
X116832351Y-99077895D01*
X116781486Y-99072369D01*
X116774672Y-99072000D01*
X116477115Y-99072000D01*
X116461876Y-99076475D01*
X116460671Y-99077865D01*
X116459000Y-99085548D01*
X116459000Y-99883758D01*
X116458215Y-99897803D01*
X116441500Y-100046817D01*
X116441500Y-100458000D01*
X116421498Y-100526121D01*
X116367842Y-100572614D01*
X116315500Y-100584000D01*
X115190116Y-100584000D01*
X115174877Y-100588475D01*
X115173672Y-100589865D01*
X115172001Y-100597548D01*
X115172001Y-101124669D01*
X115172371Y-101131490D01*
X115177895Y-101182352D01*
X115181521Y-101197604D01*
X115226676Y-101318054D01*
X115235214Y-101333649D01*
X115311715Y-101435724D01*
X115324276Y-101448285D01*
X115426351Y-101524786D01*
X115441946Y-101533324D01*
X115562394Y-101578478D01*
X115577649Y-101582105D01*
X115628514Y-101587631D01*
X115635328Y-101588000D01*
X115704998Y-101588000D01*
X115773119Y-101608002D01*
X115819612Y-101661658D01*
X115829716Y-101731932D01*
X115800222Y-101796512D01*
X115794093Y-101803095D01*
X114104193Y-103492995D01*
X114041881Y-103527021D01*
X114015098Y-103529900D01*
X111158242Y-103529900D01*
X111090121Y-103509898D01*
X111075064Y-103498401D01*
X111071381Y-103494311D01*
X111058079Y-103484646D01*
X110929772Y-103391426D01*
X110929771Y-103391425D01*
X110924430Y-103387545D01*
X110918402Y-103384861D01*
X110918400Y-103384860D01*
X110764524Y-103316350D01*
X110764523Y-103316350D01*
X110758493Y-103313665D01*
X110650135Y-103290633D01*
X110587278Y-103277272D01*
X110587274Y-103277272D01*
X110580821Y-103275900D01*
X110399179Y-103275900D01*
X110392726Y-103277272D01*
X110392722Y-103277272D01*
X110329865Y-103290633D01*
X110221507Y-103313665D01*
X110215477Y-103316350D01*
X110215476Y-103316350D01*
X110061600Y-103384860D01*
X110061598Y-103384861D01*
X110055570Y-103387545D01*
X110050229Y-103391425D01*
X110050228Y-103391426D01*
X109921922Y-103484646D01*
X109908619Y-103494311D01*
X109904198Y-103499221D01*
X109904197Y-103499222D01*
X109791818Y-103624032D01*
X109787077Y-103629297D01*
X109730212Y-103727790D01*
X109701696Y-103777183D01*
X109696257Y-103786603D01*
X109694215Y-103792888D01*
X109658795Y-103901901D01*
X109640127Y-103959354D01*
X109639437Y-103965917D01*
X109639437Y-103965918D01*
X109625094Y-104102384D01*
X109621140Y-104140000D01*
X102108500Y-104140000D01*
X102108500Y-99971004D01*
X105646500Y-99971004D01*
X105661277Y-100121713D01*
X105719858Y-100315742D01*
X105815010Y-100494698D01*
X105818904Y-100499472D01*
X105818905Y-100499474D01*
X105840638Y-100526121D01*
X105943110Y-100651763D01*
X105947857Y-100655690D01*
X105947859Y-100655692D01*
X106094528Y-100777027D01*
X106094531Y-100777029D01*
X106099278Y-100780956D01*
X106277565Y-100877356D01*
X106374373Y-100907323D01*
X106465293Y-100935468D01*
X106465296Y-100935469D01*
X106471180Y-100937290D01*
X106477305Y-100937934D01*
X106477306Y-100937934D01*
X106666622Y-100957832D01*
X106666623Y-100957832D01*
X106672750Y-100958476D01*
X106782090Y-100948525D01*
X106868457Y-100940665D01*
X106868460Y-100940664D01*
X106874596Y-100940106D01*
X106880502Y-100938368D01*
X106880506Y-100938367D01*
X107040288Y-100891340D01*
X107069029Y-100882881D01*
X107074486Y-100880028D01*
X107074489Y-100880027D01*
X107226182Y-100800724D01*
X107248460Y-100789077D01*
X107248462Y-100789077D01*
X107248645Y-100788981D01*
X107248663Y-100789016D01*
X107314441Y-100769111D01*
X107375409Y-100784271D01*
X107547565Y-100877356D01*
X107644373Y-100907323D01*
X107735293Y-100935468D01*
X107735296Y-100935469D01*
X107741180Y-100937290D01*
X107747305Y-100937934D01*
X107747306Y-100937934D01*
X107936622Y-100957832D01*
X107936623Y-100957832D01*
X107942750Y-100958476D01*
X108052090Y-100948525D01*
X108138457Y-100940665D01*
X108138460Y-100940664D01*
X108144596Y-100940106D01*
X108150502Y-100938368D01*
X108150506Y-100938367D01*
X108286558Y-100898324D01*
X108339029Y-100882881D01*
X108339229Y-100883559D01*
X108405273Y-100877044D01*
X108442323Y-100890320D01*
X108456937Y-100898321D01*
X108577394Y-100943478D01*
X108592649Y-100947105D01*
X108643514Y-100952631D01*
X108650328Y-100953000D01*
X108947885Y-100953000D01*
X108963124Y-100948525D01*
X108964329Y-100947135D01*
X108966000Y-100939452D01*
X108966000Y-100934884D01*
X109474000Y-100934884D01*
X109478475Y-100950123D01*
X109479865Y-100951328D01*
X109487548Y-100952999D01*
X109789669Y-100952999D01*
X109796490Y-100952629D01*
X109847352Y-100947105D01*
X109862604Y-100943479D01*
X109983054Y-100898324D01*
X109998649Y-100889786D01*
X110100724Y-100813285D01*
X110113285Y-100800724D01*
X110189786Y-100698649D01*
X110198324Y-100683054D01*
X110243478Y-100562606D01*
X110247105Y-100547351D01*
X110252631Y-100496486D01*
X110253000Y-100489672D01*
X110253000Y-100057885D01*
X115172000Y-100057885D01*
X115176475Y-100073124D01*
X115177865Y-100074329D01*
X115185548Y-100076000D01*
X115932885Y-100076000D01*
X115948124Y-100071525D01*
X115949329Y-100070135D01*
X115951000Y-100062452D01*
X115951000Y-99090116D01*
X115946525Y-99074877D01*
X115945135Y-99073672D01*
X115937452Y-99072001D01*
X115635331Y-99072001D01*
X115628510Y-99072371D01*
X115577648Y-99077895D01*
X115562396Y-99081521D01*
X115441946Y-99126676D01*
X115426351Y-99135214D01*
X115324276Y-99211715D01*
X115311715Y-99224276D01*
X115235214Y-99326351D01*
X115226676Y-99341946D01*
X115181522Y-99462394D01*
X115177895Y-99477649D01*
X115172369Y-99528514D01*
X115172000Y-99535328D01*
X115172000Y-100057885D01*
X110253000Y-100057885D01*
X110253000Y-99967115D01*
X110248525Y-99951876D01*
X110247135Y-99950671D01*
X110239452Y-99949000D01*
X109492115Y-99949000D01*
X109476876Y-99953475D01*
X109475671Y-99954865D01*
X109474000Y-99962548D01*
X109474000Y-100934884D01*
X108966000Y-100934884D01*
X108966000Y-100141242D01*
X108966785Y-100127197D01*
X108971674Y-100083611D01*
X108983500Y-99978183D01*
X108983500Y-99567000D01*
X109003502Y-99498879D01*
X109057158Y-99452386D01*
X109109500Y-99441000D01*
X110234884Y-99441000D01*
X110250123Y-99436525D01*
X110251328Y-99435135D01*
X110252999Y-99427452D01*
X110252999Y-98900331D01*
X110252629Y-98893510D01*
X110247105Y-98842648D01*
X110243479Y-98827396D01*
X110198324Y-98706946D01*
X110189786Y-98691351D01*
X110113285Y-98589276D01*
X110100724Y-98576715D01*
X109998649Y-98500214D01*
X109983054Y-98491676D01*
X109862606Y-98446522D01*
X109847351Y-98442895D01*
X109793089Y-98437000D01*
X109793260Y-98435424D01*
X109732236Y-98413867D01*
X109688705Y-98357782D01*
X109682406Y-98287065D01*
X109716880Y-98222603D01*
X110204448Y-97735036D01*
X111400928Y-96538556D01*
X111463240Y-96504530D01*
X111534056Y-96509595D01*
X111583658Y-96543339D01*
X111686619Y-96657689D01*
X111691961Y-96661570D01*
X111691963Y-96661572D01*
X111745744Y-96700646D01*
X111833570Y-96764455D01*
X111839598Y-96767139D01*
X111839600Y-96767140D01*
X111993476Y-96835650D01*
X111999507Y-96838335D01*
X112088343Y-96857218D01*
X112170722Y-96874728D01*
X112170726Y-96874728D01*
X112177179Y-96876100D01*
X112217098Y-96876100D01*
X112285219Y-96896102D01*
X112306194Y-96913005D01*
X112621120Y-97227932D01*
X112926084Y-97532896D01*
X112933190Y-97540706D01*
X112937174Y-97546983D01*
X112942952Y-97552409D01*
X112984931Y-97591830D01*
X112987773Y-97594585D01*
X113006735Y-97613547D01*
X113009867Y-97615976D01*
X113010494Y-97616529D01*
X113018667Y-97623510D01*
X113049542Y-97652504D01*
X113056489Y-97656323D01*
X113056490Y-97656324D01*
X113066324Y-97661731D01*
X113082843Y-97672582D01*
X113097966Y-97684312D01*
X113105238Y-97687459D01*
X113136840Y-97701135D01*
X113147500Y-97706357D01*
X113177678Y-97722948D01*
X113177681Y-97722949D01*
X113184622Y-97726765D01*
X113192295Y-97728735D01*
X113192300Y-97728737D01*
X113203157Y-97731524D01*
X113221865Y-97737929D01*
X113239435Y-97745532D01*
X113281278Y-97752159D01*
X113292897Y-97754565D01*
X113333926Y-97765100D01*
X113353064Y-97765100D01*
X113372774Y-97766651D01*
X113391684Y-97769646D01*
X113433860Y-97765659D01*
X113445719Y-97765100D01*
X118297348Y-97765100D01*
X118307900Y-97765598D01*
X118315154Y-97767219D01*
X118380621Y-97765162D01*
X118384578Y-97765100D01*
X118411409Y-97765100D01*
X118415336Y-97764604D01*
X118416242Y-97764547D01*
X118426886Y-97763708D01*
X118469225Y-97762378D01*
X118487612Y-97757036D01*
X118506969Y-97753028D01*
X118518091Y-97751623D01*
X118518092Y-97751623D01*
X118525958Y-97750629D01*
X118538832Y-97745532D01*
X118565344Y-97735036D01*
X118576571Y-97731192D01*
X118609635Y-97721585D01*
X118609637Y-97721584D01*
X118617251Y-97719372D01*
X118633731Y-97709626D01*
X118651471Y-97700935D01*
X118669280Y-97693884D01*
X118703558Y-97668980D01*
X118713478Y-97662464D01*
X118743105Y-97644943D01*
X118743108Y-97644941D01*
X118749932Y-97640905D01*
X118763459Y-97627378D01*
X118778493Y-97614537D01*
X118787573Y-97607940D01*
X118787574Y-97607939D01*
X118793988Y-97603279D01*
X118821000Y-97570627D01*
X118828989Y-97561848D01*
X120517405Y-95873433D01*
X120579717Y-95839407D01*
X120650533Y-95844472D01*
X120707368Y-95887019D01*
X120732179Y-95953539D01*
X120732500Y-95962528D01*
X120732500Y-95977134D01*
X120739255Y-96039316D01*
X120790385Y-96175705D01*
X120877739Y-96292261D01*
X120994295Y-96379615D01*
X121130684Y-96430745D01*
X121192866Y-96437500D01*
X122139134Y-96437500D01*
X122201316Y-96430745D01*
X122337705Y-96379615D01*
X122454261Y-96292261D01*
X122541615Y-96175705D01*
X122541795Y-96175840D01*
X122588299Y-96129443D01*
X122648557Y-96114100D01*
X124409098Y-96114100D01*
X124477219Y-96134102D01*
X124498194Y-96151005D01*
X125082880Y-96735692D01*
X125116905Y-96798004D01*
X125119093Y-96811610D01*
X125134127Y-96954646D01*
X125136167Y-96960924D01*
X125136167Y-96960925D01*
X125157002Y-97025049D01*
X125190257Y-97127397D01*
X125193560Y-97133119D01*
X125193561Y-97133120D01*
X125203366Y-97150102D01*
X125281077Y-97284703D01*
X125285495Y-97289610D01*
X125285496Y-97289611D01*
X125312161Y-97319225D01*
X125402619Y-97419689D01*
X125407961Y-97423570D01*
X125407963Y-97423572D01*
X125531842Y-97513575D01*
X125549570Y-97526455D01*
X125555598Y-97529139D01*
X125555600Y-97529140D01*
X125709476Y-97597650D01*
X125715507Y-97600335D01*
X125804343Y-97619217D01*
X125886722Y-97636728D01*
X125886726Y-97636728D01*
X125893179Y-97638100D01*
X125984500Y-97638100D01*
X126052621Y-97658102D01*
X126099114Y-97711758D01*
X126110500Y-97764100D01*
X126110500Y-98345075D01*
X126108949Y-98364785D01*
X126106826Y-98378190D01*
X126107171Y-98384778D01*
X126107171Y-98384782D01*
X126110327Y-98444999D01*
X126110500Y-98451593D01*
X126110500Y-98471620D01*
X126110844Y-98474891D01*
X126110844Y-98474895D01*
X126112593Y-98491539D01*
X126113110Y-98498113D01*
X126116265Y-98558316D01*
X126116611Y-98564915D01*
X126118320Y-98571292D01*
X126118320Y-98571293D01*
X126120124Y-98578023D01*
X126123728Y-98597470D01*
X126125145Y-98610956D01*
X126139183Y-98654161D01*
X126145818Y-98674582D01*
X126147691Y-98680906D01*
X126165006Y-98745524D01*
X126171167Y-98757616D01*
X126178730Y-98775875D01*
X126182925Y-98788785D01*
X126190779Y-98802388D01*
X126216376Y-98846724D01*
X126219523Y-98852520D01*
X126249893Y-98912125D01*
X126254050Y-98917258D01*
X126258432Y-98922670D01*
X126269625Y-98938955D01*
X126273116Y-98945002D01*
X126273119Y-98945005D01*
X126276415Y-98950715D01*
X126280827Y-98955615D01*
X126280830Y-98955619D01*
X126296824Y-98973381D01*
X126311168Y-98989311D01*
X126321175Y-99000425D01*
X126325463Y-99005446D01*
X126338063Y-99021006D01*
X126352210Y-99035153D01*
X126356751Y-99039937D01*
X126390929Y-99077895D01*
X126401530Y-99089669D01*
X126412518Y-99097652D01*
X126427546Y-99110489D01*
X130518595Y-103201538D01*
X130552621Y-103263850D01*
X130555500Y-103290633D01*
X130555500Y-113140554D01*
X130539915Y-113201255D01*
X130506179Y-113262621D01*
X130504318Y-113268488D01*
X130504317Y-113268490D01*
X130491209Y-113309812D01*
X130445902Y-113452635D01*
X130423682Y-113650739D01*
X130440362Y-113849386D01*
X130459175Y-113914992D01*
X130492448Y-114031027D01*
X130495310Y-114041009D01*
X130542309Y-114132460D01*
X130556870Y-114160792D01*
X130586430Y-114218311D01*
X130710253Y-114374537D01*
X130862063Y-114503737D01*
X130867441Y-114506743D01*
X130867443Y-114506744D01*
X130975972Y-114567398D01*
X131036076Y-114600989D01*
X131041935Y-114602893D01*
X131041938Y-114602894D01*
X131076553Y-114614141D01*
X131225665Y-114662591D01*
X131231775Y-114663320D01*
X131231777Y-114663320D01*
X131299314Y-114671373D01*
X131423609Y-114686194D01*
X131429744Y-114685722D01*
X131429746Y-114685722D01*
X131616226Y-114671373D01*
X131616231Y-114671372D01*
X131622367Y-114670900D01*
X131628297Y-114669244D01*
X131628299Y-114669244D01*
X131781727Y-114626406D01*
X131814370Y-114617292D01*
X131820608Y-114614141D01*
X131986802Y-114530191D01*
X131986804Y-114530190D01*
X131992303Y-114527412D01*
X132149390Y-114404682D01*
X132158425Y-114394215D01*
X132275618Y-114258446D01*
X132275619Y-114258444D01*
X132279647Y-114253778D01*
X132378112Y-114080448D01*
X132378882Y-114078134D01*
X151971500Y-114078134D01*
X151978255Y-114140316D01*
X152029385Y-114276705D01*
X152116739Y-114393261D01*
X152233295Y-114480615D01*
X152369684Y-114531745D01*
X152431866Y-114538500D01*
X154528134Y-114538500D01*
X154590316Y-114531745D01*
X154726705Y-114480615D01*
X154843261Y-114393261D01*
X154930615Y-114276705D01*
X154981745Y-114140316D01*
X154988500Y-114078134D01*
X155971500Y-114078134D01*
X155978255Y-114140316D01*
X156029385Y-114276705D01*
X156116739Y-114393261D01*
X156233295Y-114480615D01*
X156369684Y-114531745D01*
X156431866Y-114538500D01*
X158528134Y-114538500D01*
X158590316Y-114531745D01*
X158726705Y-114480615D01*
X158843261Y-114393261D01*
X158930615Y-114276705D01*
X158981745Y-114140316D01*
X158988500Y-114078134D01*
X158988500Y-112962700D01*
X164866140Y-112962700D01*
X164885127Y-113143346D01*
X164887167Y-113149624D01*
X164887167Y-113149625D01*
X164903650Y-113200354D01*
X164941257Y-113316097D01*
X165032077Y-113473403D01*
X165036495Y-113478310D01*
X165036496Y-113478311D01*
X165122444Y-113573766D01*
X165153619Y-113608389D01*
X165158961Y-113612270D01*
X165158963Y-113612272D01*
X165270792Y-113693520D01*
X165300570Y-113715155D01*
X165306598Y-113717839D01*
X165306600Y-113717840D01*
X165459477Y-113785905D01*
X165466507Y-113789035D01*
X165555016Y-113807848D01*
X165637722Y-113825428D01*
X165637726Y-113825428D01*
X165644179Y-113826800D01*
X165684098Y-113826800D01*
X165752219Y-113846802D01*
X165773193Y-113863705D01*
X165855258Y-113945770D01*
X165862370Y-113953585D01*
X165866354Y-113959863D01*
X165872132Y-113965289D01*
X165914111Y-114004710D01*
X165916953Y-114007465D01*
X165935915Y-114026427D01*
X165939042Y-114028853D01*
X165939683Y-114029418D01*
X165947841Y-114036386D01*
X165978722Y-114065384D01*
X165995499Y-114074608D01*
X166012012Y-114085455D01*
X166020878Y-114092332D01*
X166020883Y-114092335D01*
X166027146Y-114097193D01*
X166066027Y-114114018D01*
X166076675Y-114119234D01*
X166113802Y-114139645D01*
X166132341Y-114144405D01*
X166151039Y-114150806D01*
X166168615Y-114158412D01*
X166210458Y-114165039D01*
X166222077Y-114167445D01*
X166263106Y-114177980D01*
X166282244Y-114177980D01*
X166301954Y-114179531D01*
X166320864Y-114182526D01*
X166363040Y-114178539D01*
X166374899Y-114177980D01*
X168253412Y-114177980D01*
X168321533Y-114197982D01*
X168336590Y-114209479D01*
X168340273Y-114213569D01*
X168345615Y-114217450D01*
X168345617Y-114217452D01*
X168427172Y-114276705D01*
X168487224Y-114320335D01*
X168493252Y-114323019D01*
X168493254Y-114323020D01*
X168647130Y-114391530D01*
X168653161Y-114394215D01*
X168741997Y-114413097D01*
X168824376Y-114430608D01*
X168824380Y-114430608D01*
X168830833Y-114431980D01*
X169012475Y-114431980D01*
X169018928Y-114430608D01*
X169018932Y-114430608D01*
X169101311Y-114413097D01*
X169190147Y-114394215D01*
X169196178Y-114391530D01*
X169350054Y-114323020D01*
X169350056Y-114323019D01*
X169356084Y-114320335D01*
X169416136Y-114276705D01*
X169497691Y-114217452D01*
X169497693Y-114217450D01*
X169503035Y-114213569D01*
X169517070Y-114197982D01*
X169620158Y-114083491D01*
X169620159Y-114083490D01*
X169624577Y-114078583D01*
X169696272Y-113954403D01*
X169712093Y-113927000D01*
X169712094Y-113926999D01*
X169715397Y-113921277D01*
X169749971Y-113814870D01*
X169769487Y-113754805D01*
X169769487Y-113754804D01*
X169771527Y-113748526D01*
X169774557Y-113719703D01*
X169789824Y-113574445D01*
X169790514Y-113567880D01*
X169783824Y-113504233D01*
X169772217Y-113393798D01*
X169772217Y-113393797D01*
X169771527Y-113387234D01*
X169715397Y-113214483D01*
X169624577Y-113057177D01*
X169539510Y-112962700D01*
X169507457Y-112927102D01*
X169507456Y-112927101D01*
X169503035Y-112922191D01*
X169450638Y-112884122D01*
X169361426Y-112819306D01*
X169361425Y-112819305D01*
X169356084Y-112815425D01*
X169350056Y-112812741D01*
X169350054Y-112812740D01*
X169196178Y-112744230D01*
X169196177Y-112744230D01*
X169190147Y-112741545D01*
X169101311Y-112722663D01*
X169018932Y-112705152D01*
X169018928Y-112705152D01*
X169012475Y-112703780D01*
X168830833Y-112703780D01*
X168824380Y-112705152D01*
X168824376Y-112705152D01*
X168741997Y-112722662D01*
X168653161Y-112741545D01*
X168647131Y-112744230D01*
X168647130Y-112744230D01*
X168493254Y-112812740D01*
X168493252Y-112812741D01*
X168487224Y-112815425D01*
X168481883Y-112819305D01*
X168481882Y-112819306D01*
X168392671Y-112884122D01*
X168340273Y-112922191D01*
X168337099Y-112925716D01*
X168273714Y-112956134D01*
X168253412Y-112957780D01*
X166716794Y-112957780D01*
X166648673Y-112937778D01*
X166602180Y-112884122D01*
X166591484Y-112844951D01*
X166585563Y-112788618D01*
X166585563Y-112788617D01*
X166584873Y-112782054D01*
X166581972Y-112773124D01*
X166530785Y-112615588D01*
X166528743Y-112609303D01*
X166437923Y-112451997D01*
X166316381Y-112317011D01*
X166169430Y-112210245D01*
X166163402Y-112207561D01*
X166163400Y-112207560D01*
X166009524Y-112139050D01*
X166009523Y-112139050D01*
X166003493Y-112136365D01*
X165914657Y-112117483D01*
X165832278Y-112099972D01*
X165832274Y-112099972D01*
X165825821Y-112098600D01*
X165644179Y-112098600D01*
X165637726Y-112099972D01*
X165637722Y-112099972D01*
X165555343Y-112117483D01*
X165466507Y-112136365D01*
X165460477Y-112139050D01*
X165460476Y-112139050D01*
X165306600Y-112207560D01*
X165306598Y-112207561D01*
X165300570Y-112210245D01*
X165153619Y-112317011D01*
X165032077Y-112451997D01*
X164941257Y-112609303D01*
X164939215Y-112615588D01*
X164888029Y-112773124D01*
X164885127Y-112782054D01*
X164884437Y-112788617D01*
X164884437Y-112788618D01*
X164868403Y-112941174D01*
X164866140Y-112962700D01*
X158988500Y-112962700D01*
X158988500Y-111981866D01*
X158981745Y-111919684D01*
X158930615Y-111783295D01*
X158843261Y-111666739D01*
X158726705Y-111579385D01*
X158590316Y-111528255D01*
X158528134Y-111521500D01*
X156431866Y-111521500D01*
X156369684Y-111528255D01*
X156233295Y-111579385D01*
X156116739Y-111666739D01*
X156029385Y-111783295D01*
X155978255Y-111919684D01*
X155971500Y-111981866D01*
X155971500Y-114078134D01*
X154988500Y-114078134D01*
X154988500Y-111981866D01*
X154981745Y-111919684D01*
X154930615Y-111783295D01*
X154843261Y-111666739D01*
X154726705Y-111579385D01*
X154590316Y-111528255D01*
X154528134Y-111521500D01*
X152431866Y-111521500D01*
X152369684Y-111528255D01*
X152233295Y-111579385D01*
X152116739Y-111666739D01*
X152029385Y-111783295D01*
X151978255Y-111919684D01*
X151971500Y-111981866D01*
X151971500Y-114078134D01*
X132378882Y-114078134D01*
X132441035Y-113891294D01*
X132451172Y-113811051D01*
X132465578Y-113697023D01*
X132465579Y-113697013D01*
X132466020Y-113693520D01*
X132466418Y-113665000D01*
X132446965Y-113466606D01*
X132445184Y-113460707D01*
X132445183Y-113460702D01*
X132391129Y-113281667D01*
X132389348Y-113275768D01*
X132349248Y-113200352D01*
X132334500Y-113141200D01*
X132334500Y-111471134D01*
X176866500Y-111471134D01*
X176873255Y-111533316D01*
X176924385Y-111669705D01*
X177011739Y-111786261D01*
X177128295Y-111873615D01*
X177264684Y-111924745D01*
X177326866Y-111931500D01*
X178273134Y-111931500D01*
X178335316Y-111924745D01*
X178471705Y-111873615D01*
X178588261Y-111786261D01*
X178675615Y-111669705D01*
X178726745Y-111533316D01*
X178733500Y-111471134D01*
X178733500Y-110524866D01*
X178726745Y-110462684D01*
X178675615Y-110326295D01*
X178588261Y-110209739D01*
X178471705Y-110122385D01*
X178335316Y-110071255D01*
X178273134Y-110064500D01*
X177326866Y-110064500D01*
X177264684Y-110071255D01*
X177128295Y-110122385D01*
X177011739Y-110209739D01*
X176924385Y-110326295D01*
X176873255Y-110462684D01*
X176866500Y-110524866D01*
X176866500Y-111471134D01*
X132334500Y-111471134D01*
X132334500Y-103901901D01*
X132354502Y-103833780D01*
X132408158Y-103787287D01*
X132478432Y-103777183D01*
X132543012Y-103806677D01*
X132549594Y-103812805D01*
X134808737Y-106071949D01*
X137064680Y-108327892D01*
X137071790Y-108335705D01*
X137075774Y-108341983D01*
X137081553Y-108347409D01*
X137081553Y-108347410D01*
X137123531Y-108386830D01*
X137126373Y-108389585D01*
X137145335Y-108408547D01*
X137148467Y-108410976D01*
X137149094Y-108411529D01*
X137157267Y-108418510D01*
X137188142Y-108447504D01*
X137195089Y-108451323D01*
X137195090Y-108451324D01*
X137204924Y-108456731D01*
X137221443Y-108467582D01*
X137236566Y-108479312D01*
X137243838Y-108482459D01*
X137275440Y-108496135D01*
X137286100Y-108501357D01*
X137316278Y-108517948D01*
X137316281Y-108517949D01*
X137323222Y-108521765D01*
X137330895Y-108523735D01*
X137330900Y-108523737D01*
X137341757Y-108526524D01*
X137360465Y-108532929D01*
X137378035Y-108540532D01*
X137419878Y-108547159D01*
X137431497Y-108549565D01*
X137472526Y-108560100D01*
X137491664Y-108560100D01*
X137511374Y-108561651D01*
X137530284Y-108564646D01*
X137572460Y-108560659D01*
X137584319Y-108560100D01*
X169435878Y-108560100D01*
X169446430Y-108560598D01*
X169453684Y-108562219D01*
X169519151Y-108560162D01*
X169523108Y-108560100D01*
X169549939Y-108560100D01*
X169553866Y-108559604D01*
X169554772Y-108559547D01*
X169565416Y-108558708D01*
X169607755Y-108557378D01*
X169626142Y-108552036D01*
X169645499Y-108548028D01*
X169656621Y-108546623D01*
X169656622Y-108546623D01*
X169664488Y-108545629D01*
X169677362Y-108540532D01*
X169703874Y-108530036D01*
X169715101Y-108526192D01*
X169748165Y-108516585D01*
X169748167Y-108516584D01*
X169755781Y-108514372D01*
X169772261Y-108504626D01*
X169790001Y-108495935D01*
X169807810Y-108488884D01*
X169842088Y-108463980D01*
X169852008Y-108457464D01*
X169881635Y-108439943D01*
X169881638Y-108439941D01*
X169888462Y-108435905D01*
X169901989Y-108422378D01*
X169917023Y-108409537D01*
X169926103Y-108402940D01*
X169926104Y-108402939D01*
X169932518Y-108398279D01*
X169959530Y-108365627D01*
X169967519Y-108356848D01*
X171140591Y-107183777D01*
X171148406Y-107176665D01*
X171154684Y-107172681D01*
X171199531Y-107124924D01*
X171202286Y-107122082D01*
X171221248Y-107103120D01*
X171223677Y-107099988D01*
X171224230Y-107099361D01*
X171231211Y-107091188D01*
X171254778Y-107066092D01*
X171260205Y-107060313D01*
X171267839Y-107046428D01*
X171269432Y-107043531D01*
X171280283Y-107027012D01*
X171287157Y-107018150D01*
X171287158Y-107018148D01*
X171292013Y-107011889D01*
X171308836Y-106973015D01*
X171314058Y-106962355D01*
X171330649Y-106932177D01*
X171330650Y-106932174D01*
X171334466Y-106925233D01*
X171336436Y-106917560D01*
X171336438Y-106917555D01*
X171339225Y-106906698D01*
X171345631Y-106887986D01*
X171350084Y-106877696D01*
X171353233Y-106870420D01*
X171359860Y-106828577D01*
X171362267Y-106816953D01*
X171370830Y-106783605D01*
X171372801Y-106775929D01*
X171372801Y-106756791D01*
X171374352Y-106737080D01*
X171376107Y-106725999D01*
X171377347Y-106718171D01*
X171373360Y-106675994D01*
X171372801Y-106664136D01*
X171372801Y-106617660D01*
X171392803Y-106549539D01*
X171405165Y-106533349D01*
X171461205Y-106471111D01*
X171461206Y-106471110D01*
X171465624Y-106466203D01*
X171468924Y-106460487D01*
X171468927Y-106460483D01*
X171470283Y-106458134D01*
X178736500Y-106458134D01*
X178743255Y-106520316D01*
X178794385Y-106656705D01*
X178881739Y-106773261D01*
X178998295Y-106860615D01*
X179134684Y-106911745D01*
X179196866Y-106918500D01*
X181293134Y-106918500D01*
X181355316Y-106911745D01*
X181491705Y-106860615D01*
X181608261Y-106773261D01*
X181695615Y-106656705D01*
X181746745Y-106520316D01*
X181753500Y-106458134D01*
X182736500Y-106458134D01*
X182743255Y-106520316D01*
X182794385Y-106656705D01*
X182881739Y-106773261D01*
X182998295Y-106860615D01*
X183134684Y-106911745D01*
X183196866Y-106918500D01*
X185293134Y-106918500D01*
X185355316Y-106911745D01*
X185491705Y-106860615D01*
X185608261Y-106773261D01*
X185695615Y-106656705D01*
X185746745Y-106520316D01*
X185753500Y-106458134D01*
X185753500Y-104361866D01*
X185746745Y-104299684D01*
X185695615Y-104163295D01*
X185608261Y-104046739D01*
X185491705Y-103959385D01*
X185355316Y-103908255D01*
X185299440Y-103902185D01*
X185296531Y-103901869D01*
X185293134Y-103901500D01*
X183196866Y-103901500D01*
X183193469Y-103901869D01*
X183190560Y-103902185D01*
X183134684Y-103908255D01*
X182998295Y-103959385D01*
X182881739Y-104046739D01*
X182794385Y-104163295D01*
X182743255Y-104299684D01*
X182736500Y-104361866D01*
X182736500Y-106458134D01*
X181753500Y-106458134D01*
X181753500Y-104361866D01*
X181746745Y-104299684D01*
X181695615Y-104163295D01*
X181608261Y-104046739D01*
X181491705Y-103959385D01*
X181355316Y-103908255D01*
X181299440Y-103902185D01*
X181296531Y-103901869D01*
X181293134Y-103901500D01*
X179196866Y-103901500D01*
X179193469Y-103901869D01*
X179190560Y-103902185D01*
X179134684Y-103908255D01*
X178998295Y-103959385D01*
X178881739Y-104046739D01*
X178794385Y-104163295D01*
X178743255Y-104299684D01*
X178736500Y-104361866D01*
X178736500Y-106458134D01*
X171470283Y-106458134D01*
X171553140Y-106314620D01*
X171553141Y-106314619D01*
X171556444Y-106308897D01*
X171612574Y-106136146D01*
X171619322Y-106071949D01*
X171630871Y-105962065D01*
X171631561Y-105955500D01*
X171628623Y-105927545D01*
X171613264Y-105781418D01*
X171613264Y-105781417D01*
X171612574Y-105774854D01*
X171608852Y-105763397D01*
X171558486Y-105608388D01*
X171556444Y-105602103D01*
X171465624Y-105444797D01*
X171457005Y-105435224D01*
X171348504Y-105314722D01*
X171348503Y-105314721D01*
X171344082Y-105309811D01*
X171197131Y-105203045D01*
X171191103Y-105200361D01*
X171191101Y-105200360D01*
X171037225Y-105131850D01*
X171037224Y-105131850D01*
X171031194Y-105129165D01*
X170942358Y-105110283D01*
X170859979Y-105092772D01*
X170859975Y-105092772D01*
X170853522Y-105091400D01*
X170671880Y-105091400D01*
X170665427Y-105092772D01*
X170665423Y-105092772D01*
X170583044Y-105110283D01*
X170494208Y-105129165D01*
X170488178Y-105131850D01*
X170488177Y-105131850D01*
X170334301Y-105200360D01*
X170334299Y-105200361D01*
X170328271Y-105203045D01*
X170181320Y-105309811D01*
X170176899Y-105314721D01*
X170176898Y-105314722D01*
X170068398Y-105435224D01*
X170059778Y-105444797D01*
X169968958Y-105602103D01*
X169966916Y-105608388D01*
X169927780Y-105728836D01*
X169887707Y-105787442D01*
X169822310Y-105815079D01*
X169807947Y-105815900D01*
X169665430Y-105815900D01*
X169658970Y-105817273D01*
X169658971Y-105817273D01*
X169631964Y-105823013D01*
X169561173Y-105817610D01*
X169516673Y-105788861D01*
X167906121Y-104178309D01*
X167872095Y-104115997D01*
X167869906Y-104102384D01*
X167865707Y-104062427D01*
X167854873Y-103959354D01*
X167836206Y-103901901D01*
X167800785Y-103792888D01*
X167798743Y-103786603D01*
X167793305Y-103777183D01*
X167764788Y-103727790D01*
X167707923Y-103629297D01*
X167703183Y-103624032D01*
X167590803Y-103499222D01*
X167590802Y-103499221D01*
X167586381Y-103494311D01*
X167573079Y-103484646D01*
X167444772Y-103391426D01*
X167444771Y-103391425D01*
X167439430Y-103387545D01*
X167433402Y-103384861D01*
X167433400Y-103384860D01*
X167279524Y-103316350D01*
X167279523Y-103316350D01*
X167273493Y-103313665D01*
X167165135Y-103290633D01*
X167102278Y-103277272D01*
X167102274Y-103277272D01*
X167095821Y-103275900D01*
X167055902Y-103275900D01*
X166987781Y-103255898D01*
X166966807Y-103238995D01*
X162877312Y-99149500D01*
X165501140Y-99149500D01*
X165501830Y-99156065D01*
X165513539Y-99267462D01*
X165520127Y-99330146D01*
X165522167Y-99336424D01*
X165522167Y-99336425D01*
X165545135Y-99407112D01*
X165576257Y-99502897D01*
X165579560Y-99508619D01*
X165579561Y-99508620D01*
X165595675Y-99536531D01*
X165667077Y-99660203D01*
X165671495Y-99665110D01*
X165671496Y-99665111D01*
X165731458Y-99731705D01*
X165788619Y-99795189D01*
X165793961Y-99799070D01*
X165793963Y-99799072D01*
X165918267Y-99889384D01*
X165935570Y-99901955D01*
X165941598Y-99904639D01*
X165941600Y-99904640D01*
X166090656Y-99971004D01*
X166101507Y-99975835D01*
X166182879Y-99993131D01*
X166272722Y-100012228D01*
X166272726Y-100012228D01*
X166279179Y-100013600D01*
X166460821Y-100013600D01*
X166467274Y-100012228D01*
X166467278Y-100012228D01*
X166557121Y-99993131D01*
X166638493Y-99975835D01*
X166649344Y-99971004D01*
X166798400Y-99904640D01*
X166798402Y-99904639D01*
X166804430Y-99901955D01*
X166821733Y-99889384D01*
X166946037Y-99799072D01*
X166946039Y-99799070D01*
X166951381Y-99795189D01*
X167008542Y-99731705D01*
X167068504Y-99665111D01*
X167068505Y-99665110D01*
X167072923Y-99660203D01*
X167144325Y-99536531D01*
X167160439Y-99508620D01*
X167160440Y-99508619D01*
X167163743Y-99502897D01*
X167194865Y-99407112D01*
X167217833Y-99336425D01*
X167217833Y-99336424D01*
X167219873Y-99330146D01*
X167226462Y-99267462D01*
X167238170Y-99156065D01*
X167238860Y-99149500D01*
X167232557Y-99089532D01*
X167220563Y-98975418D01*
X167220563Y-98975417D01*
X167219873Y-98968854D01*
X167163743Y-98796103D01*
X167141516Y-98757604D01*
X167076226Y-98644517D01*
X167076223Y-98644513D01*
X167072923Y-98638797D01*
X167012464Y-98571650D01*
X166981747Y-98507643D01*
X166980100Y-98487340D01*
X166980100Y-98362660D01*
X167000102Y-98294539D01*
X167012464Y-98278349D01*
X167068504Y-98216111D01*
X167068505Y-98216110D01*
X167072923Y-98211203D01*
X167076223Y-98205487D01*
X167076226Y-98205483D01*
X167160439Y-98059620D01*
X167160440Y-98059619D01*
X167163743Y-98053897D01*
X167190083Y-97972830D01*
X167217833Y-97887425D01*
X167217833Y-97887424D01*
X167219873Y-97881146D01*
X167237901Y-97709629D01*
X167238170Y-97707065D01*
X167238860Y-97700500D01*
X167230332Y-97619359D01*
X167220563Y-97526418D01*
X167220563Y-97526417D01*
X167219873Y-97519854D01*
X167212083Y-97495877D01*
X167169195Y-97363883D01*
X167163743Y-97347103D01*
X167157159Y-97335698D01*
X167094940Y-97227932D01*
X167072923Y-97189797D01*
X167061420Y-97177021D01*
X167003234Y-97112399D01*
X184724212Y-97112399D01*
X184745694Y-97201537D01*
X184749583Y-97212832D01*
X184832129Y-97394382D01*
X184838076Y-97404724D01*
X184953468Y-97567397D01*
X184961261Y-97576425D01*
X185105331Y-97714342D01*
X185114696Y-97721738D01*
X185282241Y-97829921D01*
X185292845Y-97835417D01*
X185477812Y-97909961D01*
X185489270Y-97913355D01*
X185686428Y-97951857D01*
X185695291Y-97952934D01*
X185698000Y-97953000D01*
X185877385Y-97953000D01*
X185892624Y-97948525D01*
X185893829Y-97947135D01*
X185895500Y-97939452D01*
X185895500Y-97934885D01*
X186403500Y-97934885D01*
X186407975Y-97950124D01*
X186409365Y-97951329D01*
X186417048Y-97953000D01*
X186549332Y-97953000D01*
X186555308Y-97952715D01*
X186703994Y-97938529D01*
X186715728Y-97936270D01*
X186907099Y-97880128D01*
X186918175Y-97875698D01*
X187095478Y-97784381D01*
X187105524Y-97777931D01*
X187262357Y-97654738D01*
X187271006Y-97646501D01*
X187401712Y-97495877D01*
X187408647Y-97486153D01*
X187508510Y-97313533D01*
X187513484Y-97302669D01*
X187578907Y-97114273D01*
X187579148Y-97113284D01*
X187577680Y-97102992D01*
X187564115Y-97099000D01*
X186421615Y-97099000D01*
X186406376Y-97103475D01*
X186405171Y-97104865D01*
X186403500Y-97112548D01*
X186403500Y-97934885D01*
X185895500Y-97934885D01*
X185895500Y-97117115D01*
X185891025Y-97101876D01*
X185889635Y-97100671D01*
X185881952Y-97099000D01*
X184739098Y-97099000D01*
X184725567Y-97102973D01*
X184724212Y-97112399D01*
X167003234Y-97112399D01*
X166955803Y-97059722D01*
X166955802Y-97059721D01*
X166951381Y-97054811D01*
X166932959Y-97041426D01*
X166809772Y-96951926D01*
X166809771Y-96951925D01*
X166804430Y-96948045D01*
X166798402Y-96945361D01*
X166798400Y-96945360D01*
X166645335Y-96877211D01*
X182781844Y-96877211D01*
X182791140Y-96889226D01*
X182826137Y-96913731D01*
X182835632Y-96919214D01*
X183021196Y-97005744D01*
X183031488Y-97009490D01*
X183229259Y-97062482D01*
X183240054Y-97064385D01*
X183444025Y-97082231D01*
X183454975Y-97082231D01*
X183658946Y-97064385D01*
X183669741Y-97062482D01*
X183867512Y-97009490D01*
X183877804Y-97005744D01*
X184063368Y-96919214D01*
X184072863Y-96913731D01*
X184108697Y-96888640D01*
X184117073Y-96878161D01*
X184110005Y-96864715D01*
X183462312Y-96217022D01*
X183448368Y-96209408D01*
X183446535Y-96209539D01*
X183439920Y-96213790D01*
X182788274Y-96865436D01*
X182781844Y-96877211D01*
X166645335Y-96877211D01*
X166644524Y-96876850D01*
X166644523Y-96876850D01*
X166638493Y-96874165D01*
X166549657Y-96855283D01*
X166467278Y-96837772D01*
X166467274Y-96837772D01*
X166460821Y-96836400D01*
X166279179Y-96836400D01*
X166272726Y-96837772D01*
X166272722Y-96837772D01*
X166190343Y-96855282D01*
X166101507Y-96874165D01*
X166095477Y-96876850D01*
X166095476Y-96876850D01*
X165941600Y-96945360D01*
X165941598Y-96945361D01*
X165935570Y-96948045D01*
X165930229Y-96951925D01*
X165930228Y-96951926D01*
X165807042Y-97041426D01*
X165788619Y-97054811D01*
X165784198Y-97059721D01*
X165784197Y-97059722D01*
X165678581Y-97177021D01*
X165667077Y-97189797D01*
X165645060Y-97227932D01*
X165582842Y-97335698D01*
X165576257Y-97347103D01*
X165570805Y-97363883D01*
X165527918Y-97495877D01*
X165520127Y-97519854D01*
X165519437Y-97526417D01*
X165519437Y-97526418D01*
X165509668Y-97619359D01*
X165501140Y-97700500D01*
X165501830Y-97707065D01*
X165502100Y-97709629D01*
X165520127Y-97881146D01*
X165522167Y-97887424D01*
X165522167Y-97887425D01*
X165549917Y-97972830D01*
X165576257Y-98053897D01*
X165579560Y-98059619D01*
X165579561Y-98059620D01*
X165663774Y-98205483D01*
X165663777Y-98205487D01*
X165667077Y-98211203D01*
X165671495Y-98216110D01*
X165671496Y-98216111D01*
X165727536Y-98278349D01*
X165758253Y-98342357D01*
X165759900Y-98362660D01*
X165759900Y-98487340D01*
X165739898Y-98555461D01*
X165727537Y-98571649D01*
X165667077Y-98638797D01*
X165663777Y-98644513D01*
X165663774Y-98644517D01*
X165598484Y-98757604D01*
X165576257Y-98796103D01*
X165520127Y-98968854D01*
X165519437Y-98975417D01*
X165519437Y-98975418D01*
X165507443Y-99089532D01*
X165501140Y-99149500D01*
X162877312Y-99149500D01*
X160587005Y-96859193D01*
X160552979Y-96796881D01*
X160550100Y-96770098D01*
X160550100Y-95850475D01*
X182212269Y-95850475D01*
X182230115Y-96054446D01*
X182232018Y-96065241D01*
X182285010Y-96263012D01*
X182288756Y-96273304D01*
X182375286Y-96458868D01*
X182380769Y-96468363D01*
X182405860Y-96504197D01*
X182416339Y-96512573D01*
X182429785Y-96505505D01*
X183077478Y-95857812D01*
X183083856Y-95846132D01*
X183813908Y-95846132D01*
X183814039Y-95847965D01*
X183818290Y-95854580D01*
X184469936Y-96506226D01*
X184481711Y-96512656D01*
X184508861Y-96491651D01*
X184509803Y-96492868D01*
X184545430Y-96464390D01*
X184616049Y-96457080D01*
X184679410Y-96489111D01*
X184715395Y-96550312D01*
X184717925Y-96563201D01*
X184721320Y-96587008D01*
X184734885Y-96591000D01*
X185877385Y-96591000D01*
X185892624Y-96586525D01*
X185893829Y-96585135D01*
X185895500Y-96577452D01*
X185895500Y-96572885D01*
X186403500Y-96572885D01*
X186407975Y-96588124D01*
X186409365Y-96589329D01*
X186417048Y-96591000D01*
X187559902Y-96591000D01*
X187573433Y-96587027D01*
X187574788Y-96577601D01*
X187553306Y-96488463D01*
X187549417Y-96477168D01*
X187466871Y-96295618D01*
X187460924Y-96285276D01*
X187345532Y-96122603D01*
X187337739Y-96113575D01*
X187193669Y-95975658D01*
X187184304Y-95968262D01*
X187016759Y-95860079D01*
X187006155Y-95854583D01*
X186821188Y-95780039D01*
X186809730Y-95776645D01*
X186612572Y-95738143D01*
X186603709Y-95737066D01*
X186601000Y-95737000D01*
X186421615Y-95737000D01*
X186406376Y-95741475D01*
X186405171Y-95742865D01*
X186403500Y-95750548D01*
X186403500Y-96572885D01*
X185895500Y-96572885D01*
X185895500Y-95755115D01*
X185891025Y-95739876D01*
X185889635Y-95738671D01*
X185881952Y-95737000D01*
X185749668Y-95737000D01*
X185743692Y-95737285D01*
X185595006Y-95751471D01*
X185583272Y-95753730D01*
X185391901Y-95809872D01*
X185380825Y-95814302D01*
X185203522Y-95905619D01*
X185193476Y-95912069D01*
X185036643Y-96035262D01*
X185027994Y-96043499D01*
X184897288Y-96194123D01*
X184890353Y-96203847D01*
X184882725Y-96217032D01*
X184831300Y-96265981D01*
X184761574Y-96279356D01*
X184695686Y-96252911D01*
X184654555Y-96195043D01*
X184651954Y-96121326D01*
X184666982Y-96065241D01*
X184668885Y-96054446D01*
X184686731Y-95850475D01*
X184686731Y-95839525D01*
X184668885Y-95635554D01*
X184666982Y-95624759D01*
X184613990Y-95426988D01*
X184610244Y-95416696D01*
X184523714Y-95231132D01*
X184518231Y-95221637D01*
X184493140Y-95185803D01*
X184482661Y-95177427D01*
X184469215Y-95184495D01*
X183821522Y-95832188D01*
X183813908Y-95846132D01*
X183083856Y-95846132D01*
X183085092Y-95843868D01*
X183084961Y-95842035D01*
X183080710Y-95835420D01*
X182429064Y-95183774D01*
X182417289Y-95177344D01*
X182405274Y-95186640D01*
X182380769Y-95221637D01*
X182375286Y-95231132D01*
X182288756Y-95416696D01*
X182285010Y-95426988D01*
X182232018Y-95624759D01*
X182230115Y-95635554D01*
X182212269Y-95839525D01*
X182212269Y-95850475D01*
X160550100Y-95850475D01*
X160550100Y-94811839D01*
X182781927Y-94811839D01*
X182788995Y-94825285D01*
X183436688Y-95472978D01*
X183450632Y-95480592D01*
X183452465Y-95480461D01*
X183459080Y-95476210D01*
X184110726Y-94824564D01*
X184117156Y-94812789D01*
X184107860Y-94800774D01*
X184072863Y-94776269D01*
X184063368Y-94770786D01*
X183877804Y-94684256D01*
X183867512Y-94680510D01*
X183669741Y-94627518D01*
X183658946Y-94625615D01*
X183454975Y-94607769D01*
X183444025Y-94607769D01*
X183240054Y-94625615D01*
X183229259Y-94627518D01*
X183031488Y-94680510D01*
X183021196Y-94684256D01*
X182835632Y-94770786D01*
X182826137Y-94776269D01*
X182790303Y-94801360D01*
X182781927Y-94811839D01*
X160550100Y-94811839D01*
X160550100Y-92594180D01*
X160570102Y-92526059D01*
X160618903Y-92481910D01*
X160622384Y-92480137D01*
X160626963Y-92478240D01*
X160631916Y-92475205D01*
X160825202Y-92356759D01*
X160825208Y-92356755D01*
X160829416Y-92354176D01*
X161009969Y-92199969D01*
X161164176Y-92019416D01*
X161166755Y-92015208D01*
X161166759Y-92015202D01*
X161251320Y-91877211D01*
X182781844Y-91877211D01*
X182791140Y-91889226D01*
X182826137Y-91913731D01*
X182835632Y-91919214D01*
X183021196Y-92005744D01*
X183031488Y-92009490D01*
X183229259Y-92062482D01*
X183240054Y-92064385D01*
X183444025Y-92082231D01*
X183454975Y-92082231D01*
X183658946Y-92064385D01*
X183669741Y-92062482D01*
X183867512Y-92009490D01*
X183877804Y-92005744D01*
X184063368Y-91919214D01*
X184072863Y-91913731D01*
X184108697Y-91888640D01*
X184117073Y-91878161D01*
X184110005Y-91864715D01*
X183462312Y-91217022D01*
X183448368Y-91209408D01*
X183446535Y-91209539D01*
X183439920Y-91213790D01*
X182788274Y-91865436D01*
X182781844Y-91877211D01*
X161251320Y-91877211D01*
X161285654Y-91821183D01*
X161288240Y-91816963D01*
X161290137Y-91812385D01*
X161377211Y-91602167D01*
X161377212Y-91602165D01*
X161379105Y-91597594D01*
X161400837Y-91507075D01*
X161433380Y-91371524D01*
X161433381Y-91371518D01*
X161434535Y-91366711D01*
X161453165Y-91130000D01*
X161434535Y-90893289D01*
X161431376Y-90880128D01*
X161424257Y-90850475D01*
X182212269Y-90850475D01*
X182230115Y-91054446D01*
X182232018Y-91065241D01*
X182285010Y-91263012D01*
X182288756Y-91273304D01*
X182375286Y-91458868D01*
X182380769Y-91468363D01*
X182405860Y-91504197D01*
X182416339Y-91512573D01*
X182429785Y-91505505D01*
X183077478Y-90857812D01*
X183083856Y-90846132D01*
X183813908Y-90846132D01*
X183814039Y-90847965D01*
X183818290Y-90854580D01*
X184469936Y-91506226D01*
X184481711Y-91512656D01*
X184493726Y-91503360D01*
X184518231Y-91468363D01*
X184523714Y-91458868D01*
X184610244Y-91273304D01*
X184613990Y-91263012D01*
X184666982Y-91065241D01*
X184668885Y-91054446D01*
X184686731Y-90850475D01*
X184686731Y-90839525D01*
X184668885Y-90635554D01*
X184666982Y-90624762D01*
X184650073Y-90561656D01*
X184651763Y-90490679D01*
X184691557Y-90431883D01*
X184756821Y-90403935D01*
X184826835Y-90415708D01*
X184874549Y-90456144D01*
X184953462Y-90567390D01*
X184961261Y-90576425D01*
X185105331Y-90714342D01*
X185114696Y-90721738D01*
X185282241Y-90829921D01*
X185292845Y-90835417D01*
X185477812Y-90909961D01*
X185489270Y-90913355D01*
X185686428Y-90951857D01*
X185695291Y-90952934D01*
X185698000Y-90953000D01*
X185877385Y-90953000D01*
X185892624Y-90948525D01*
X185893829Y-90947135D01*
X185895500Y-90939452D01*
X185895500Y-90934885D01*
X186403500Y-90934885D01*
X186407975Y-90950124D01*
X186409365Y-90951329D01*
X186417048Y-90953000D01*
X186549332Y-90953000D01*
X186555308Y-90952715D01*
X186703994Y-90938529D01*
X186715728Y-90936270D01*
X186907099Y-90880128D01*
X186918175Y-90875698D01*
X187095478Y-90784381D01*
X187105524Y-90777931D01*
X187262357Y-90654738D01*
X187271006Y-90646501D01*
X187401712Y-90495877D01*
X187408647Y-90486153D01*
X187508510Y-90313533D01*
X187513484Y-90302669D01*
X187578907Y-90114273D01*
X187579148Y-90113284D01*
X187577680Y-90102992D01*
X187564115Y-90099000D01*
X186421615Y-90099000D01*
X186406376Y-90103475D01*
X186405171Y-90104865D01*
X186403500Y-90112548D01*
X186403500Y-90934885D01*
X185895500Y-90934885D01*
X185895500Y-90117115D01*
X185891025Y-90101876D01*
X185889635Y-90100671D01*
X185881952Y-90099000D01*
X184739098Y-90099000D01*
X184725568Y-90102973D01*
X184721404Y-90131938D01*
X184691911Y-90196519D01*
X184632185Y-90234903D01*
X184561188Y-90234903D01*
X184501462Y-90196520D01*
X184493475Y-90186280D01*
X184493142Y-90185805D01*
X184482661Y-90177427D01*
X184469215Y-90184495D01*
X183821522Y-90832188D01*
X183813908Y-90846132D01*
X183083856Y-90846132D01*
X183085092Y-90843868D01*
X183084961Y-90842035D01*
X183080710Y-90835420D01*
X182429064Y-90183774D01*
X182417289Y-90177344D01*
X182405274Y-90186640D01*
X182380769Y-90221637D01*
X182375286Y-90231132D01*
X182288756Y-90416696D01*
X182285010Y-90426988D01*
X182232018Y-90624759D01*
X182230115Y-90635554D01*
X182212269Y-90839525D01*
X182212269Y-90850475D01*
X161424257Y-90850475D01*
X161384498Y-90684871D01*
X161379105Y-90662406D01*
X161367983Y-90635554D01*
X161290135Y-90447611D01*
X161290133Y-90447607D01*
X161288240Y-90443037D01*
X161238795Y-90362350D01*
X161166759Y-90244798D01*
X161166755Y-90244792D01*
X161164176Y-90240584D01*
X161009969Y-90060031D01*
X160829416Y-89905824D01*
X160825208Y-89903245D01*
X160825202Y-89903241D01*
X160631183Y-89784346D01*
X160626963Y-89781760D01*
X160622393Y-89779867D01*
X160622389Y-89779865D01*
X160556344Y-89752509D01*
X160501063Y-89707961D01*
X160478642Y-89640598D01*
X160496200Y-89571806D01*
X160548162Y-89523428D01*
X160604562Y-89510100D01*
X173321758Y-89510100D01*
X173389879Y-89530102D01*
X173404936Y-89541599D01*
X173408619Y-89545689D01*
X173413961Y-89549570D01*
X173413963Y-89549572D01*
X173539250Y-89640598D01*
X173555570Y-89652455D01*
X173561598Y-89655139D01*
X173561600Y-89655140D01*
X173707507Y-89720102D01*
X173721507Y-89726335D01*
X173810343Y-89745218D01*
X173892722Y-89762728D01*
X173892726Y-89762728D01*
X173899179Y-89764100D01*
X174080821Y-89764100D01*
X174087274Y-89762728D01*
X174087278Y-89762728D01*
X174169657Y-89745217D01*
X174258493Y-89726335D01*
X174272493Y-89720102D01*
X174418400Y-89655140D01*
X174418402Y-89655139D01*
X174424430Y-89652455D01*
X174447668Y-89635572D01*
X174465680Y-89622485D01*
X174532548Y-89598627D01*
X174601699Y-89614707D01*
X174613802Y-89622485D01*
X174711224Y-89693266D01*
X174753815Y-89724210D01*
X174759843Y-89726894D01*
X174759845Y-89726895D01*
X174889891Y-89784795D01*
X174919752Y-89798090D01*
X175008588Y-89816973D01*
X175090967Y-89834483D01*
X175090971Y-89834483D01*
X175097424Y-89835855D01*
X175279066Y-89835855D01*
X175285519Y-89834483D01*
X175285523Y-89834483D01*
X175367902Y-89816972D01*
X175392052Y-89811839D01*
X182781927Y-89811839D01*
X182788995Y-89825285D01*
X183436688Y-90472978D01*
X183450632Y-90480592D01*
X183452465Y-90480461D01*
X183459080Y-90476210D01*
X184110726Y-89824564D01*
X184117156Y-89812789D01*
X184107860Y-89800774D01*
X184072863Y-89776269D01*
X184063368Y-89770786D01*
X183877804Y-89684256D01*
X183867512Y-89680510D01*
X183669741Y-89627518D01*
X183658946Y-89625615D01*
X183454975Y-89607769D01*
X183444025Y-89607769D01*
X183240054Y-89625615D01*
X183229259Y-89627518D01*
X183031488Y-89680510D01*
X183021196Y-89684256D01*
X182835632Y-89770786D01*
X182826137Y-89776269D01*
X182790303Y-89801360D01*
X182781927Y-89811839D01*
X175392052Y-89811839D01*
X175456738Y-89798090D01*
X175486599Y-89784795D01*
X175616645Y-89726895D01*
X175616647Y-89726894D01*
X175622675Y-89724210D01*
X175665266Y-89693266D01*
X175764282Y-89621327D01*
X175764284Y-89621325D01*
X175769626Y-89617444D01*
X175774048Y-89612533D01*
X175806298Y-89576716D01*
X184719852Y-89576716D01*
X184721320Y-89587008D01*
X184734885Y-89591000D01*
X185877385Y-89591000D01*
X185892624Y-89586525D01*
X185893829Y-89585135D01*
X185895500Y-89577452D01*
X185895500Y-89572885D01*
X186403500Y-89572885D01*
X186407975Y-89588124D01*
X186409365Y-89589329D01*
X186417048Y-89591000D01*
X187559902Y-89591000D01*
X187573433Y-89587027D01*
X187574788Y-89577601D01*
X187553306Y-89488463D01*
X187549417Y-89477168D01*
X187466871Y-89295618D01*
X187460924Y-89285276D01*
X187345532Y-89122603D01*
X187337739Y-89113575D01*
X187193669Y-88975658D01*
X187184304Y-88968262D01*
X187016759Y-88860079D01*
X187006155Y-88854583D01*
X186821188Y-88780039D01*
X186809730Y-88776645D01*
X186612572Y-88738143D01*
X186603709Y-88737066D01*
X186601000Y-88737000D01*
X186421615Y-88737000D01*
X186406376Y-88741475D01*
X186405171Y-88742865D01*
X186403500Y-88750548D01*
X186403500Y-89572885D01*
X185895500Y-89572885D01*
X185895500Y-88755115D01*
X185891025Y-88739876D01*
X185889635Y-88738671D01*
X185881952Y-88737000D01*
X185749668Y-88737000D01*
X185743692Y-88737285D01*
X185595006Y-88751471D01*
X185583272Y-88753730D01*
X185391901Y-88809872D01*
X185380825Y-88814302D01*
X185203522Y-88905619D01*
X185193476Y-88912069D01*
X185036643Y-89035262D01*
X185027994Y-89043499D01*
X184897288Y-89194123D01*
X184890353Y-89203847D01*
X184790490Y-89376467D01*
X184785516Y-89387331D01*
X184720093Y-89575727D01*
X184719852Y-89576716D01*
X175806298Y-89576716D01*
X175886749Y-89487366D01*
X175886750Y-89487365D01*
X175891168Y-89482458D01*
X175948033Y-89383965D01*
X175978684Y-89330875D01*
X175978685Y-89330874D01*
X175981988Y-89325152D01*
X175994945Y-89285276D01*
X176021402Y-89203847D01*
X176027651Y-89184616D01*
X176067723Y-89126011D01*
X176121286Y-89100306D01*
X176136595Y-89097052D01*
X176157035Y-89092708D01*
X176157038Y-89092707D01*
X176163493Y-89091335D01*
X176169524Y-89088650D01*
X176323400Y-89020140D01*
X176323402Y-89020139D01*
X176329430Y-89017455D01*
X176386959Y-88975658D01*
X176471037Y-88914572D01*
X176471039Y-88914570D01*
X176476381Y-88910689D01*
X176502581Y-88881591D01*
X176593504Y-88780611D01*
X176593505Y-88780610D01*
X176597923Y-88775703D01*
X176665940Y-88657893D01*
X176685439Y-88624120D01*
X176685440Y-88624119D01*
X176688743Y-88618397D01*
X176721258Y-88518327D01*
X176742833Y-88451925D01*
X176742833Y-88451924D01*
X176744873Y-88445646D01*
X176756013Y-88339663D01*
X176763170Y-88271565D01*
X176763860Y-88265000D01*
X176748215Y-88116146D01*
X176745563Y-88090918D01*
X176745563Y-88090917D01*
X176744873Y-88084354D01*
X176741771Y-88074805D01*
X176690785Y-87917888D01*
X176688743Y-87911603D01*
X176597923Y-87754297D01*
X176541597Y-87691740D01*
X176480803Y-87624222D01*
X176480802Y-87624221D01*
X176476381Y-87619311D01*
X176456822Y-87605100D01*
X176334772Y-87516426D01*
X176334771Y-87516425D01*
X176329430Y-87512545D01*
X176323402Y-87509861D01*
X176323400Y-87509860D01*
X176169524Y-87441350D01*
X176169523Y-87441350D01*
X176163493Y-87438665D01*
X176074657Y-87419782D01*
X175992278Y-87402272D01*
X175992274Y-87402272D01*
X175985821Y-87400900D01*
X175945902Y-87400900D01*
X175877781Y-87380898D01*
X175856807Y-87363995D01*
X174474920Y-85982108D01*
X174467810Y-85974295D01*
X174463826Y-85968017D01*
X174416069Y-85923170D01*
X174413227Y-85920415D01*
X174394265Y-85901453D01*
X174391138Y-85899027D01*
X174390497Y-85898462D01*
X174382337Y-85891493D01*
X174369782Y-85879703D01*
X174351458Y-85862496D01*
X174334681Y-85853272D01*
X174318168Y-85842425D01*
X174309923Y-85836030D01*
X174268355Y-85778475D01*
X174264501Y-85707583D01*
X174269164Y-85692238D01*
X174301505Y-85605968D01*
X174316745Y-85565316D01*
X174323500Y-85503134D01*
X179276500Y-85503134D01*
X179283255Y-85565316D01*
X179334385Y-85701705D01*
X179421739Y-85818261D01*
X179538295Y-85905615D01*
X179674684Y-85956745D01*
X179736866Y-85963500D01*
X181833134Y-85963500D01*
X181895316Y-85956745D01*
X182031705Y-85905615D01*
X182148261Y-85818261D01*
X182235615Y-85701705D01*
X182286745Y-85565316D01*
X182293500Y-85503134D01*
X182293500Y-85499669D01*
X183277001Y-85499669D01*
X183277371Y-85506490D01*
X183282895Y-85557352D01*
X183286521Y-85572604D01*
X183331676Y-85693054D01*
X183340214Y-85708649D01*
X183416715Y-85810724D01*
X183429276Y-85823285D01*
X183531351Y-85899786D01*
X183546946Y-85908324D01*
X183667394Y-85953478D01*
X183682649Y-85957105D01*
X183733514Y-85962631D01*
X183740328Y-85963000D01*
X184512885Y-85963000D01*
X184528124Y-85958525D01*
X184529329Y-85957135D01*
X184531000Y-85949452D01*
X184531000Y-85944884D01*
X185039000Y-85944884D01*
X185043475Y-85960123D01*
X185044865Y-85961328D01*
X185052548Y-85962999D01*
X185829669Y-85962999D01*
X185836490Y-85962629D01*
X185887352Y-85957105D01*
X185902604Y-85953479D01*
X186023054Y-85908324D01*
X186038649Y-85899786D01*
X186140724Y-85823285D01*
X186153285Y-85810724D01*
X186229786Y-85708649D01*
X186238324Y-85693054D01*
X186283478Y-85572606D01*
X186287105Y-85557351D01*
X186292631Y-85506486D01*
X186293000Y-85499672D01*
X186293000Y-84727115D01*
X186288525Y-84711876D01*
X186287135Y-84710671D01*
X186279452Y-84709000D01*
X185057115Y-84709000D01*
X185041876Y-84713475D01*
X185040671Y-84714865D01*
X185039000Y-84722548D01*
X185039000Y-85944884D01*
X184531000Y-85944884D01*
X184531000Y-84727115D01*
X184526525Y-84711876D01*
X184525135Y-84710671D01*
X184517452Y-84709000D01*
X183295116Y-84709000D01*
X183279877Y-84713475D01*
X183278672Y-84714865D01*
X183277001Y-84722548D01*
X183277001Y-85499669D01*
X182293500Y-85499669D01*
X182293500Y-84182885D01*
X183277000Y-84182885D01*
X183281475Y-84198124D01*
X183282865Y-84199329D01*
X183290548Y-84201000D01*
X184512885Y-84201000D01*
X184528124Y-84196525D01*
X184529329Y-84195135D01*
X184531000Y-84187452D01*
X184531000Y-84182885D01*
X185039000Y-84182885D01*
X185043475Y-84198124D01*
X185044865Y-84199329D01*
X185052548Y-84201000D01*
X186274884Y-84201000D01*
X186290123Y-84196525D01*
X186291328Y-84195135D01*
X186292999Y-84187452D01*
X186292999Y-83410331D01*
X186292629Y-83403510D01*
X186287105Y-83352648D01*
X186283479Y-83337396D01*
X186238324Y-83216946D01*
X186229786Y-83201351D01*
X186153285Y-83099276D01*
X186140724Y-83086715D01*
X186038649Y-83010214D01*
X186023054Y-83001676D01*
X185902606Y-82956522D01*
X185887351Y-82952895D01*
X185836486Y-82947369D01*
X185829672Y-82947000D01*
X185057115Y-82947000D01*
X185041876Y-82951475D01*
X185040671Y-82952865D01*
X185039000Y-82960548D01*
X185039000Y-84182885D01*
X184531000Y-84182885D01*
X184531000Y-82965116D01*
X184526525Y-82949877D01*
X184525135Y-82948672D01*
X184517452Y-82947001D01*
X183740331Y-82947001D01*
X183733510Y-82947371D01*
X183682648Y-82952895D01*
X183667396Y-82956521D01*
X183546946Y-83001676D01*
X183531351Y-83010214D01*
X183429276Y-83086715D01*
X183416715Y-83099276D01*
X183340214Y-83201351D01*
X183331676Y-83216946D01*
X183286522Y-83337394D01*
X183282895Y-83352649D01*
X183277369Y-83403514D01*
X183277000Y-83410328D01*
X183277000Y-84182885D01*
X182293500Y-84182885D01*
X182293500Y-83406866D01*
X182286745Y-83344684D01*
X182235615Y-83208295D01*
X182148261Y-83091739D01*
X182031705Y-83004385D01*
X181895316Y-82953255D01*
X181833134Y-82946500D01*
X179736866Y-82946500D01*
X179674684Y-82953255D01*
X179538295Y-83004385D01*
X179421739Y-83091739D01*
X179334385Y-83208295D01*
X179283255Y-83344684D01*
X179276500Y-83406866D01*
X179276500Y-85503134D01*
X174323500Y-85503134D01*
X174323500Y-83406866D01*
X174316745Y-83344684D01*
X174265615Y-83208295D01*
X174178261Y-83091739D01*
X174061705Y-83004385D01*
X173925316Y-82953255D01*
X173863134Y-82946500D01*
X171766866Y-82946500D01*
X171704684Y-82953255D01*
X171568295Y-83004385D01*
X171451739Y-83091739D01*
X171364385Y-83208295D01*
X171313255Y-83344684D01*
X171306500Y-83406866D01*
X171306500Y-85503134D01*
X171313255Y-85565316D01*
X171316027Y-85572712D01*
X171316029Y-85572718D01*
X171318636Y-85579671D01*
X171323819Y-85650478D01*
X171289898Y-85712847D01*
X171227642Y-85746976D01*
X171200654Y-85749900D01*
X170429346Y-85749900D01*
X170361225Y-85729898D01*
X170314732Y-85676242D01*
X170304628Y-85605968D01*
X170311364Y-85579671D01*
X170313971Y-85572718D01*
X170313973Y-85572712D01*
X170316745Y-85565316D01*
X170323500Y-85503134D01*
X170323500Y-83406866D01*
X170316745Y-83344684D01*
X170265615Y-83208295D01*
X170178261Y-83091739D01*
X170061705Y-83004385D01*
X169925316Y-82953255D01*
X169863134Y-82946500D01*
X167766866Y-82946500D01*
X167704684Y-82953255D01*
X167568295Y-83004385D01*
X167451739Y-83091739D01*
X167364385Y-83208295D01*
X167313255Y-83344684D01*
X167306500Y-83406866D01*
X167306500Y-85503134D01*
X167313255Y-85565316D01*
X167316027Y-85572712D01*
X167316029Y-85572718D01*
X167318636Y-85579671D01*
X167323819Y-85650478D01*
X167289898Y-85712847D01*
X167227642Y-85746976D01*
X167200654Y-85749900D01*
X164163087Y-85749900D01*
X164094966Y-85729898D01*
X164048473Y-85676242D01*
X164038369Y-85605968D01*
X164067863Y-85541388D01*
X164118857Y-85505918D01*
X164239297Y-85460767D01*
X164247705Y-85457615D01*
X164364261Y-85370261D01*
X164451615Y-85253705D01*
X164502745Y-85117316D01*
X164509500Y-85055134D01*
X164509500Y-84108866D01*
X164502745Y-84046684D01*
X164451615Y-83910295D01*
X164364261Y-83793739D01*
X164247705Y-83706385D01*
X164111316Y-83655255D01*
X164049134Y-83648500D01*
X163102866Y-83648500D01*
X163040684Y-83655255D01*
X162904295Y-83706385D01*
X162787739Y-83793739D01*
X162700385Y-83910295D01*
X162649255Y-84046684D01*
X162642500Y-84108866D01*
X162642500Y-85055134D01*
X162649255Y-85117316D01*
X162700385Y-85253705D01*
X162787739Y-85370261D01*
X162904295Y-85457615D01*
X162912703Y-85460767D01*
X163033143Y-85505918D01*
X163089907Y-85548560D01*
X163114607Y-85615121D01*
X163099400Y-85684470D01*
X163049114Y-85734588D01*
X162988913Y-85749900D01*
X155885990Y-85749900D01*
X155817869Y-85729898D01*
X155771376Y-85676242D01*
X155761272Y-85605968D01*
X155785163Y-85548338D01*
X155815615Y-85507705D01*
X155866745Y-85371316D01*
X155873500Y-85309134D01*
X155873500Y-84362866D01*
X155866745Y-84300684D01*
X155815615Y-84164295D01*
X155728261Y-84047739D01*
X155611705Y-83960385D01*
X155475316Y-83909255D01*
X155413134Y-83902500D01*
X154466866Y-83902500D01*
X154404684Y-83909255D01*
X154268295Y-83960385D01*
X154151739Y-84047739D01*
X154064385Y-84164295D01*
X154013255Y-84300684D01*
X154006500Y-84362866D01*
X154006500Y-85309134D01*
X154013255Y-85371316D01*
X154064385Y-85507705D01*
X154094837Y-85548337D01*
X154119684Y-85614840D01*
X154104632Y-85684223D01*
X154054458Y-85734453D01*
X153994010Y-85749900D01*
X149935681Y-85749900D01*
X149925132Y-85749403D01*
X149917872Y-85747780D01*
X149909946Y-85748029D01*
X149909945Y-85748029D01*
X149852387Y-85749838D01*
X149848429Y-85749900D01*
X149821617Y-85749900D01*
X149817691Y-85750396D01*
X149816835Y-85750450D01*
X149806145Y-85751292D01*
X149783094Y-85752016D01*
X149771721Y-85752373D01*
X149771720Y-85752373D01*
X149763801Y-85752622D01*
X149756189Y-85754833D01*
X149756185Y-85754834D01*
X149745408Y-85757964D01*
X149726055Y-85761972D01*
X149707068Y-85764371D01*
X149667686Y-85779964D01*
X149656475Y-85783803D01*
X149615775Y-85795627D01*
X149608955Y-85799660D01*
X149608949Y-85799663D01*
X149599297Y-85805372D01*
X149581550Y-85814067D01*
X149563746Y-85821116D01*
X149557326Y-85825780D01*
X149557323Y-85825782D01*
X149529471Y-85846017D01*
X149519566Y-85852525D01*
X149483094Y-85874094D01*
X149469562Y-85887626D01*
X149454530Y-85900465D01*
X149439038Y-85911721D01*
X149433985Y-85917829D01*
X149412031Y-85944367D01*
X149404041Y-85953147D01*
X143767108Y-91590080D01*
X143759295Y-91597190D01*
X143753017Y-91601174D01*
X143747591Y-91606953D01*
X143747590Y-91606953D01*
X143708170Y-91648931D01*
X143705415Y-91651773D01*
X143686453Y-91670735D01*
X143684027Y-91673862D01*
X143683462Y-91674503D01*
X143676494Y-91682661D01*
X143647496Y-91713542D01*
X143638272Y-91730319D01*
X143627425Y-91746832D01*
X143620548Y-91755698D01*
X143620545Y-91755703D01*
X143615687Y-91761966D01*
X143598862Y-91800847D01*
X143593646Y-91811495D01*
X143573235Y-91848622D01*
X143569103Y-91864715D01*
X143568475Y-91867161D01*
X143562074Y-91885859D01*
X143554468Y-91903435D01*
X143548301Y-91942377D01*
X143547842Y-91945274D01*
X143545435Y-91956897D01*
X143534900Y-91997926D01*
X143534900Y-92017064D01*
X143533349Y-92036774D01*
X143530354Y-92055684D01*
X143531100Y-92063575D01*
X143534341Y-92097861D01*
X143534900Y-92109719D01*
X143534900Y-95133340D01*
X143514898Y-95201461D01*
X143502537Y-95217649D01*
X143473980Y-95249365D01*
X143452334Y-95273406D01*
X143442077Y-95284797D01*
X143438777Y-95290513D01*
X143438774Y-95290517D01*
X143359706Y-95427468D01*
X143351257Y-95442103D01*
X143349215Y-95448388D01*
X143298307Y-95605068D01*
X143295127Y-95614854D01*
X143294437Y-95621417D01*
X143294437Y-95621418D01*
X143290529Y-95658603D01*
X143276140Y-95795500D01*
X143273505Y-95795223D01*
X143256828Y-95852021D01*
X143203172Y-95898514D01*
X143150830Y-95909900D01*
X130970242Y-95909900D01*
X130902121Y-95889898D01*
X130887064Y-95878401D01*
X130883381Y-95874311D01*
X130863793Y-95860079D01*
X130741772Y-95771426D01*
X130741771Y-95771425D01*
X130736430Y-95767545D01*
X130730402Y-95764861D01*
X130730400Y-95764860D01*
X130576524Y-95696350D01*
X130576523Y-95696350D01*
X130570493Y-95693665D01*
X130457868Y-95669726D01*
X130399278Y-95657272D01*
X130399274Y-95657272D01*
X130392821Y-95655900D01*
X130211179Y-95655900D01*
X130204726Y-95657272D01*
X130204722Y-95657272D01*
X130146132Y-95669726D01*
X130033507Y-95693665D01*
X130027477Y-95696350D01*
X130027476Y-95696350D01*
X129873600Y-95764860D01*
X129873598Y-95764861D01*
X129867570Y-95767545D01*
X129862229Y-95771425D01*
X129862228Y-95771426D01*
X129740208Y-95860079D01*
X129720619Y-95874311D01*
X129716198Y-95879221D01*
X129716197Y-95879222D01*
X129605265Y-96002425D01*
X129599077Y-96009297D01*
X129570692Y-96058462D01*
X129538873Y-96113575D01*
X129508257Y-96166603D01*
X129452127Y-96339354D01*
X129451437Y-96345917D01*
X129451437Y-96345918D01*
X129434588Y-96506226D01*
X129433140Y-96520000D01*
X129433830Y-96526565D01*
X129440603Y-96591000D01*
X129452127Y-96700646D01*
X129454167Y-96706925D01*
X129454168Y-96706929D01*
X129471725Y-96760965D01*
X129473752Y-96831932D01*
X129437089Y-96892730D01*
X129373377Y-96924055D01*
X129351892Y-96925900D01*
X129336902Y-96925900D01*
X129268781Y-96905898D01*
X129247806Y-96888995D01*
X128663004Y-96304192D01*
X128628979Y-96241880D01*
X128626100Y-96215097D01*
X128626100Y-95833678D01*
X128626598Y-95823126D01*
X128628219Y-95815872D01*
X128626162Y-95750405D01*
X128626100Y-95746448D01*
X128626100Y-95719617D01*
X128625604Y-95715690D01*
X128625547Y-95714784D01*
X128624708Y-95704135D01*
X128624464Y-95696350D01*
X128623378Y-95661801D01*
X128618036Y-95643414D01*
X128614028Y-95624057D01*
X128612623Y-95612935D01*
X128612623Y-95612934D01*
X128611629Y-95605068D01*
X128607444Y-95594496D01*
X128596036Y-95565682D01*
X128592192Y-95554455D01*
X128582585Y-95521391D01*
X128582584Y-95521389D01*
X128580372Y-95513775D01*
X128570626Y-95497295D01*
X128561935Y-95479555D01*
X128554884Y-95461746D01*
X128529980Y-95427468D01*
X128523464Y-95417548D01*
X128505943Y-95387921D01*
X128505941Y-95387918D01*
X128501905Y-95381094D01*
X128488378Y-95367567D01*
X128475537Y-95352533D01*
X128468940Y-95343453D01*
X128468939Y-95343452D01*
X128464279Y-95337038D01*
X128431627Y-95310026D01*
X128422848Y-95302037D01*
X124779364Y-91658553D01*
X124745338Y-91596241D01*
X124748626Y-91530524D01*
X124801873Y-91366646D01*
X124820860Y-91186000D01*
X124809530Y-91078206D01*
X124802563Y-91011918D01*
X124802563Y-91011917D01*
X124801873Y-91005354D01*
X124745743Y-90832603D01*
X124654923Y-90675297D01*
X124639199Y-90657833D01*
X124537803Y-90545222D01*
X124537802Y-90545221D01*
X124533381Y-90540311D01*
X124526387Y-90535229D01*
X124391772Y-90437426D01*
X124391771Y-90437425D01*
X124386430Y-90433545D01*
X124380402Y-90430861D01*
X124380400Y-90430860D01*
X124226524Y-90362350D01*
X124226523Y-90362350D01*
X124220493Y-90359665D01*
X124112474Y-90336705D01*
X124049278Y-90323272D01*
X124049274Y-90323272D01*
X124042821Y-90321900D01*
X123861179Y-90321900D01*
X123854726Y-90323272D01*
X123854722Y-90323272D01*
X123791526Y-90336705D01*
X123683507Y-90359665D01*
X123677477Y-90362350D01*
X123677476Y-90362350D01*
X123523600Y-90430860D01*
X123523598Y-90430861D01*
X123517570Y-90433545D01*
X123512229Y-90437425D01*
X123512228Y-90437426D01*
X123377614Y-90535229D01*
X123370619Y-90540311D01*
X123302935Y-90615481D01*
X123242493Y-90652719D01*
X123171509Y-90651368D01*
X123120207Y-90620264D01*
X121335489Y-88835546D01*
X121322652Y-88820518D01*
X121314669Y-88809530D01*
X121264937Y-88764751D01*
X121260153Y-88760210D01*
X121246006Y-88746063D01*
X121240340Y-88741475D01*
X121230446Y-88733463D01*
X121225425Y-88729175D01*
X121180619Y-88688830D01*
X121180615Y-88688827D01*
X121175715Y-88684415D01*
X121170005Y-88681119D01*
X121170002Y-88681116D01*
X121163955Y-88677625D01*
X121147670Y-88666432D01*
X121137125Y-88657893D01*
X121077520Y-88627523D01*
X121071724Y-88624376D01*
X121050482Y-88612112D01*
X121013785Y-88590925D01*
X121000875Y-88586730D01*
X120982616Y-88579167D01*
X120970524Y-88573006D01*
X120905906Y-88555691D01*
X120899582Y-88553818D01*
X120868940Y-88543862D01*
X120835956Y-88533145D01*
X120829389Y-88532455D01*
X120829385Y-88532454D01*
X120823712Y-88531858D01*
X120822470Y-88531728D01*
X120803028Y-88528125D01*
X120789915Y-88524611D01*
X120783318Y-88524265D01*
X120783316Y-88524265D01*
X120723113Y-88521110D01*
X120716539Y-88520593D01*
X120699895Y-88518844D01*
X120699891Y-88518844D01*
X120696620Y-88518500D01*
X120676593Y-88518500D01*
X120669999Y-88518327D01*
X120609782Y-88515171D01*
X120609778Y-88515171D01*
X120603190Y-88514826D01*
X120596675Y-88515858D01*
X120596673Y-88515858D01*
X120589786Y-88516949D01*
X120570075Y-88518500D01*
X118373163Y-88518500D01*
X118305042Y-88498498D01*
X118258549Y-88444842D01*
X118248445Y-88374568D01*
X118263606Y-88330264D01*
X118278067Y-88304808D01*
X118281112Y-88299448D01*
X118344035Y-88110294D01*
X118368342Y-87917888D01*
X118368578Y-87916023D01*
X118368579Y-87916013D01*
X118369020Y-87912520D01*
X118369418Y-87884000D01*
X118349965Y-87685606D01*
X118348184Y-87679707D01*
X118348183Y-87679702D01*
X118294129Y-87500667D01*
X118292348Y-87494768D01*
X118242438Y-87400900D01*
X118201655Y-87324198D01*
X118201653Y-87324195D01*
X118198761Y-87318756D01*
X118194871Y-87313986D01*
X118194868Y-87313982D01*
X118076663Y-87169049D01*
X118076660Y-87169046D01*
X118072768Y-87164274D01*
X117919170Y-87037206D01*
X117743815Y-86942392D01*
X117553385Y-86883444D01*
X117547260Y-86882800D01*
X117547259Y-86882800D01*
X117361260Y-86863251D01*
X117361258Y-86863251D01*
X117355131Y-86862607D01*
X117232252Y-86873790D01*
X117162746Y-86880115D01*
X117162745Y-86880115D01*
X117156605Y-86880674D01*
X117150691Y-86882415D01*
X117150689Y-86882415D01*
X117020539Y-86920721D01*
X116965370Y-86936958D01*
X116959905Y-86939815D01*
X116882728Y-86980162D01*
X116824353Y-86994500D01*
X114807500Y-86994500D01*
X114739379Y-86974498D01*
X114692886Y-86920842D01*
X114681500Y-86868500D01*
X114681500Y-85510633D01*
X114701502Y-85442512D01*
X114718405Y-85421538D01*
X116142454Y-83997489D01*
X116157482Y-83984652D01*
X116168470Y-83976669D01*
X116172881Y-83971770D01*
X116172890Y-83971762D01*
X116205500Y-83935544D01*
X116265946Y-83898304D01*
X116336930Y-83899656D01*
X116395914Y-83939169D01*
X116424172Y-84004300D01*
X116421947Y-84044839D01*
X116421255Y-84046684D01*
X116414500Y-84108866D01*
X116414500Y-85055134D01*
X116421255Y-85117316D01*
X116472385Y-85253705D01*
X116559739Y-85370261D01*
X116676295Y-85457615D01*
X116812684Y-85508745D01*
X116874866Y-85515500D01*
X117821134Y-85515500D01*
X117883316Y-85508745D01*
X118019705Y-85457615D01*
X118136261Y-85370261D01*
X118223615Y-85253705D01*
X118274745Y-85117316D01*
X118281500Y-85055134D01*
X118281500Y-84108866D01*
X118274745Y-84046684D01*
X118223615Y-83910295D01*
X118136261Y-83793739D01*
X118019705Y-83706385D01*
X117883316Y-83655255D01*
X117821134Y-83648500D01*
X116874866Y-83648500D01*
X116812684Y-83655255D01*
X116676295Y-83706385D01*
X116603636Y-83760840D01*
X116537132Y-83785687D01*
X116467750Y-83770634D01*
X116417519Y-83720460D01*
X116402389Y-83651095D01*
X116406367Y-83627401D01*
X116422309Y-83567906D01*
X116424182Y-83561582D01*
X116442813Y-83504240D01*
X116444855Y-83497956D01*
X116446272Y-83484470D01*
X116449876Y-83465023D01*
X116451680Y-83458293D01*
X116451680Y-83458292D01*
X116453389Y-83451915D01*
X116455568Y-83410331D01*
X116456890Y-83385113D01*
X116457407Y-83378539D01*
X116459156Y-83361895D01*
X116459156Y-83361891D01*
X116459500Y-83358620D01*
X116459500Y-83338593D01*
X116459673Y-83331999D01*
X116462829Y-83271782D01*
X116462829Y-83271778D01*
X116463174Y-83265190D01*
X116461051Y-83251785D01*
X116459500Y-83232075D01*
X116459500Y-82757380D01*
X116444855Y-82618044D01*
X116411418Y-82515134D01*
X120478500Y-82515134D01*
X120485255Y-82577316D01*
X120536385Y-82713705D01*
X120623739Y-82830261D01*
X120740295Y-82917615D01*
X120876684Y-82968745D01*
X120938866Y-82975500D01*
X121885134Y-82975500D01*
X121947316Y-82968745D01*
X122083705Y-82917615D01*
X122200261Y-82830261D01*
X122287615Y-82713705D01*
X122338745Y-82577316D01*
X122345500Y-82515134D01*
X122345500Y-81568866D01*
X122338745Y-81506684D01*
X122287615Y-81370295D01*
X122200261Y-81253739D01*
X122083705Y-81166385D01*
X121947316Y-81115255D01*
X121885134Y-81108500D01*
X120938866Y-81108500D01*
X120876684Y-81115255D01*
X120740295Y-81166385D01*
X120623739Y-81253739D01*
X120536385Y-81370295D01*
X120485255Y-81506684D01*
X120478500Y-81568866D01*
X120478500Y-82515134D01*
X116411418Y-82515134D01*
X116387075Y-82440215D01*
X116293585Y-82278285D01*
X116168470Y-82139331D01*
X116017200Y-82029427D01*
X116011174Y-82026744D01*
X116011167Y-82026740D01*
X115965802Y-82006543D01*
X115911706Y-81960563D01*
X115891056Y-81892636D01*
X115897886Y-81854763D01*
X115896994Y-81854524D01*
X115914309Y-81789906D01*
X115916182Y-81783582D01*
X115934813Y-81726240D01*
X115936855Y-81719956D01*
X115938272Y-81706470D01*
X115941876Y-81687023D01*
X115943680Y-81680293D01*
X115943680Y-81680292D01*
X115945389Y-81673915D01*
X115948890Y-81607113D01*
X115949407Y-81600539D01*
X115951156Y-81583895D01*
X115951156Y-81583891D01*
X115951500Y-81580620D01*
X115951500Y-81560593D01*
X115951671Y-81554030D01*
X115952197Y-81543992D01*
X115968466Y-81488353D01*
X115995112Y-81441448D01*
X116015985Y-81378703D01*
X116026474Y-81347171D01*
X116058035Y-81252294D01*
X116074997Y-81118029D01*
X116082578Y-81058023D01*
X116082579Y-81058013D01*
X116083020Y-81054520D01*
X116083418Y-81026000D01*
X116063965Y-80827606D01*
X116062184Y-80821707D01*
X116062183Y-80821702D01*
X116008129Y-80642667D01*
X116006348Y-80636768D01*
X115912761Y-80460756D01*
X115908871Y-80455986D01*
X115908868Y-80455982D01*
X115790663Y-80311049D01*
X115790660Y-80311046D01*
X115786768Y-80306274D01*
X115633170Y-80179206D01*
X115457815Y-80084392D01*
X115267385Y-80025444D01*
X115261260Y-80024800D01*
X115261259Y-80024800D01*
X115075260Y-80005251D01*
X115075258Y-80005251D01*
X115069131Y-80004607D01*
X114946252Y-80015790D01*
X114876746Y-80022115D01*
X114876745Y-80022115D01*
X114870605Y-80022674D01*
X114864691Y-80024415D01*
X114864689Y-80024415D01*
X114734539Y-80062721D01*
X114679370Y-80078958D01*
X114502709Y-80171314D01*
X114497909Y-80175174D01*
X114497908Y-80175174D01*
X114492893Y-80179206D01*
X114347351Y-80296225D01*
X114219214Y-80448933D01*
X114123179Y-80623621D01*
X114062902Y-80813635D01*
X114040682Y-81011739D01*
X114042174Y-81029505D01*
X114057362Y-81210386D01*
X114056186Y-81210485D01*
X114049461Y-81274830D01*
X114022005Y-81316052D01*
X112457546Y-82880511D01*
X112442518Y-82893348D01*
X112431530Y-82901331D01*
X112427117Y-82906233D01*
X112427115Y-82906234D01*
X112386751Y-82951063D01*
X112382210Y-82955847D01*
X112368063Y-82969994D01*
X112365986Y-82972559D01*
X112355463Y-82985554D01*
X112351175Y-82990575D01*
X112310830Y-83035381D01*
X112310827Y-83035385D01*
X112306415Y-83040285D01*
X112303119Y-83045995D01*
X112303116Y-83045998D01*
X112299625Y-83052045D01*
X112288432Y-83068330D01*
X112279893Y-83078875D01*
X112249523Y-83138480D01*
X112246376Y-83144276D01*
X112212925Y-83202215D01*
X112210884Y-83208497D01*
X112208731Y-83215123D01*
X112201167Y-83233384D01*
X112195006Y-83245476D01*
X112187957Y-83271782D01*
X112177691Y-83310094D01*
X112175818Y-83316418D01*
X112155145Y-83380044D01*
X112154455Y-83386611D01*
X112154454Y-83386615D01*
X112153728Y-83393529D01*
X112150125Y-83412972D01*
X112146611Y-83426085D01*
X112146265Y-83432682D01*
X112146265Y-83432684D01*
X112143110Y-83492887D01*
X112142593Y-83499461D01*
X112140500Y-83519380D01*
X112140500Y-83539407D01*
X112140327Y-83546004D01*
X112139739Y-83557220D01*
X112124327Y-83611323D01*
X112094147Y-83666221D01*
X112094145Y-83666226D01*
X112091179Y-83671621D01*
X112030902Y-83861635D01*
X112008682Y-84059739D01*
X112025362Y-84258386D01*
X112037491Y-84300684D01*
X112056302Y-84366283D01*
X112080310Y-84450009D01*
X112171430Y-84627311D01*
X112295253Y-84783537D01*
X112447063Y-84912737D01*
X112621076Y-85009989D01*
X112626935Y-85011893D01*
X112626938Y-85011894D01*
X112810665Y-85071591D01*
X112810190Y-85073054D01*
X112865790Y-85103572D01*
X112899679Y-85165959D01*
X112902500Y-85192473D01*
X112902500Y-87359554D01*
X112886915Y-87420255D01*
X112853179Y-87481621D01*
X112792902Y-87671635D01*
X112770682Y-87869739D01*
X112787362Y-88068386D01*
X112842310Y-88260009D01*
X112878416Y-88330264D01*
X112928453Y-88427626D01*
X112933430Y-88437311D01*
X113057253Y-88593537D01*
X113209063Y-88722737D01*
X113214441Y-88725743D01*
X113214443Y-88725744D01*
X113293604Y-88769985D01*
X113383076Y-88819989D01*
X113388935Y-88821893D01*
X113388938Y-88821894D01*
X113424701Y-88833514D01*
X113572665Y-88881591D01*
X113578775Y-88882320D01*
X113578777Y-88882320D01*
X113646314Y-88890373D01*
X113770609Y-88905194D01*
X113776744Y-88904722D01*
X113776746Y-88904722D01*
X113963226Y-88890373D01*
X113963231Y-88890372D01*
X113969367Y-88889900D01*
X113975297Y-88888244D01*
X113975299Y-88888244D01*
X114076174Y-88860079D01*
X114161370Y-88836292D01*
X114166865Y-88833516D01*
X114166871Y-88833514D01*
X114258885Y-88787034D01*
X114315695Y-88773500D01*
X116577734Y-88773500D01*
X116645855Y-88793502D01*
X116692348Y-88847158D01*
X116702452Y-88917432D01*
X116688148Y-88960201D01*
X116666148Y-89000218D01*
X116666143Y-89000229D01*
X116663179Y-89005621D01*
X116602902Y-89195635D01*
X116580682Y-89393739D01*
X116597362Y-89592386D01*
X116611187Y-89640598D01*
X116650091Y-89776269D01*
X116652310Y-89784009D01*
X116655125Y-89789486D01*
X116710549Y-89897330D01*
X116743430Y-89961311D01*
X116867253Y-90117537D01*
X117019063Y-90246737D01*
X117193076Y-90343989D01*
X117198935Y-90345893D01*
X117198938Y-90345894D01*
X117259703Y-90365638D01*
X117382665Y-90405591D01*
X117388775Y-90406320D01*
X117388777Y-90406320D01*
X117456314Y-90414373D01*
X117580609Y-90429194D01*
X117586744Y-90428722D01*
X117586746Y-90428722D01*
X117773226Y-90414373D01*
X117773231Y-90414372D01*
X117779367Y-90413900D01*
X117785297Y-90412244D01*
X117785299Y-90412244D01*
X117875369Y-90387096D01*
X117971370Y-90360292D01*
X117976865Y-90357516D01*
X117976871Y-90357514D01*
X118068885Y-90311034D01*
X118125695Y-90297500D01*
X120229367Y-90297500D01*
X120297488Y-90317502D01*
X120318462Y-90334405D01*
X120843382Y-90859325D01*
X120877408Y-90921637D01*
X120872343Y-90992452D01*
X120838599Y-91042055D01*
X120835964Y-91044428D01*
X120830619Y-91048311D01*
X120826198Y-91053221D01*
X120826197Y-91053222D01*
X120756047Y-91131132D01*
X120709077Y-91183297D01*
X120618257Y-91340603D01*
X120616215Y-91346888D01*
X120579831Y-91458868D01*
X120562127Y-91513354D01*
X120561437Y-91519917D01*
X120561437Y-91519918D01*
X120552792Y-91602167D01*
X120543140Y-91694000D01*
X120562127Y-91874646D01*
X120564167Y-91880924D01*
X120564167Y-91880925D01*
X120583828Y-91941435D01*
X120618257Y-92047397D01*
X120621560Y-92053119D01*
X120621561Y-92053120D01*
X120705774Y-92198983D01*
X120705777Y-92198987D01*
X120709077Y-92204703D01*
X120713495Y-92209610D01*
X120713496Y-92209611D01*
X120769536Y-92271849D01*
X120800253Y-92335857D01*
X120801900Y-92356160D01*
X120801900Y-93811125D01*
X120781898Y-93879246D01*
X120764995Y-93900220D01*
X118935195Y-95730019D01*
X118872883Y-95764045D01*
X118802067Y-95758980D01*
X118745232Y-95716433D01*
X118720421Y-95649913D01*
X118720100Y-95640924D01*
X118720100Y-94642160D01*
X118740102Y-94574039D01*
X118752464Y-94557849D01*
X118808504Y-94495611D01*
X118808505Y-94495610D01*
X118812923Y-94490703D01*
X118816223Y-94484987D01*
X118816226Y-94484983D01*
X118900439Y-94339120D01*
X118900440Y-94339119D01*
X118903743Y-94333397D01*
X118928930Y-94255880D01*
X118957833Y-94166925D01*
X118957833Y-94166924D01*
X118959873Y-94160646D01*
X118966312Y-94099389D01*
X118978170Y-93986565D01*
X118978860Y-93980000D01*
X118959873Y-93799354D01*
X118957273Y-93791350D01*
X118914350Y-93659249D01*
X118903743Y-93626603D01*
X118812923Y-93469297D01*
X118723426Y-93369900D01*
X118695803Y-93339222D01*
X118695802Y-93339221D01*
X118691381Y-93334311D01*
X118544430Y-93227545D01*
X118538402Y-93224861D01*
X118538400Y-93224860D01*
X118384524Y-93156350D01*
X118384523Y-93156350D01*
X118378493Y-93153665D01*
X118289657Y-93134782D01*
X118207278Y-93117272D01*
X118207274Y-93117272D01*
X118200821Y-93115900D01*
X118019179Y-93115900D01*
X118012726Y-93117272D01*
X118012722Y-93117272D01*
X117930343Y-93134782D01*
X117841507Y-93153665D01*
X117835477Y-93156350D01*
X117835476Y-93156350D01*
X117681600Y-93224860D01*
X117681598Y-93224861D01*
X117675570Y-93227545D01*
X117528619Y-93334311D01*
X117525445Y-93337836D01*
X117462060Y-93368254D01*
X117441758Y-93369900D01*
X116509902Y-93369900D01*
X116441781Y-93349898D01*
X116420807Y-93332995D01*
X111799920Y-88712108D01*
X111792810Y-88704295D01*
X111788826Y-88698017D01*
X111774342Y-88684415D01*
X111741069Y-88653170D01*
X111738227Y-88650415D01*
X111719265Y-88631453D01*
X111716138Y-88629027D01*
X111715497Y-88628462D01*
X111707337Y-88621493D01*
X111682239Y-88597925D01*
X111676458Y-88592496D01*
X111659681Y-88583272D01*
X111643168Y-88572425D01*
X111634302Y-88565548D01*
X111634297Y-88565545D01*
X111628034Y-88560687D01*
X111589150Y-88543861D01*
X111578505Y-88538646D01*
X111541378Y-88518235D01*
X111522838Y-88513475D01*
X111504141Y-88507074D01*
X111486565Y-88499468D01*
X111444722Y-88492841D01*
X111433103Y-88490435D01*
X111392074Y-88479900D01*
X111372936Y-88479900D01*
X111353225Y-88478349D01*
X111334316Y-88475354D01*
X111321199Y-88476594D01*
X111292139Y-88479341D01*
X111280281Y-88479900D01*
X108949500Y-88479900D01*
X108881379Y-88459898D01*
X108834886Y-88406242D01*
X108823500Y-88353900D01*
X108823500Y-88041866D01*
X108816745Y-87979684D01*
X108765615Y-87843295D01*
X108678261Y-87726739D01*
X108561705Y-87639385D01*
X108425316Y-87588255D01*
X108363134Y-87581500D01*
X106266866Y-87581500D01*
X106204684Y-87588255D01*
X106068295Y-87639385D01*
X105951739Y-87726739D01*
X105864385Y-87843295D01*
X105813255Y-87979684D01*
X105806500Y-88041866D01*
X105806500Y-90138134D01*
X105813255Y-90200316D01*
X105864385Y-90336705D01*
X105951739Y-90453261D01*
X106068295Y-90540615D01*
X106204684Y-90591745D01*
X106266866Y-90598500D01*
X108363134Y-90598500D01*
X108425316Y-90591745D01*
X108561705Y-90540615D01*
X108678261Y-90453261D01*
X108765615Y-90336705D01*
X108816745Y-90200316D01*
X108823500Y-90138134D01*
X108823500Y-89826100D01*
X108843502Y-89757979D01*
X108897158Y-89711486D01*
X108949500Y-89700100D01*
X111010099Y-89700100D01*
X111078220Y-89720102D01*
X111099194Y-89737005D01*
X111905222Y-90543033D01*
X111939248Y-90605345D01*
X111934183Y-90676160D01*
X111890189Y-90734063D01*
X111855065Y-90759582D01*
X111829810Y-90777931D01*
X111810945Y-90791637D01*
X111806524Y-90796547D01*
X111806523Y-90796548D01*
X111701350Y-90913355D01*
X111689403Y-90926623D01*
X111668162Y-90963414D01*
X111616312Y-91053222D01*
X111598583Y-91083929D01*
X111585216Y-91125070D01*
X111557813Y-91209408D01*
X111542453Y-91256680D01*
X111523466Y-91437326D01*
X111524156Y-91443891D01*
X111540776Y-91602012D01*
X111542453Y-91617972D01*
X111544493Y-91624250D01*
X111544493Y-91624251D01*
X111559597Y-91670735D01*
X111598583Y-91790723D01*
X111601886Y-91796445D01*
X111601887Y-91796446D01*
X111686100Y-91942309D01*
X111686103Y-91942313D01*
X111689403Y-91948029D01*
X111715411Y-91976913D01*
X111746128Y-92040919D01*
X111737365Y-92111373D01*
X111710870Y-92150319D01*
X110201940Y-93659249D01*
X110139628Y-93693275D01*
X110068813Y-93688210D01*
X110011977Y-93645663D01*
X110003733Y-93633166D01*
X109922923Y-93493197D01*
X109862464Y-93426050D01*
X109831747Y-93362043D01*
X109830100Y-93341740D01*
X109830100Y-92610160D01*
X109850102Y-92542039D01*
X109862464Y-92525849D01*
X109875146Y-92511765D01*
X109902027Y-92481910D01*
X109918504Y-92463611D01*
X109918505Y-92463610D01*
X109922923Y-92458703D01*
X109926223Y-92452987D01*
X109926226Y-92452983D01*
X110010439Y-92307120D01*
X110010440Y-92307119D01*
X110013743Y-92301397D01*
X110045161Y-92204703D01*
X110067833Y-92134925D01*
X110067833Y-92134924D01*
X110069873Y-92128646D01*
X110071689Y-92111373D01*
X110088170Y-91954565D01*
X110088860Y-91948000D01*
X110083074Y-91892949D01*
X110070563Y-91773918D01*
X110070563Y-91773917D01*
X110069873Y-91767354D01*
X110052389Y-91713542D01*
X110015785Y-91600888D01*
X110013743Y-91594603D01*
X109922923Y-91437297D01*
X109863631Y-91371446D01*
X109805803Y-91307222D01*
X109805802Y-91307221D01*
X109801381Y-91302311D01*
X109761457Y-91273304D01*
X109659772Y-91199426D01*
X109659771Y-91199425D01*
X109654430Y-91195545D01*
X109648402Y-91192861D01*
X109648400Y-91192860D01*
X109494524Y-91124350D01*
X109494523Y-91124350D01*
X109488493Y-91121665D01*
X109399657Y-91102783D01*
X109317278Y-91085272D01*
X109317274Y-91085272D01*
X109310821Y-91083900D01*
X109129179Y-91083900D01*
X109122726Y-91085272D01*
X109122722Y-91085272D01*
X109040343Y-91102783D01*
X108951507Y-91121665D01*
X108945477Y-91124350D01*
X108945476Y-91124350D01*
X108791600Y-91192860D01*
X108791598Y-91192861D01*
X108785570Y-91195545D01*
X108780229Y-91199425D01*
X108780228Y-91199426D01*
X108678544Y-91273304D01*
X108638619Y-91302311D01*
X108634198Y-91307221D01*
X108634197Y-91307222D01*
X108576370Y-91371446D01*
X108517077Y-91437297D01*
X108513776Y-91443015D01*
X108469906Y-91519000D01*
X108418524Y-91567993D01*
X108360787Y-91582000D01*
X107587115Y-91582000D01*
X107571876Y-91586475D01*
X107570671Y-91587865D01*
X107569000Y-91595548D01*
X107569000Y-94579884D01*
X107573475Y-94595123D01*
X107574865Y-94596328D01*
X107582548Y-94597999D01*
X108359669Y-94597999D01*
X108366490Y-94597629D01*
X108417352Y-94592105D01*
X108432607Y-94588478D01*
X108465085Y-94576303D01*
X108535892Y-94571120D01*
X108602950Y-94609974D01*
X108638619Y-94649589D01*
X108643961Y-94653470D01*
X108643963Y-94653472D01*
X108780228Y-94752474D01*
X108785570Y-94756355D01*
X108791603Y-94759041D01*
X108791608Y-94759044D01*
X108838998Y-94780144D01*
X108893094Y-94826124D01*
X108913743Y-94894051D01*
X108894390Y-94962359D01*
X108876844Y-94984345D01*
X107587884Y-96273304D01*
X106302108Y-97559080D01*
X106294295Y-97566190D01*
X106288017Y-97570174D01*
X106282591Y-97575953D01*
X106282590Y-97575953D01*
X106243170Y-97617931D01*
X106240415Y-97620773D01*
X106221453Y-97639735D01*
X106219027Y-97642862D01*
X106218462Y-97643503D01*
X106211494Y-97651661D01*
X106182496Y-97682542D01*
X106173272Y-97699319D01*
X106162425Y-97715832D01*
X106155548Y-97724698D01*
X106155545Y-97724703D01*
X106150687Y-97730966D01*
X106134272Y-97768900D01*
X106133862Y-97769847D01*
X106128646Y-97780495D01*
X106108235Y-97817622D01*
X106103666Y-97835417D01*
X106103475Y-97836161D01*
X106097074Y-97854859D01*
X106089468Y-97872435D01*
X106082902Y-97913896D01*
X106082842Y-97914274D01*
X106080435Y-97925897D01*
X106069900Y-97966926D01*
X106069900Y-97986064D01*
X106068349Y-98005774D01*
X106065354Y-98024684D01*
X106066100Y-98032575D01*
X106069341Y-98066861D01*
X106069900Y-98078719D01*
X106069900Y-98573980D01*
X106049898Y-98642101D01*
X106022852Y-98672176D01*
X105958205Y-98724154D01*
X105958200Y-98724159D01*
X105953399Y-98728019D01*
X105823119Y-98883281D01*
X105820155Y-98888673D01*
X105820152Y-98888677D01*
X105736136Y-99041502D01*
X105725477Y-99060891D01*
X105720093Y-99077865D01*
X105666132Y-99247973D01*
X105664193Y-99254084D01*
X105663507Y-99260201D01*
X105663506Y-99260205D01*
X105657472Y-99314000D01*
X105646500Y-99411817D01*
X105646500Y-99971004D01*
X102108500Y-99971004D01*
X102108500Y-94134669D01*
X105807001Y-94134669D01*
X105807371Y-94141490D01*
X105812895Y-94192352D01*
X105816521Y-94207604D01*
X105861676Y-94328054D01*
X105870214Y-94343649D01*
X105946715Y-94445724D01*
X105959276Y-94458285D01*
X106061351Y-94534786D01*
X106076946Y-94543324D01*
X106197394Y-94588478D01*
X106212649Y-94592105D01*
X106263514Y-94597631D01*
X106270328Y-94598000D01*
X107042885Y-94598000D01*
X107058124Y-94593525D01*
X107059329Y-94592135D01*
X107061000Y-94584452D01*
X107061000Y-93362115D01*
X107056525Y-93346876D01*
X107055135Y-93345671D01*
X107047452Y-93344000D01*
X105825116Y-93344000D01*
X105809877Y-93348475D01*
X105808672Y-93349865D01*
X105807001Y-93357548D01*
X105807001Y-94134669D01*
X102108500Y-94134669D01*
X102108500Y-92817885D01*
X105807000Y-92817885D01*
X105811475Y-92833124D01*
X105812865Y-92834329D01*
X105820548Y-92836000D01*
X107042885Y-92836000D01*
X107058124Y-92831525D01*
X107059329Y-92830135D01*
X107061000Y-92822452D01*
X107061000Y-91600116D01*
X107056525Y-91584877D01*
X107055135Y-91583672D01*
X107047452Y-91582001D01*
X106270331Y-91582001D01*
X106263510Y-91582371D01*
X106212648Y-91587895D01*
X106197396Y-91591521D01*
X106076946Y-91636676D01*
X106061351Y-91645214D01*
X105959276Y-91721715D01*
X105946715Y-91734276D01*
X105870214Y-91836351D01*
X105861676Y-91851946D01*
X105816522Y-91972394D01*
X105812895Y-91987649D01*
X105807369Y-92038514D01*
X105807000Y-92045328D01*
X105807000Y-92817885D01*
X102108500Y-92817885D01*
X102108500Y-86138134D01*
X105806500Y-86138134D01*
X105813255Y-86200316D01*
X105864385Y-86336705D01*
X105951739Y-86453261D01*
X106068295Y-86540615D01*
X106204684Y-86591745D01*
X106266866Y-86598500D01*
X108363134Y-86598500D01*
X108425316Y-86591745D01*
X108561705Y-86540615D01*
X108678261Y-86453261D01*
X108765615Y-86336705D01*
X108816745Y-86200316D01*
X108823500Y-86138134D01*
X108823500Y-84041866D01*
X108816745Y-83979684D01*
X108765615Y-83843295D01*
X108678261Y-83726739D01*
X108561705Y-83639385D01*
X108425316Y-83588255D01*
X108363134Y-83581500D01*
X106266866Y-83581500D01*
X106204684Y-83588255D01*
X106068295Y-83639385D01*
X105951739Y-83726739D01*
X105864385Y-83843295D01*
X105813255Y-83979684D01*
X105806500Y-84041866D01*
X105806500Y-86138134D01*
X102108500Y-86138134D01*
X102108500Y-79374500D01*
X102128502Y-79306379D01*
X102182158Y-79259886D01*
X102234500Y-79248500D01*
X188595500Y-79248500D01*
X188663621Y-79268502D01*
G37*
G04 #@! TD.AperFunction*
G04 #@! TA.AperFunction,Conductor*
G36*
X150363099Y-98420102D02*
G01*
X150409592Y-98473758D01*
X150419696Y-98544032D01*
X150404097Y-98589100D01*
X150349138Y-98684293D01*
X150336257Y-98706603D01*
X150280127Y-98879354D01*
X150279437Y-98885917D01*
X150279437Y-98885918D01*
X150265094Y-99022384D01*
X150261140Y-99060000D01*
X150261830Y-99066565D01*
X150278638Y-99226475D01*
X150280127Y-99240646D01*
X150282167Y-99246924D01*
X150282167Y-99246925D01*
X150307974Y-99326351D01*
X150336257Y-99413397D01*
X150339560Y-99419119D01*
X150339561Y-99419120D01*
X150348807Y-99435135D01*
X150427077Y-99570703D01*
X150431495Y-99575610D01*
X150431496Y-99575611D01*
X150533454Y-99688847D01*
X150548619Y-99705689D01*
X150553961Y-99709570D01*
X150553963Y-99709572D01*
X150643701Y-99774770D01*
X150695570Y-99812455D01*
X150701598Y-99815139D01*
X150701600Y-99815140D01*
X150830060Y-99872334D01*
X150861507Y-99886335D01*
X150934994Y-99901955D01*
X151032722Y-99922728D01*
X151032726Y-99922728D01*
X151039179Y-99924100D01*
X151079099Y-99924100D01*
X151147220Y-99944102D01*
X151168194Y-99961005D01*
X154455079Y-103247890D01*
X154462191Y-103255706D01*
X154466174Y-103261983D01*
X154471952Y-103267409D01*
X154513931Y-103306830D01*
X154516773Y-103309585D01*
X154535735Y-103328547D01*
X154538862Y-103330973D01*
X154539503Y-103331538D01*
X154547661Y-103338506D01*
X154578542Y-103367504D01*
X154595319Y-103376728D01*
X154611832Y-103387575D01*
X154620698Y-103394452D01*
X154620703Y-103394455D01*
X154626966Y-103399313D01*
X154665847Y-103416138D01*
X154676495Y-103421354D01*
X154713622Y-103441765D01*
X154732161Y-103446525D01*
X154750859Y-103452926D01*
X154768435Y-103460532D01*
X154810278Y-103467159D01*
X154821897Y-103469565D01*
X154862926Y-103480100D01*
X154882064Y-103480100D01*
X154901774Y-103481651D01*
X154920684Y-103484646D01*
X154962860Y-103480659D01*
X154974719Y-103480100D01*
X155109600Y-103480100D01*
X155177721Y-103500102D01*
X155224214Y-103553758D01*
X155234318Y-103624032D01*
X155229433Y-103645036D01*
X155189188Y-103768900D01*
X155184402Y-103783629D01*
X155183712Y-103790192D01*
X155183712Y-103790193D01*
X155181335Y-103812806D01*
X155165415Y-103964275D01*
X155166105Y-103970840D01*
X155183310Y-104134527D01*
X155184402Y-104144921D01*
X155186442Y-104151199D01*
X155186442Y-104151200D01*
X155211804Y-104229255D01*
X155240532Y-104317672D01*
X155331352Y-104474978D01*
X155335770Y-104479885D01*
X155335771Y-104479886D01*
X155443505Y-104599537D01*
X155452894Y-104609964D01*
X155458236Y-104613845D01*
X155458238Y-104613847D01*
X155594503Y-104712849D01*
X155599845Y-104716730D01*
X155605873Y-104719414D01*
X155605875Y-104719415D01*
X155754729Y-104785689D01*
X155765782Y-104790610D01*
X155854618Y-104809493D01*
X155936997Y-104827003D01*
X155937001Y-104827003D01*
X155943454Y-104828375D01*
X156125096Y-104828375D01*
X156131549Y-104827003D01*
X156131553Y-104827003D01*
X156213932Y-104809492D01*
X156302768Y-104790610D01*
X156313821Y-104785689D01*
X156462675Y-104719415D01*
X156462677Y-104719414D01*
X156468705Y-104716730D01*
X156474047Y-104712849D01*
X156610312Y-104613847D01*
X156610314Y-104613845D01*
X156615656Y-104609964D01*
X156618830Y-104606439D01*
X156682215Y-104576021D01*
X156702517Y-104574375D01*
X162025047Y-104574375D01*
X162035599Y-104574873D01*
X162042853Y-104576494D01*
X162108320Y-104574437D01*
X162112277Y-104574375D01*
X162139108Y-104574375D01*
X162143035Y-104573879D01*
X162143941Y-104573822D01*
X162154585Y-104572983D01*
X162196924Y-104571653D01*
X162215311Y-104566311D01*
X162234668Y-104562303D01*
X162245790Y-104560898D01*
X162245791Y-104560898D01*
X162253657Y-104559904D01*
X162264457Y-104555628D01*
X162293043Y-104544311D01*
X162304270Y-104540467D01*
X162337334Y-104530860D01*
X162337336Y-104530859D01*
X162344950Y-104528647D01*
X162361430Y-104518901D01*
X162379170Y-104510210D01*
X162396979Y-104503159D01*
X162431257Y-104478255D01*
X162441177Y-104471739D01*
X162470804Y-104454218D01*
X162470807Y-104454216D01*
X162477631Y-104450180D01*
X162491158Y-104436653D01*
X162506192Y-104423812D01*
X162515272Y-104417215D01*
X162515273Y-104417214D01*
X162521687Y-104412554D01*
X162548699Y-104379902D01*
X162556688Y-104371123D01*
X163791807Y-103136005D01*
X163854119Y-103101979D01*
X163880902Y-103099100D01*
X163920821Y-103099100D01*
X163927274Y-103097728D01*
X163927278Y-103097728D01*
X164020847Y-103077839D01*
X164098493Y-103061335D01*
X164104524Y-103058650D01*
X164258400Y-102990140D01*
X164258402Y-102990139D01*
X164264430Y-102987455D01*
X164411381Y-102880689D01*
X164421006Y-102870000D01*
X164528502Y-102750613D01*
X164532923Y-102745703D01*
X164536194Y-102740037D01*
X164592397Y-102696698D01*
X164663133Y-102690623D01*
X164727206Y-102725018D01*
X166103879Y-104101691D01*
X166137905Y-104164003D01*
X166140093Y-104177610D01*
X166155127Y-104320646D01*
X166157167Y-104326924D01*
X166157167Y-104326925D01*
X166174381Y-104379903D01*
X166211257Y-104493397D01*
X166214560Y-104499119D01*
X166214561Y-104499120D01*
X166225983Y-104518904D01*
X166302077Y-104650703D01*
X166306495Y-104655610D01*
X166306496Y-104655611D01*
X166393258Y-104751970D01*
X166423619Y-104785689D01*
X166428961Y-104789570D01*
X166428963Y-104789572D01*
X166565228Y-104888574D01*
X166570570Y-104892455D01*
X166576598Y-104895139D01*
X166576600Y-104895140D01*
X166730476Y-104963650D01*
X166736507Y-104966335D01*
X166825343Y-104985218D01*
X166907722Y-105002728D01*
X166907726Y-105002728D01*
X166914179Y-105004100D01*
X166954099Y-105004100D01*
X167022220Y-105024102D01*
X167043194Y-105041005D01*
X168905944Y-106903755D01*
X168936682Y-106953913D01*
X168962508Y-107033397D01*
X168965811Y-107039119D01*
X168965812Y-107039120D01*
X169030348Y-107150900D01*
X169047086Y-107219896D01*
X169023865Y-107286987D01*
X168968058Y-107330874D01*
X168921229Y-107339900D01*
X156057952Y-107339900D01*
X155989831Y-107319898D01*
X155943338Y-107266242D01*
X155933234Y-107195968D01*
X155962728Y-107131388D01*
X156022454Y-107093004D01*
X156031755Y-107090653D01*
X156033672Y-107090245D01*
X156057367Y-107085209D01*
X156063398Y-107082524D01*
X156217274Y-107014014D01*
X156217276Y-107014013D01*
X156223304Y-107011329D01*
X156228646Y-107007448D01*
X156364911Y-106908446D01*
X156364913Y-106908444D01*
X156370255Y-106904563D01*
X156402913Y-106868293D01*
X156487378Y-106774485D01*
X156487379Y-106774484D01*
X156491797Y-106769577D01*
X156582617Y-106612271D01*
X156621346Y-106493075D01*
X156636707Y-106445799D01*
X156636707Y-106445798D01*
X156638747Y-106439520D01*
X156657734Y-106258874D01*
X156647192Y-106158574D01*
X156639437Y-106084792D01*
X156639437Y-106084791D01*
X156638747Y-106078228D01*
X156582617Y-105905477D01*
X156491797Y-105748171D01*
X156370255Y-105613185D01*
X156363653Y-105608388D01*
X156228646Y-105510300D01*
X156228645Y-105510299D01*
X156223304Y-105506419D01*
X156217276Y-105503735D01*
X156217274Y-105503734D01*
X156063398Y-105435224D01*
X156063397Y-105435224D01*
X156057367Y-105432539D01*
X155968531Y-105413657D01*
X155886152Y-105396146D01*
X155886148Y-105396146D01*
X155879695Y-105394774D01*
X155839776Y-105394774D01*
X155771655Y-105374772D01*
X155750681Y-105357869D01*
X149077105Y-98684293D01*
X149043079Y-98621981D01*
X149048144Y-98551166D01*
X149092139Y-98493262D01*
X149166037Y-98439572D01*
X149166039Y-98439570D01*
X149171381Y-98435689D01*
X149174555Y-98432164D01*
X149237940Y-98401746D01*
X149258242Y-98400100D01*
X150294978Y-98400100D01*
X150363099Y-98420102D01*
G37*
G04 #@! TD.AperFunction*
G04 #@! TA.AperFunction,Conductor*
G36*
X158489109Y-91674036D02*
G01*
X158545945Y-91716583D01*
X158561486Y-91743875D01*
X158589863Y-91812385D01*
X158589865Y-91812389D01*
X158591760Y-91816963D01*
X158594346Y-91821183D01*
X158713241Y-92015202D01*
X158713245Y-92015208D01*
X158715824Y-92019416D01*
X158870031Y-92199969D01*
X159050584Y-92354176D01*
X159054792Y-92356755D01*
X159054798Y-92356759D01*
X159248084Y-92475205D01*
X159253037Y-92478240D01*
X159257616Y-92480137D01*
X159261097Y-92481910D01*
X159312715Y-92530656D01*
X159329900Y-92594180D01*
X159329900Y-96999322D01*
X159329402Y-97009874D01*
X159327781Y-97017128D01*
X159328843Y-97050928D01*
X159329838Y-97082595D01*
X159329900Y-97086552D01*
X159329900Y-97113383D01*
X159330396Y-97117310D01*
X159330453Y-97118216D01*
X159331292Y-97128860D01*
X159332622Y-97171199D01*
X159334834Y-97178812D01*
X159337964Y-97189586D01*
X159341972Y-97208943D01*
X159342901Y-97216293D01*
X159344371Y-97227932D01*
X159347291Y-97235307D01*
X159359964Y-97267318D01*
X159363808Y-97278545D01*
X159373415Y-97311609D01*
X159375628Y-97319225D01*
X159385374Y-97335705D01*
X159394065Y-97353445D01*
X159401116Y-97371254D01*
X159417953Y-97394428D01*
X159426020Y-97405532D01*
X159432536Y-97415452D01*
X159454095Y-97451906D01*
X159467622Y-97465433D01*
X159480463Y-97480467D01*
X159491721Y-97495962D01*
X159497829Y-97501015D01*
X159524372Y-97522973D01*
X159533152Y-97530963D01*
X163342895Y-101340707D01*
X163376921Y-101403019D01*
X163371856Y-101473835D01*
X163327861Y-101531738D01*
X163325491Y-101533460D01*
X163248619Y-101589311D01*
X163244198Y-101594221D01*
X163244197Y-101594222D01*
X163186668Y-101658115D01*
X163127077Y-101724297D01*
X163101621Y-101768388D01*
X163039889Y-101875313D01*
X163036257Y-101881603D01*
X163024507Y-101917765D01*
X162983644Y-102043531D01*
X162980127Y-102054354D01*
X162967583Y-102173707D01*
X162965094Y-102197384D01*
X162938081Y-102263041D01*
X162928879Y-102273309D01*
X161884918Y-103317270D01*
X161822606Y-103351296D01*
X161795823Y-103354175D01*
X158027186Y-103354175D01*
X157959065Y-103334173D01*
X157912572Y-103280517D01*
X157902468Y-103210243D01*
X157907873Y-103187674D01*
X157925634Y-103135352D01*
X157925635Y-103135347D01*
X157927490Y-103129883D01*
X157956723Y-102928263D01*
X157958249Y-102870000D01*
X157939608Y-102667126D01*
X157938040Y-102661566D01*
X157885875Y-102476606D01*
X157885874Y-102476604D01*
X157884307Y-102471047D01*
X157880882Y-102464100D01*
X157796756Y-102293510D01*
X157794201Y-102288329D01*
X157775318Y-102263041D01*
X157675758Y-102129715D01*
X157675758Y-102129714D01*
X157672305Y-102125091D01*
X157582646Y-102042211D01*
X157526943Y-101990719D01*
X157526940Y-101990717D01*
X157522703Y-101986800D01*
X157443033Y-101936532D01*
X157355288Y-101881169D01*
X157355283Y-101881167D01*
X157350404Y-101878088D01*
X157161180Y-101802595D01*
X156961366Y-101762849D01*
X156955592Y-101762773D01*
X156955588Y-101762773D01*
X156852452Y-101761424D01*
X156757655Y-101760183D01*
X156751958Y-101761162D01*
X156751957Y-101761162D01*
X156585514Y-101789762D01*
X156556870Y-101794684D01*
X156365734Y-101865198D01*
X156360773Y-101868150D01*
X156360772Y-101868150D01*
X156243749Y-101937772D01*
X156190649Y-101969363D01*
X156037478Y-102103690D01*
X156033906Y-102108221D01*
X155952167Y-102211906D01*
X155894286Y-102253019D01*
X155853217Y-102259900D01*
X155244902Y-102259900D01*
X155176781Y-102239898D01*
X155155807Y-102222995D01*
X154576223Y-101643411D01*
X154542197Y-101581099D01*
X154547262Y-101510284D01*
X154589809Y-101453448D01*
X154653350Y-101428886D01*
X154709495Y-101423529D01*
X154721228Y-101421270D01*
X154912599Y-101365128D01*
X154923675Y-101360698D01*
X155100978Y-101269381D01*
X155111024Y-101262931D01*
X155267857Y-101139738D01*
X155276506Y-101131501D01*
X155407212Y-100980877D01*
X155414147Y-100971153D01*
X155514010Y-100798533D01*
X155518984Y-100787669D01*
X155584407Y-100599273D01*
X155584648Y-100598284D01*
X155583180Y-100587992D01*
X155569615Y-100584000D01*
X154177000Y-100584000D01*
X154108879Y-100563998D01*
X154062386Y-100510342D01*
X154051000Y-100458000D01*
X154051000Y-100300859D01*
X158272132Y-100300859D01*
X158285457Y-100504151D01*
X158335605Y-100701610D01*
X158420898Y-100886624D01*
X158538479Y-101052997D01*
X158684410Y-101195157D01*
X158689206Y-101198362D01*
X158689209Y-101198364D01*
X158752839Y-101240880D01*
X158853803Y-101308342D01*
X158859106Y-101310620D01*
X158859109Y-101310622D01*
X158948115Y-101348862D01*
X159040987Y-101388763D01*
X159103990Y-101403019D01*
X159234055Y-101432450D01*
X159234060Y-101432451D01*
X159239692Y-101433725D01*
X159245463Y-101433952D01*
X159245465Y-101433952D01*
X159308470Y-101436427D01*
X159443263Y-101441723D01*
X159644883Y-101412490D01*
X159650347Y-101410635D01*
X159650352Y-101410634D01*
X159832327Y-101348862D01*
X159832332Y-101348860D01*
X159837799Y-101347004D01*
X160015551Y-101247458D01*
X160172186Y-101117186D01*
X160302458Y-100960551D01*
X160398488Y-100789077D01*
X160399180Y-100787842D01*
X160399181Y-100787840D01*
X160402004Y-100782799D01*
X160403860Y-100777332D01*
X160403862Y-100777327D01*
X160465634Y-100595352D01*
X160465635Y-100595347D01*
X160467490Y-100589883D01*
X160496723Y-100388263D01*
X160498249Y-100330000D01*
X160479608Y-100127126D01*
X160465189Y-100076000D01*
X160425875Y-99936606D01*
X160425874Y-99936604D01*
X160424307Y-99931047D01*
X160420882Y-99924100D01*
X160336756Y-99753510D01*
X160334201Y-99748329D01*
X160329536Y-99742081D01*
X160215758Y-99589715D01*
X160215758Y-99589714D01*
X160212305Y-99585091D01*
X160096075Y-99477649D01*
X160066943Y-99450719D01*
X160066940Y-99450717D01*
X160062703Y-99446800D01*
X159953682Y-99378013D01*
X159895288Y-99341169D01*
X159895283Y-99341167D01*
X159890404Y-99338088D01*
X159701180Y-99262595D01*
X159515950Y-99225750D01*
X159507032Y-99223976D01*
X159507031Y-99223976D01*
X159501366Y-99222849D01*
X159495592Y-99222773D01*
X159495588Y-99222773D01*
X159392452Y-99221424D01*
X159297655Y-99220183D01*
X159291958Y-99221162D01*
X159291957Y-99221162D01*
X159102567Y-99253705D01*
X159096870Y-99254684D01*
X158905734Y-99325198D01*
X158900773Y-99328150D01*
X158900772Y-99328150D01*
X158795772Y-99390619D01*
X158730649Y-99429363D01*
X158577478Y-99563690D01*
X158573911Y-99568215D01*
X158573906Y-99568220D01*
X158505901Y-99654485D01*
X158451351Y-99723681D01*
X158448662Y-99728792D01*
X158448660Y-99728795D01*
X158414270Y-99794160D01*
X158356492Y-99903978D01*
X158313226Y-100043317D01*
X158300715Y-100083611D01*
X158296078Y-100098543D01*
X158272132Y-100300859D01*
X154051000Y-100300859D01*
X154051000Y-100057885D01*
X154559000Y-100057885D01*
X154563475Y-100073124D01*
X154564865Y-100074329D01*
X154572548Y-100076000D01*
X155565402Y-100076000D01*
X155578933Y-100072027D01*
X155580288Y-100062601D01*
X155558806Y-99973463D01*
X155554917Y-99962168D01*
X155472371Y-99780618D01*
X155466424Y-99770276D01*
X155351032Y-99607603D01*
X155343239Y-99598575D01*
X155199169Y-99460658D01*
X155189804Y-99453262D01*
X155022259Y-99345079D01*
X155011655Y-99339583D01*
X154826688Y-99265039D01*
X154815230Y-99261645D01*
X154618072Y-99223143D01*
X154609209Y-99222066D01*
X154606500Y-99222000D01*
X154577115Y-99222000D01*
X154561876Y-99226475D01*
X154560671Y-99227865D01*
X154559000Y-99235548D01*
X154559000Y-100057885D01*
X154051000Y-100057885D01*
X154051000Y-99240227D01*
X154046749Y-99225750D01*
X154034488Y-99223687D01*
X153900506Y-99236471D01*
X153888772Y-99238730D01*
X153697401Y-99294872D01*
X153686325Y-99299302D01*
X153509022Y-99390619D01*
X153498976Y-99397069D01*
X153342143Y-99520262D01*
X153333494Y-99528499D01*
X153202788Y-99679123D01*
X153195853Y-99688847D01*
X153095990Y-99861467D01*
X153091014Y-99872334D01*
X153083285Y-99894591D01*
X153042042Y-99952380D01*
X152976104Y-99978698D01*
X152906404Y-99965189D01*
X152875163Y-99942351D01*
X152031121Y-99098309D01*
X151997095Y-99035997D01*
X151994906Y-99022384D01*
X151992857Y-99002882D01*
X151979873Y-98879354D01*
X151923743Y-98706603D01*
X151910863Y-98684293D01*
X151881762Y-98633889D01*
X151832923Y-98549297D01*
X151757549Y-98465585D01*
X151726832Y-98401578D01*
X151735597Y-98331125D01*
X151773958Y-98281718D01*
X151776250Y-98279940D01*
X151783073Y-98275905D01*
X151796600Y-98262378D01*
X151811634Y-98249537D01*
X151820714Y-98242940D01*
X151820715Y-98242939D01*
X151827129Y-98238279D01*
X151854141Y-98205627D01*
X151862130Y-98196848D01*
X158355982Y-91702997D01*
X158418294Y-91668971D01*
X158489109Y-91674036D01*
G37*
G04 #@! TD.AperFunction*
G04 #@! TA.AperFunction,Conductor*
G36*
X172483219Y-87625102D02*
G01*
X172504194Y-87642005D01*
X172936993Y-88074805D01*
X172971018Y-88137117D01*
X172965953Y-88207933D01*
X172923406Y-88264768D01*
X172856886Y-88289579D01*
X172847897Y-88289900D01*
X160371848Y-88289900D01*
X160361299Y-88289403D01*
X160354039Y-88287780D01*
X160346113Y-88288029D01*
X160346112Y-88288029D01*
X160288554Y-88289838D01*
X160284596Y-88289900D01*
X160257784Y-88289900D01*
X160253858Y-88290396D01*
X160253002Y-88290450D01*
X160242312Y-88291292D01*
X160219261Y-88292016D01*
X160207888Y-88292373D01*
X160207887Y-88292373D01*
X160199968Y-88292622D01*
X160192356Y-88294833D01*
X160192352Y-88294834D01*
X160181575Y-88297964D01*
X160162222Y-88301972D01*
X160143235Y-88304371D01*
X160103853Y-88319964D01*
X160092642Y-88323803D01*
X160051942Y-88335627D01*
X160045122Y-88339660D01*
X160045116Y-88339663D01*
X160035464Y-88345372D01*
X160017717Y-88354067D01*
X159999913Y-88361116D01*
X159993493Y-88365780D01*
X159993490Y-88365782D01*
X159965638Y-88386017D01*
X159955733Y-88392525D01*
X159919261Y-88414094D01*
X159905729Y-88427626D01*
X159890697Y-88440465D01*
X159875205Y-88451721D01*
X159870152Y-88457829D01*
X159848198Y-88484367D01*
X159840208Y-88493147D01*
X156574823Y-91758532D01*
X156512511Y-91792558D01*
X156441696Y-91787493D01*
X156384860Y-91744946D01*
X156360049Y-91678426D01*
X156369320Y-91621218D01*
X156377209Y-91602173D01*
X156377211Y-91602165D01*
X156379105Y-91597594D01*
X156400837Y-91507075D01*
X156433380Y-91371524D01*
X156433381Y-91371518D01*
X156434535Y-91366711D01*
X156453165Y-91130000D01*
X156434535Y-90893289D01*
X156431376Y-90880128D01*
X156384498Y-90684871D01*
X156379105Y-90662406D01*
X156367983Y-90635554D01*
X156290135Y-90447611D01*
X156290133Y-90447607D01*
X156288240Y-90443037D01*
X156238795Y-90362350D01*
X156166759Y-90244798D01*
X156166755Y-90244792D01*
X156164176Y-90240584D01*
X156009969Y-90060031D01*
X155829416Y-89905824D01*
X155825208Y-89903245D01*
X155825202Y-89903241D01*
X155631183Y-89784346D01*
X155626963Y-89781760D01*
X155622393Y-89779867D01*
X155622389Y-89779865D01*
X155412167Y-89692789D01*
X155412165Y-89692788D01*
X155407594Y-89690895D01*
X155327391Y-89671640D01*
X155181524Y-89636620D01*
X155181518Y-89636619D01*
X155176711Y-89635465D01*
X154940000Y-89616835D01*
X154703289Y-89635465D01*
X154698482Y-89636619D01*
X154698476Y-89636620D01*
X154552609Y-89671640D01*
X154472406Y-89690895D01*
X154467835Y-89692788D01*
X154467833Y-89692789D01*
X154257611Y-89779865D01*
X154257607Y-89779867D01*
X154253037Y-89781760D01*
X154248817Y-89784346D01*
X154054798Y-89903241D01*
X154054792Y-89903245D01*
X154050584Y-89905824D01*
X153870031Y-90060031D01*
X153715824Y-90240584D01*
X153713245Y-90244792D01*
X153713241Y-90244798D01*
X153641205Y-90362350D01*
X153591760Y-90443037D01*
X153589867Y-90447607D01*
X153589865Y-90447611D01*
X153512017Y-90635554D01*
X153500895Y-90662406D01*
X153495502Y-90684871D01*
X153448625Y-90880128D01*
X153445465Y-90893289D01*
X153426835Y-91130000D01*
X153445465Y-91366711D01*
X153446619Y-91371518D01*
X153446620Y-91371524D01*
X153479163Y-91507075D01*
X153500895Y-91597594D01*
X153502788Y-91602165D01*
X153502789Y-91602167D01*
X153589864Y-91812385D01*
X153591760Y-91816963D01*
X153594346Y-91821183D01*
X153713241Y-92015202D01*
X153713245Y-92015208D01*
X153715824Y-92019416D01*
X153870031Y-92199969D01*
X154050584Y-92354176D01*
X154054792Y-92356755D01*
X154054798Y-92356759D01*
X154225557Y-92461400D01*
X154253037Y-92478240D01*
X154257607Y-92480133D01*
X154257611Y-92480135D01*
X154467833Y-92567211D01*
X154472406Y-92569105D01*
X154532403Y-92583509D01*
X154698476Y-92623380D01*
X154698482Y-92623381D01*
X154703289Y-92624535D01*
X154940000Y-92643165D01*
X155176711Y-92624535D01*
X155181518Y-92623381D01*
X155181524Y-92623380D01*
X155347597Y-92583509D01*
X155407594Y-92569105D01*
X155412165Y-92567211D01*
X155412173Y-92567209D01*
X155431218Y-92559320D01*
X155501808Y-92551730D01*
X155565295Y-92583509D01*
X155601523Y-92644566D01*
X155598989Y-92715518D01*
X155568532Y-92764823D01*
X151190360Y-97142995D01*
X151128048Y-97177021D01*
X151101265Y-97179900D01*
X149258242Y-97179900D01*
X149190121Y-97159898D01*
X149175064Y-97148401D01*
X149171381Y-97144311D01*
X149152264Y-97130421D01*
X149029772Y-97041426D01*
X149029771Y-97041425D01*
X149024430Y-97037545D01*
X149018402Y-97034861D01*
X149018400Y-97034860D01*
X148864524Y-96966350D01*
X148864523Y-96966350D01*
X148858493Y-96963665D01*
X148769657Y-96944782D01*
X148687278Y-96927272D01*
X148687274Y-96927272D01*
X148680821Y-96925900D01*
X148499179Y-96925900D01*
X148492726Y-96927272D01*
X148492722Y-96927272D01*
X148410343Y-96944782D01*
X148321507Y-96963665D01*
X148315477Y-96966350D01*
X148315476Y-96966350D01*
X148161600Y-97034860D01*
X148161598Y-97034861D01*
X148155570Y-97037545D01*
X148150229Y-97041425D01*
X148150228Y-97041426D01*
X148027737Y-97130421D01*
X148008619Y-97144311D01*
X148004198Y-97149221D01*
X148004197Y-97149222D01*
X147975339Y-97181272D01*
X147887077Y-97279297D01*
X147883806Y-97284963D01*
X147827603Y-97328302D01*
X147756867Y-97334377D01*
X147692794Y-97299982D01*
X146534920Y-96142108D01*
X146527810Y-96134295D01*
X146523826Y-96128017D01*
X146476069Y-96083170D01*
X146473227Y-96080415D01*
X146454265Y-96061453D01*
X146451138Y-96059027D01*
X146450497Y-96058462D01*
X146442337Y-96051493D01*
X146433824Y-96043499D01*
X146411458Y-96022496D01*
X146394681Y-96013272D01*
X146378168Y-96002425D01*
X146369302Y-95995548D01*
X146369297Y-95995545D01*
X146363034Y-95990687D01*
X146355755Y-95987537D01*
X146352622Y-95986181D01*
X146350559Y-95984464D01*
X146348937Y-95983505D01*
X146349092Y-95983243D01*
X146298049Y-95940768D01*
X146276692Y-95873060D01*
X146277357Y-95857376D01*
X146283170Y-95802066D01*
X146283170Y-95802065D01*
X146283860Y-95795500D01*
X146269471Y-95658603D01*
X146265563Y-95621418D01*
X146265563Y-95621417D01*
X146264873Y-95614854D01*
X146261694Y-95605068D01*
X146210785Y-95448388D01*
X146208743Y-95442103D01*
X146200294Y-95427468D01*
X146121226Y-95290517D01*
X146121223Y-95290513D01*
X146117923Y-95284797D01*
X146107667Y-95273406D01*
X146086020Y-95249365D01*
X146057464Y-95217650D01*
X146026747Y-95153643D01*
X146025100Y-95133340D01*
X146025100Y-93014901D01*
X146045102Y-92946780D01*
X146062005Y-92925806D01*
X146625141Y-92362670D01*
X149072160Y-92362670D01*
X149077887Y-92370320D01*
X149249042Y-92475205D01*
X149257837Y-92479687D01*
X149467988Y-92566734D01*
X149477373Y-92569783D01*
X149698554Y-92622885D01*
X149708301Y-92624428D01*
X149935070Y-92642275D01*
X149944930Y-92642275D01*
X150171699Y-92624428D01*
X150181446Y-92622885D01*
X150402627Y-92569783D01*
X150412012Y-92566734D01*
X150622163Y-92479687D01*
X150630958Y-92475205D01*
X150798445Y-92372568D01*
X150807907Y-92362110D01*
X150804124Y-92353334D01*
X149952812Y-91502022D01*
X149938868Y-91494408D01*
X149937035Y-91494539D01*
X149930420Y-91498790D01*
X149078920Y-92350290D01*
X149072160Y-92362670D01*
X146625141Y-92362670D01*
X148241105Y-90746706D01*
X148303417Y-90712680D01*
X148374232Y-90717745D01*
X148431068Y-90760292D01*
X148455879Y-90826812D01*
X148452718Y-90865216D01*
X148447117Y-90888546D01*
X148445572Y-90898301D01*
X148427725Y-91125070D01*
X148427725Y-91134930D01*
X148445572Y-91361699D01*
X148447115Y-91371446D01*
X148500217Y-91592627D01*
X148503266Y-91602012D01*
X148590313Y-91812163D01*
X148594795Y-91820958D01*
X148697432Y-91988445D01*
X148707890Y-91997907D01*
X148716666Y-91994124D01*
X149579658Y-91131132D01*
X150304408Y-91131132D01*
X150304539Y-91132965D01*
X150308790Y-91139580D01*
X151160290Y-91991080D01*
X151172670Y-91997840D01*
X151180320Y-91992113D01*
X151285205Y-91820958D01*
X151289687Y-91812163D01*
X151376734Y-91602012D01*
X151379783Y-91592627D01*
X151432885Y-91371446D01*
X151434428Y-91361699D01*
X151452275Y-91134930D01*
X151452275Y-91125070D01*
X151434428Y-90898301D01*
X151432885Y-90888554D01*
X151379783Y-90667373D01*
X151376734Y-90657988D01*
X151289687Y-90447837D01*
X151285205Y-90439042D01*
X151182568Y-90271555D01*
X151172110Y-90262093D01*
X151163334Y-90265876D01*
X150312022Y-91117188D01*
X150304408Y-91131132D01*
X149579658Y-91131132D01*
X150801080Y-89909710D01*
X150807840Y-89897330D01*
X150802113Y-89889680D01*
X150630958Y-89784795D01*
X150622163Y-89780313D01*
X150412012Y-89693266D01*
X150402627Y-89690217D01*
X150181446Y-89637115D01*
X150171699Y-89635572D01*
X149944930Y-89617725D01*
X149935070Y-89617725D01*
X149708301Y-89635572D01*
X149698551Y-89637116D01*
X149675216Y-89642718D01*
X149604308Y-89639170D01*
X149546575Y-89597850D01*
X149520345Y-89531877D01*
X149533948Y-89462195D01*
X149556708Y-89431104D01*
X151345807Y-87642005D01*
X151408119Y-87607979D01*
X151434902Y-87605100D01*
X172415098Y-87605100D01*
X172483219Y-87625102D01*
G37*
G04 #@! TD.AperFunction*
M02*
